SplineFontDB: 3.0
FontName: Exo-BoldItalic
FullName: Exo Bold Italic
FamilyName: Exo
Weight: Bold
Copyright: Copyright (c) 2011 Natanael Gama (exo@ndiscovered.com), with Reserved Font Name "Exo"
Version: 1.00
ItalicAngle: 0
UnderlinePosition: -50
UnderlineWidth: 50
Ascent: 800
Descent: 200
sfntRevision: 0x00010000
LayerCount: 2
Layer: 0 0 "Back"  1
Layer: 1 0 "Fore"  0
XUID: [1021 762 1116966003 7964757]
FSType: 8
OS2Version: 0
OS2_WeightWidthSlopeOnly: 0
OS2_UseTypoMetrics: 1
CreationTime: 1317848288
ModificationTime: 1325017797
PfmFamily: 33
TTFWeight: 700
TTFWidth: 5
LineGap: 90
VLineGap: 0
OS2TypoAscent: 0
OS2TypoAOffset: 1
OS2TypoDescent: 0
OS2TypoDOffset: 1
OS2TypoLinegap: 90
OS2WinAscent: 0
OS2WinAOffset: 1
OS2WinDescent: 0
OS2WinDOffset: 1
HheadAscent: 0
HheadAOffset: 1
HheadDescent: 0
HheadDOffset: 1
OS2Vendor: 'PfEd'
Lookup: 4 0 0 "'ordn' Ordinals lookup 21"  {"'ordn' Ordinals lookup 21-1"  } ['ordn' ('DFLT' <'dflt' > 'grek' <'dflt' > 'latn' <'dflt' > ) ]
Lookup: 1 0 0 "'smcp' Lowercase to Small Capitals lookup 16"  {"'smcp' Lowercase to Small Capitals lookup 16-1" ("smcp" ) } ['smcp' ('DFLT' <'dflt' > 'grek' <'dflt' > 'latn' <'FRA ' 'dflt' > ) ]
Lookup: 1 0 0 "'c2sc' Capitals to Small Capitals in Latin lookup 17"  {"'c2sc' Capitals to Small Capitals in Latin lookup 17 subtable" ("smcp" ) } ['c2sc' ('latn' <'dflt' > ) ]
Lookup: 4 0 0 "'dlig' Discretionary Ligatures lookup 14"  {"'dlig' Discretionary Ligatures lookup 14-1"  } ['dlig' ('DFLT' <'dflt' > 'grek' <'dflt' > 'latn' <'dflt' > ) ]
Lookup: 4 0 1 "'liga' Standard Ligatures lookup 15"  {"'liga' Standard Ligatures lookup 15-1"  } ['liga' ('DFLT' <'dflt' > 'grek' <'dflt' > 'latn' <'FRA ' 'dflt' > ) ]
Lookup: 1 0 0 "'frac' Diagonal Fractions lookup 13"  {"'frac' Diagonal Fractions lookup 13-1"  } ['frac' ('DFLT' <'dflt' > 'grek' <'dflt' > 'latn' <'FRA ' 'dflt' > ) ]

StartChar: a
Encoding: 97 97 0
Width: 542
VWidth: 0
Flags: W
HStem: -5.90039 118.55<164.425 318.693>
DStem2: 389.05 162.85 506.35 1.09961 0.144928 0.989442<-24.3352 261.842>
LayerCount: 2
Fore
SplineSet
213.4 271.35 m 0
 198 170.75 204.75 112.65 267.35 112.65 c 0
 325.1 112.65 356.8 131.65 389.05 162.85 c 1
 427.3 419 l 1
 395.9 430.05 350.2 434.75 320.75 428.4 c 0
 275.55 419.15 233.95 405.15 213.4 271.35 c 0
76.9502 296.7 m 0
 119 516.45 233.5 536.5 327.6 541 c 0
 404.2 545.05 525.35 528 576.35 479 c 1
 506.35 1.09961 l 1
 398.35 1.09961 l 1
 376.9 55.5996 l 1
 350.65 22.8496 280 -5.90039 216.2 -5.90039 c 0
 112.65 -5.90039 35.2998 77.7002 76.9502 296.7 c 0
EndSplineSet
Validated: 524321
AlternateSubs2: "'salt' Access All Alternates in Latin lookup 4-1" a.salt
Substitution2: "'smcp' Lowercase to Small Capitals lookup 16-1" a.smcp
EndChar

StartChar: z
Encoding: 122 122 1
Width: 473
VWidth: 0
Flags: W
HStem: 1 118<246.25 452.877> 413 118<106.85 338.5>
DStem2: 55.1 117.9 246.25 119 0.692664 0.72126<133.196 409.145>
LayerCount: 2
Fore
SplineSet
37.85 1 m 1
 55.1 117.9 l 1
 338.5 413 l 1
 89.15 413 l 1
 106.85 531 l 1
 535.85 531 l 1
 518.15 413 l 1
 246.25 119 l 1
 470 119 l 1
 471 118 451.85 1 451.85 1 c 1
 37.85 1 l 1
EndSplineSet
Validated: 524321
Substitution2: "'smcp' Lowercase to Small Capitals lookup 16-1" z.smcp
EndChar

StartChar: e
Encoding: 101 101 2
Width: 527
VWidth: 0
Flags: W
HStem: -7 112.25<217.562 460.099> 428.5 112.5<267.76 406.013>
LayerCount: 2
Fore
SplineSet
222.4 300.25 m 1
 222.4 300.25 396.4 271.45 413.35 368.75 c 0
 422.05 418.3 394.55 429.05 338.55 428.5 c 0
 243.9 427.4 234.8 365.95 222.4 300.25 c 1
79.1 300 m 0
 110.1 463 153.6 539.9 348.6 541 c 0
 463.05 541.55 565.05 510.05 556.65 388 c 0
 541.3 145.9 247.55 192.75 210.55 207.75 c 1
 197.25 126.65 216.8 105.7 287.8 105.25 c 1
 347.3 102.55 442.85 111.55 504.9 122 c 1
 488.1 22 l 1
 407.95 -2.1 322.2 -13.6 211.15 -7 c 1
 83.7 -0.95 43.1 106 79.1 300 c 0
EndSplineSet
Validated: 524321
Substitution2: "'smcp' Lowercase to Small Capitals lookup 16-1" e.smcp
EndChar

StartChar: o
Encoding: 111 111 3
Width: 557
VWidth: 0
Flags: W
HStem: -5 112.5<225.421 375.643> 425.15 112.5<269.693 416.956>
LayerCount: 2
Fore
SplineSet
217.45 258 m 0
 195.05 122.85 221.35 107.5 295.75 107.5 c 0
 373.25 107.5 398.55 118.2 421.95 258 c 0
 444.9 398.2 429.55 425.15 346.1 425.15 c 0
 263.25 425.15 241.3 403.5 217.45 258 c 0
77.45 271.75 m 0
 111.45 488.75 182.85 537.65 362.35 537.65 c 0
 540.25 537.65 594.05 444.45 561.95 244.25 c 0
 530.05 47.25 466.45 -5 282.65 -5 c 0
 102.4 -5 47.45 81.75 77.45 271.75 c 0
EndSplineSet
Validated: 524321
Substitution2: "'smcp' Lowercase to Small Capitals lookup 16-1" o.smcp
EndChar

StartChar: c
Encoding: 99 99 5
Width: 492
VWidth: 0
Flags: W
HStem: -5.45 112.05<223.186 431.211> 427.15 112.5<267.5 494.765>
LayerCount: 2
Fore
SplineSet
78.55 282.5 m 0
 116.5 510.75 197.6 539.65 296 539.65 c 0
 348 539.65 462 530.15 535.5 507.25 c 1
 522 420.25 l 1
 522 420.25 427.45 427.15 338.45 427.15 c 0
 274.5 427.15 245.3 421.9 217.55 263.1 c 0
 194.95 128.95 218.7 106.6 287.55 106.6 c 0
 379.55 106.6 481.1 115.95 481.1 115.95 c 1
 467.15 28.05 l 1
 388.75 -0.45 324.55 -7 214.6 -5.45 c 0
 114.25 -4.45 44.65 77.65 78.55 282.5 c 0
EndSplineSet
Validated: 524321
Substitution2: "'smcp' Lowercase to Small Capitals lookup 16-1" c.smcp
EndChar

StartChar: d
Encoding: 100 100 6
Width: 550
VWidth: 0
Flags: W
HStem: -6 119.65<154.552 310.452> 429.25 109.75<266.97 418.741>
DStem2: 393.55 146.45 510.25 0 0.15658 0.987665<-15.1844 270.055 362.582 646.653>
LayerCount: 2
Fore
SplineSet
219.1 268.5 m 0
 200.3 152.75 219.15 113.65 265.25 113.65 c 0
 317.85 113.65 360.75 127.2 393.55 146.45 c 1
 435.2 409.3 l 1
 401.1 423.45 362.55 429.25 314.15 429.25 c 0
 271.75 429.25 241.15 404 219.1 268.5 c 0
78 285 m 0
 103.2 431.95 148.2 539 295.35 539 c 0
 340.35 539 405.55 526.65 450.7 504.5 c 1
 495.6 785 l 1
 634.7 785 l 1
 510.25 0 l 1
 395.1 0 l 1
 378.5 53.5 l 1
 341.25 26.8 277.35 -6 214.3 -6 c 0
 85.85 -6 51.4 131.65 78 285 c 0
EndSplineSet
Validated: 524321
AlternateSubs2: "'salt' Access All Alternates in Latin lookup 4-1" d.salt
Substitution2: "'smcp' Lowercase to Small Capitals lookup 16-1" d.smcp
EndChar

StartChar: A
Encoding: 65 65 7
Width: 688
VWidth: 0
Flags: W
HStem: 0 21G<34 198.558 531.212 678> 0 21G<34 198.558 531.212 678> 162.2 124.05<324.7 492.25> 712 20G<387.082 559.576>
DStem2: 34 0 188.7 0 0.444274 0.895891<68.7292 249.562 385.599 385.599> 556.25 732 451.25 551.55 0.164071 -0.986449<160.777 429.209>
LayerCount: 2
Fore
SplineSet
324.7 286.25 m 1x30
 492.25 286.25 l 1
 451.25 551.55 l 1
 324.7 286.25 l 1x30
34 0 m 1xb0
 397 732 l 1
 556.25 732 l 1
 678 0 l 1
 534.8 0 l 1
 505.7 162.2 l 1
 268.65 162.2 l 1
 188.7 0 l 1
 34 0 l 1xb0
EndSplineSet
Validated: 8912897
Substitution2: "'c2sc' Capitals to Small Capitals in Latin lookup 17 subtable" a.smcp
EndChar

StartChar: p
Encoding: 112 112 8
Width: 556
VWidth: 0
Flags: W
HStem: 428.65 107<256.55 413.819>
DStem2: 3.25 -270 142.8 -270 0.160643 0.987013<22.4177 325.229 413.618 730.267>
LayerCount: 2
Fore
SplineSet
206.1 122.45 m 1
 231.85 107.45 273.5 96.25 317.8 102.1 c 1
 369.35 106.15 401.4 131.95 423.45 269.6 c 0
 439.75 370.1 426.35 428.65 366.55 428.65 c 2
 256.55 428.65 l 1
 206.1 122.45 l 1
3.25 -270 m 1
 130.2 510 l 1
 199.8 526.6 314 535.65 407.4 535.65 c 0
 550.4 535.65 587.25 407.4 562.9 244.75 c 0
 538.3 77.95 474.75 -9.1 329.85 -9.1 c 0
 284.85 -9.1 227.05 1.35 190.7 29 c 1
 142.8 -270 l 1
 3.25 -270 l 1
EndSplineSet
Validated: 524321
AlternateSubs2: "'salt' Access All Alternates in Latin lookup 4-1" p.salt
Substitution2: "'smcp' Lowercase to Small Capitals lookup 16-1" p.smcp
EndChar

StartChar: b
Encoding: 98 98 9
Width: 556
VWidth: 0
Flags: W
HStem: -6 119.65<254.964 376.005> 429.25 109.75<299.878 503.5>
DStem2: 45.7 0 208.75 146.45 0.156027 0.987753<161.542 446.737 532.522 794.733>
LayerCount: 2
Fore
SplineSet
208.75 146.45 m 1
 235.55 127.2 275.3 113.65 327.9 113.65 c 0
 377.6 113.65 404.05 151.85 421.95 268.5 c 0
 439.95 386 432.7 429.25 377.25 429.25 c 0
 328.85 429.25 289.85 423.45 250.85 409.3 c 1
 208.75 146.45 l 1
45.7 0 m 1
 169.7 785 l 1
 308.8 785 l 1
 264.9 504.5 l 1
 316.95 526.65 383.35 539 428.35 539 c 0
 578.65 539 586.9 398.5 561.4 241 c 0
 534.9 80.4 483.85 -10.5 345.05 -6 c 0
 282 -4.2 223.3 26.8 194.25 53.5 c 1
 160.85 0 l 1
 45.7 0 l 1
EndSplineSet
Validated: 524321
AlternateSubs2: "'salt' Access All Alternates in Latin lookup 4-1" b.salt
Substitution2: "'smcp' Lowercase to Small Capitals lookup 16-1" b.smcp
EndChar

StartChar: q
Encoding: 113 113 10
Width: 553
VWidth: 0
Flags: W
HStem: -10 110.3<223.904 339.423> 432.2 107<276.533 436.441>
DStem2: 326.4 -270 466.4 -270 0.155829 0.987784<21.8161 302.671 385.55 710.841>
LayerCount: 2
Fore
SplineSet
220 271.85 m 0
 203.35 159.85 196.6 100.3 273.8 100.3 c 0
 318.1 100.3 341.95 104.3 388.35 122 c 1
 436.9 432.2 l 1
 326.9 432.2 l 2
 250 432.2 229.55 333.2 220 271.85 c 0
79.45 284.5 m 0
 109.2 470.1 190 539.2 316.35 539.2 c 0
 422.35 539.2 540.55 522.95 589.3 509.05 c 1
 466.4 -270 l 1
 326.4 -270 l 1
 373.4 29 l 1
 327.95 1.35 278.95 -10 233.95 -10 c 0
 80.95 -10 51.7 107.8 79.45 284.5 c 0
EndSplineSet
Validated: 524321
Substitution2: "'smcp' Lowercase to Small Capitals lookup 16-1" q.smcp
EndChar

StartChar: n
Encoding: 110 110 11
Width: 550
VWidth: 0
Flags: W
HStem: 0 21G<45.7 188.877 372.7 515.882> 0 21G<45.7 188.877 372.7 515.882> 427.5 112.5<336.806 502> 511 20G<126.536 248.784>
DStem2: 372.7 0 512.7 0 0.156198 0.987726<21.8677 417.083>
LayerCount: 2
Fore
SplineSet
45.7 0 m 1xa0
 129.7 531 l 1
 242.2 531 l 1x90
 260.8 474.5 l 1
 311.85 507.3 359.2 540 440.2 540 c 0
 563.8 540 585.15 454.7 568.95 353.5 c 2
 512.7 0 l 1
 372.7 0 l 1
 428.95 355.7 l 2
 437.3 408.5 417.05 427.5 382 427.5 c 0
 325.65 427.5 292.45 413 246.3 381.5 c 1
 185.7 0 l 1
 45.7 0 l 1xa0
EndSplineSet
Validated: 524321
AlternateSubs2: "'salt' Access All Alternates in Latin lookup 4-1" n.salt
Substitution2: "'smcp' Lowercase to Small Capitals lookup 16-1" n.smcp
EndChar

StartChar: i
Encoding: 105 105 12
Width: 226
VWidth: 0
Flags: W
HStem: 0 21G<42.95 186.114> 0 21G<42.95 186.114> 511 20G<123.786 266.95> 586.4 136.65<148.361 284.982>
VStem: 42.95 255.9
DStem2: 42.95 0 182.95 0 0.163792 0.986495<22.9308 537.587 614.122 639.143 679.905 736.231>
LayerCount: 2
Fore
SplineSet
133.9 609.4 m 2x38
 147.4 698.05 l 2
 149.4 713.05 159.4 723.05 175.4 723.05 c 2
 280.4 723.05 l 2
 295.4 723.05 300.85 712.05 298.85 698.05 c 2
 285.35 609.4 l 2
 283.35 594.4 272.9 586.4 258.9 586.4 c 2
 153.9 586.4 l 2
 139.9 586.4 131.9 595.4 133.9 609.4 c 2x38
42.95 0 m 1xb8
 126.95 531 l 1
 266.95 531 l 1
 182.95 0 l 1
 42.95 0 l 1xb8
EndSplineSet
Validated: 8912897
Substitution2: "'smcp' Lowercase to Small Capitals lookup 16-1" i.smcp
EndChar

StartChar: h
Encoding: 104 104 13
Width: 550
VWidth: 0
Flags: W
HStem: 0 21G<45.7 188.877 372.7 515.882> 0 21G<45.7 188.877 372.7 515.882> 427.5 112.5<337.579 502> 762.9 20G<166.532 309.15>
DStem2: 45.7 0 185.7 0 0.156435 0.987688<21.901 426.322 502.221 792.659> 372.7 0 512.7 0 0.156198 0.987726<21.8677 417.083>
LayerCount: 2
Fore
SplineSet
45.7 0 m 1xb0
 169.7 782.9 l 1
 309.15 782.9 l 1
 260.25 474.5 l 1
 309.1 506.2 359.2 540 440.2 540 c 0
 563.8 540 585.15 454.7 568.95 353.5 c 2
 512.7 0 l 1
 372.7 0 l 1
 428.95 355.7 l 2
 437.3 408.5 417.5 427.5 382 427.5 c 0
 325.65 427.5 292.45 413 246.3 381.5 c 1
 185.7 0 l 1
 45.7 0 l 1xb0
EndSplineSet
Validated: 8912929
Substitution2: "'smcp' Lowercase to Small Capitals lookup 16-1" h.smcp
EndChar

StartChar: u
Encoding: 117 117 14
Width: 549
VWidth: 0
Flags: W
HStem: -9 112.5<133.05 300.066> 0 21G<385.461 507.535> 0 21G<385.461 507.535> 511 20G<118.743 261.9 445.747 588.9>
DStem2: 66.1 177.5 205.55 175.3 0.156469 0.987683<-38.1814 357.877> 388.75 149.5 504.35 0 0.157247 0.987559<-18.155 386.212>
LayerCount: 2
Fore
SplineSet
66.1 177.5 m 2x90
 121.9 531 l 1
 261.9 531 l 1
 205.55 175.3 l 2
 196.3 118 218 103.5 253.05 103.5 c 0x90
 309.4 103.5 342.6 118 388.75 149.5 c 1
 448.9 531 l 1
 588.9 531 l 1
 504.35 0 l 1
 391.85 0 l 1x50
 373.8 56.5 l 1
 320.55 19.3 275.85 -9 194.85 -9 c 0
 71.25 -9 49.45 73.15 66.1 177.5 c 2x90
EndSplineSet
Validated: 524321
AlternateSubs2: "'salt' Access All Alternates in Latin lookup 4-1" u.salt
Substitution2: "'smcp' Lowercase to Small Capitals lookup 16-1" u.smcp
EndChar

StartChar: r
Encoding: 114 114 15
Width: 417
VWidth: 0
Flags: W
HStem: 0 21G<45.7 188.863> 0 21G<45.7 188.863> 397.65 133.35<324.103 460.543>
DStem2: 45.7 0 185.7 0 0.156249 0.987718<21.8749 393.967>
LayerCount: 2
Fore
SplineSet
45.7 0 m 1xa0
 129.7 531 l 1
 247.7 531 l 1
 258.7 464 l 1
 301.5 499.55 357 536.45 423.05 536.45 c 0
 446 536.45 468 535.55 481.2 530.1 c 1
 459.85 394.95 l 1
 445.65 396.3 413.65 397.65 383.55 397.65 c 0
 325.55 397.65 282.1 388.2 239.25 338.55 c 1
 185.7 0 l 1
 45.7 0 l 1xa0
EndSplineSet
Validated: 524289
AlternateSubs2: "'salt' Access All Alternates in Latin lookup 4-1" r.salt
Substitution2: "'smcp' Lowercase to Small Capitals lookup 16-1" r.smcp
EndChar

StartChar: m
Encoding: 109 109 16
Width: 875
VWidth: 0
Flags: W
HStem: 0 21G<45.7 188.861 370 513.181 698.1 841.273> 0 21G<45.7 188.861 370 513.181 698.1 841.273> 426.15 112.5<334.744 469.35 654.285 822.225> 511 20G<126.536 248.681>
DStem2: 370 0 510 0 0.155956 0.987764<21.8338 414.513> 698.1 0 838.1 0 0.157245 0.98756<22.0143 412.487>
LayerCount: 2
Fore
SplineSet
45.7 0 m 1xa0
 129.7 531 l 1
 242.2 531 l 1x90
 260.8 473.6 l 1
 314.05 507.5 354.7 538.65 436.6 538.65 c 0
 502.1 538.65 545.65 509.35 560.65 466.4 c 1
 613.6 501.15 679.15 538.65 765.15 538.65 c 0
 879.3 538.65 911 459.2 893.9 351.7 c 2
 838.1 0 l 1
 698.1 0 l 1
 754.45 353.9 l 2
 762.35 403.55 740.65 426.15 706.95 426.15 c 0
 651.45 426.15 612.9 415.9 570.7 384.45 c 1
 570.15 380.05 566.35 355.75 565.8 350.8 c 2
 510 0 l 1
 370 0 l 1
 425.8 353.9 l 2
 433.7 403.55 412.1 426.15 378.4 426.15 c 0
 322.05 426.15 292 412.1 245.85 380.6 c 1
 185.7 0 l 1
 45.7 0 l 1xa0
EndSplineSet
Validated: 524321
AlternateSubs2: "'salt' Access All Alternates in Latin lookup 4-1" m.salt
Substitution2: "'smcp' Lowercase to Small Capitals lookup 16-1" m.smcp
EndChar

StartChar: f
Encoding: 102 102 17
Width: 404
VWidth: 0
Flags: W
HStem: 0 21G<97.3 240.548> 0 21G<97.3 240.548> 424 107<323.55 434.75> 424 89.1<96.05 130.268> 679 106.55<356.3 497.009>
DStem2: 97.3 0 237.3 0 0.160367 0.987057<22.4514 429.481 560.411 703.292>
LayerCount: 2
Fore
SplineSet
81.55 424 m 1x98
 96.05 513.1 l 1x98
 183.55 531 l 1
 195.05 601.65 l 2
 216.75 738.85 269.65 785.55 387.85 785.55 c 0
 432.8 785.55 483.15 774.8 510.15 761.55 c 1
 497.1 678.45 l 2
 496.55 678.45 406.55 679 406.55 679 c 2
 348 679.55 342.7 654.05 329.55 568.65 c 2
 323.55 531 l 1
 451.7 531 l 1
 434.75 424 l 1x28
 306.15 424 l 1
 237.3 0 l 1
 97.3 0 l 1
 165.7 424 l 1
 81.55 424 l 1x98
EndSplineSet
Validated: 8912929
AlternateSubs2: "'salt' Access All Alternates in Latin lookup 4-1" f.salt
Substitution2: "'smcp' Lowercase to Small Capitals lookup 16-1" f.smcp
EndChar

StartChar: l
Encoding: 108 108 18
Width: 307
VWidth: 0
Flags: W
HStem: 0 87.35<242.806 292.55> 763 20G<164.435 307.6>
DStem2: 73.6 189 217.45 211 0.156304 0.987709<-41.7327 601.392>
LayerCount: 2
Fore
SplineSet
73.6 189 m 2
 167.6 783 l 1
 307.6 783 l 1
 217.45 211 l 2
 204.2 128.5 219.45 117.65 248 107 c 1
 248 107 302.2 87.35 306.5 87.35 c 1
 292.55 0 l 1
 202.55 0 l 2
 107.55 0 52.5 53.4 73.6 189 c 2
EndSplineSet
Validated: 524321
Substitution2: "'smcp' Lowercase to Small Capitals lookup 16-1" l.smcp
EndChar

StartChar: j
Encoding: 106 106 19
Width: 243
VWidth: 0
Flags: W
HStem: 511 20G<133.129 276.3> 586.4 136.65<157.715 293.632>
VStem: 9.3 299.35
DStem2: 9.3 -270 191.3 -4 0.15048 0.988613<67.041 810.99 884.387 943.657 967.334 1007.73>
LayerCount: 2
Fore
SplineSet
142.15 609.4 m 2
 156.65 698.05 l 2
 158.65 713.05 168.65 723.05 184.65 723.05 c 2
 289.65 723.05 l 2
 304.65 723.05 310.65 712.05 308.65 698.05 c 2
 294.15 609.4 l 2
 292.15 594.4 281.7 586.4 267.7 586.4 c 2
 162.7 586.4 l 2
 148.7 586.4 140.15 595.4 142.15 609.4 c 2
9.3 -270 m 1
 136.3 531 l 1
 276.3 531 l 1
 191.3 -4 l 2
 178.3 -90 160.3 -185.7 112.3 -270 c 1
 9.3 -270 l 1
EndSplineSet
Validated: 524321
Substitution2: "'smcp' Lowercase to Small Capitals lookup 16-1" j.smcp
EndChar

StartChar: t
Encoding: 116 116 20
Width: 376
VWidth: 0
Flags: W
HStem: -0.55 87.35<293.468 344.2> 425 107<319.35 421.1>
DStem2: 125.35 189.55 268.65 211.55 0.156547 0.98767<-41.8821 238.347>
LayerCount: 2
Fore
SplineSet
76.6 425 m 1
 88.9 503 l 1
 179.35 532 l 1
 226.4 680 l 1
 342.9 680 l 1
 319.35 532 l 1
 438.05 532 l 1
 421.1 425 l 1
 302.4 425 l 1
 268.65 211.55 l 2
 255.85 127.95 270.1 117.1 298.65 106.45 c 1
 298.65 106.45 353.4 86.8 357.7 86.8 c 1
 344.2 -0.55 l 1
 247.6 -0.55 l 2
 159.95 -0.55 104.25 53.5 125.35 189.55 c 2
 162.4 425 l 1
 76.6 425 l 1
EndSplineSet
Validated: 524321
AlternateSubs2: "'salt' Access All Alternates in Latin lookup 4-1" t.salt
Substitution2: "'smcp' Lowercase to Small Capitals lookup 16-1" t.smcp
EndChar

StartChar: s
Encoding: 115 115 21
Width: 509
VWidth: 0
Flags: W
HStem: -7.25 116.35<70.8531 355.681> 204.45 121.3<225.954 366.54> 422.9 115.35<239.45 518.4>
LayerCount: 2
Fore
SplineSet
55.75 21.65 m 1
 69.7 109.1 l 1
 320.05 109.1 l 2
 329.4 109.1 355.35 110.25 360.95 142.75 c 2
 365.55 169.8 l 2
 369.35 192.15 363.65 204.45 335.05 204.45 c 2
 216.2 204.45 l 2
 122.2 204.45 68.9 256.35 84.9 358 c 2
 92.9 406.25 l 2
 106.35 490.05 150.55 538.25 253.55 538.25 c 0
 355.6 538.25 495.1 534.95 532.35 511.25 c 1
 518.4 422.9 l 1
 278.3 422.9 l 2
 242.35 422.9 234.25 405.35 231.25 386.45 c 2
 227.1 360.2 l 2
 220.5 321.25 243.65 325.75 262.85 325.75 c 2
 385.35 325.75 l 2
 486.65 325.75 520.85 254.7 508.3 177.5 c 1
 499.3 116.7 l 2
 482.3 7.7 407.5 -7.25 347.1 -7.25 c 0
 246.4 -7.25 88.9 -2.7 55.75 21.65 c 1
EndSplineSet
Validated: 524321
Substitution2: "'smcp' Lowercase to Small Capitals lookup 16-1" s.smcp
EndChar

StartChar: k
Encoding: 107 107 22
Width: 530
VWidth: 0
Flags: W
HStem: 0 21G<45.7 188.925 386.638 553.7> 0 21G<45.7 188.925 386.638 553.7> 511 20G<424.3 585.7> 762 20G<166.529 309.7>
DStem2: 45.7 0 185.7 0 0.156611 0.98766<21.9256 267.861 364.102 791.77> 391.2 288 262.85 243.8 0.491409 -0.870929<0 254.022>
LayerCount: 2
Fore
SplineSet
45.7 0 m 1xb0
 169.7 782 l 1
 309.7 782 l 1
 239 338 l 1
 316.55 366.2 411.9 445 436.7 531 c 1
 585.7 531 l 1
 549.2 399.8 452.6 320.2 391.2 288 c 1
 553.7 0 l 1
 397.7 0 l 1
 262.85 243.8 l 1
 224.85 242.8 l 1
 185.7 0 l 1
 45.7 0 l 1xb0
EndSplineSet
Validated: 8912897
Substitution2: "'smcp' Lowercase to Small Capitals lookup 16-1" k.smcp
EndChar

StartChar: g
Encoding: 103 103 23
Width: 556
VWidth: 0
Flags: W
HStem: -248 93<34 88.6708> -0.75 109.85<226.473 342.427> 433.3 107<275.895 435.186>
DStem2: 359 -60 497.9 -76.5 0.156654 0.987653<-71.8296 98.4774 181.811 499.499>
LayerCount: 2
Fore
SplineSet
221.1 280.65 m 0
 206.7 187.1 194.55 109.1 274.45 109.1 c 0
 318.75 109.1 342.6 113.1 389 130.8 c 1
 437.45 433.3 l 1
 329.7 433.3 l 2
 249.65 433.3 229.75 333.9 221.1 280.65 c 0
19.4 -248 m 1
 34 -155 l 1
 259 -155 l 2
 309.3 -155 349 -124 359 -60 c 2
 374.5 37.25 l 1
 329.6 10.15 281.4 -0.75 236.4 -0.75 c 0
 80.25 -0.75 52.8 119.2 80.55 295.9 c 0
 109.2 475.45 194.6 540.3 313.75 540.3 c 0
 419.75 540.3 542.2 524.05 590.95 510.15 c 1
 497.9 -76.5 l 2
 476.25 -212.6 396.75 -286.6 256.9 -272 c 2
 19.4 -248 l 1
EndSplineSet
Validated: 524321
AlternateSubs2: "'salt' Access All Alternates in Latin lookup 4-1" g.salt
Substitution2: "'smcp' Lowercase to Small Capitals lookup 16-1" g.smcp
EndChar

StartChar: v
Encoding: 118 118 24
Width: 534
VWidth: 0
Flags: W
HStem: 0 21G<181.083 365.721> 0 21G<181.083 365.721> 511 20G<83.55 234.582 445.225 582.85>
VStem: 447.95 128.85<443.064 532.1>
DStem2: 289.3 155.9 355.45 0 0.456832 0.889553<0 380.298>
LayerCount: 2
Fore
SplineSet
83.55 531 m 1xb0
 231.5 531 l 1
 289.3 155.9 l 1
 415.9 420.2 l 2
 428.9 447.2 442.5 479.15 447.95 532.1 c 1
 576.8 532.1 l 1
 588.9 474.9 569.2 416.65 548.7 376.3 c 2
 355.45 0 l 1
 184.9 0 l 1
 83.55 531 l 1xb0
EndSplineSet
Validated: 8912929
Substitution2: "'smcp' Lowercase to Small Capitals lookup 16-1" v.smcp
EndChar

StartChar: w
Encoding: 119 119 25
Width: 828
VWidth: 0
Flags: W
HStem: 0 21G<181.083 360.108 483.503 652.952> 0 21G<181.083 360.108 483.503 652.952> 511 20G<83.55 233.178 442.975 576.975 741.925 877.75>
VStem: 445.7 126.6<441.714 530.75> 744.65 127.05<443.064 532.1>
DStem2: 286.6 158.15 448.55 204.1 0.438087 0.898932<0 112.254 303.038 402.31> 582.4 160.85 642.25 0 0.471786 0.881713<0 373.881>
LayerCount: 2
Fore
SplineSet
83.55 531 m 1xb8
 230.15 531 l 1
 286.6 158.15 l 1
 413.65 418.85 l 2
 426.65 445.85 440.25 477.8 445.7 530.75 c 1
 572.3 530.75 l 1
 581.65 488.4 574.6 446.65 559.05 408.5 c 2
 542.7 370.45 l 1
 582.4 160.85 l 1
 712.6 420.2 l 2
 725.6 447.2 739.2 479.15 744.65 532.1 c 1
 871.7 532.1 l 1
 883.8 474.9 865 416.2 843.6 376.3 c 2
 642.25 0 l 1
 487.3 0 l 1
 448.55 204.1 l 1
 350.5 0 l 1
 184.9 0 l 1
 83.55 531 l 1xb8
EndSplineSet
Validated: 524321
Substitution2: "'smcp' Lowercase to Small Capitals lookup 16-1" w.smcp
EndChar

StartChar: y
Encoding: 121 121 26
Width: 563
VWidth: 0
Flags: W
HStem: 511 20G<84.1 231.087 470.425 608.95>
VStem: 473.15 129.75<430.288 532.45>
DStem2: 229.3 531 84.1 531 0.10443 -0.994532<0 412.154> 264.45 0 408.1 0.45 0.415349 0.909662<-118.418 0 124.558 540.206>
LayerCount: 2
Fore
SplineSet
84.1 531 m 1
 229.3 531 l 1
 262.5 159.45 l 2
 266.65 120.35 304.65 121 313.45 120.45 c 1
 447.6 420.55 l 2
 459.4 448.1 467.7 479.5 473.15 532.45 c 1
 602.9 532.45 l 1
 615 475.25 597.8 416.3 579.05 374.85 c 2
 408.1 0.45 l 2
 303.35 -230.35 172.7 -273.95 91.95 -288.25 c 1
 91.95 -189.6 l 1
 181.2 -141.55 227.45 -72.65 264.45 0 c 1
 188.85 0 135.7 40.8 125.65 135.3 c 2
 84.1 531 l 1
EndSplineSet
Validated: 524321
Substitution2: "'smcp' Lowercase to Small Capitals lookup 16-1" y.smcp
EndChar

StartChar: x
Encoding: 120 120 27
Width: 572
VWidth: 0
Flags: W
HStem: 0 21G<18.5 206.93 377.482 548.7> 0 21G<18.5 206.93 377.482 548.7> 511 20G<102.5 277.746 452.354 638.45>
DStem2: 18.5 0 191.1 0 0.646187 0.763179<111.532 306.872> 343 372.1 411.15 250.2 0.629174 0.777264<0 202.217>
LayerCount: 2
Fore
SplineSet
18.5 0 m 1xa0
 244.15 274.6 l 1
 102.5 531 l 1
 268.35 531 l 1
 343 372.1 l 1
 468.1 531 l 1
 638.45 531 l 1
 411.15 250.2 l 1
 548.7 0 l 1
 387.25 0 l 1
 312.4 153.25 l 1
 191.1 0 l 1
 18.5 0 l 1xa0
EndSplineSet
Validated: 8912897
AlternateSubs2: "'salt' Access All Alternates in Latin lookup 4-1" x.salt
Substitution2: "'smcp' Lowercase to Small Capitals lookup 16-1" x.smcp
EndChar

StartChar: V
Encoding: 86 86 28
Width: 685
VWidth: 0
Flags: W
HStem: 0 21G<249.399 424.268> 0 21G<249.399 424.268> 712 20G<139 288.99 606.696 772>
DStem2: 286.3 732 139 732 0.153224 -0.988192<0 552.369> 359.95 184.45 414.5 0 0.438847 0.898562<0 604.396>
LayerCount: 2
Fore
SplineSet
139 732 m 1xa0
 286.3 732 l 1
 359.95 184.45 l 1
 616.05 732 l 1
 772 732 l 1
 414.5 0 l 1
 252.5 0 l 1
 139 732 l 1xa0
EndSplineSet
Validated: 524289
Substitution2: "'c2sc' Capitals to Small Capitals in Latin lookup 17 subtable" v.smcp
EndChar

StartChar: W
Encoding: 87 87 29
Width: 1010
VWidth: 0
Flags: W
HStem: 0 21G<249.399 427.607 601.195 771.067> 0 21G<249.399 427.607 601.195 771.067> 712 20G<139 287.729 590.702 749.55 939.845 1097.4>
DStem2: 284.95 732 139 732 0.153224 -0.988192<0 546.282> 360.15 190.85 418.35 0 0.412227 0.911081<0 181.613 430.433 591.719> 706.6 188.15 761.9 0 0.416655 0.909065<0 595.288>
LayerCount: 2
Fore
SplineSet
139 732 m 1xa0
 284.95 732 l 1
 360.15 190.85 l 1
 599.55 732 l 1
 749.55 732 l 1
 655.85 529.5 l 1
 706.6 188.15 l 1
 948.75 732 l 1
 1097.4 732 l 1
 761.9 0 l 1
 604.3 0 l 1
 557.6 300.85 l 1
 418.35 0 l 1
 252.5 0 l 1
 139 732 l 1xa0
EndSplineSet
Validated: 524289
Substitution2: "'c2sc' Capitals to Small Capitals in Latin lookup 17 subtable" w.smcp
EndChar

StartChar: C
Encoding: 67 67 30
Width: 571
VWidth: 0
Flags: W
HStem: -6 129<273.971 529.805> 611 129<330.594 607.379>
LayerCount: 2
Fore
SplineSet
100.15 385.05 m 0
 137.5 618.5 208.2 740 407.2 740 c 0
 509.8 740 581.95 727.95 657.1 704.5 c 1
 639.85 594.9 l 1
 629.4 596.25 520.7 611.9 421.3 611 c 0
 350.35 610.55 279.35 615 240.15 366 c 1
 213.25 202.9 233 127.05 341.2 123 c 1
 418.75 121.65 503.9 127.05 567.8 131.55 c 1
 551 21.95 l 1
 476.45 -2.7 401.65 -7.65 291 -6 c 0
 104.75 -4.35 66.65 173.25 100.15 385.05 c 0
EndSplineSet
Validated: 524321
Substitution2: "'c2sc' Capitals to Small Capitals in Latin lookup 17 subtable" c.smcp
EndChar

StartChar: D
Encoding: 68 68 31
Width: 655
VWidth: 0
Flags: W
HStem: 0 124.85<220.45 436.143> 608.5 123.5<297.05 501.766>
DStem2: 60.75 0 220.45 124.85 0.156611 0.98766<148.32 637.998>
LayerCount: 2
Fore
SplineSet
220.45 124.85 m 1
 367.2 124.85 l 2
 460.9 124.85 510.3 219.4 533.2 364 c 0
 563.55 554.45 526.9 608.5 438.3 608.5 c 2
 297.05 608.5 l 1
 220.45 124.85 l 1
60.75 0 m 1
 176.75 731.55 l 2
 176.75 732 446.4 732 473.4 732 c 0
 684.1 732 700.7 524.6 672.65 346.5 c 0
 633.45 96.65 543.65 0 366.75 0 c 2
 60.75 0 l 1
EndSplineSet
Validated: 524321
Substitution2: "'c2sc' Capitals to Small Capitals in Latin lookup 17 subtable" d.smcp
EndChar

StartChar: O
Encoding: 79 79 32
Width: 666
VWidth: 0
Flags: W
HStem: -4 129<264.377 458.232> 608 129<332.201 530.406>
LayerCount: 2
Fore
SplineSet
243.45 361 m 0
 211.8 161.2 238.3 125 359.7 125 c 0
 470.9 125 520.15 163.7 551.45 361 c 0
 587.45 589.05 542.5 608 436.65 608 c 0
 328.4 608 280 594 243.45 361 c 0
103.45 374.75 m 0
 157.45 717.75 281.25 737 452.4 737 c 0
 625.85 737 743.65 684.85 691.45 347.25 c 0
 641.35 24.25 520.8 -4 343.95 -4 c 0
 172.05 -4 50.45 41.75 103.45 374.75 c 0
EndSplineSet
Validated: 524321
Substitution2: "'c2sc' Capitals to Small Capitals in Latin lookup 17 subtable" o.smcp
EndChar

StartChar: S
Encoding: 83 83 33
Width: 579
VWidth: 0
Flags: W
HStem: -8 129<97.9401 412.382> 291.75 140<268.794 439.517> 609 129<289.506 602.763>
LayerCount: 2
Fore
SplineSet
70.75 21.5 m 1
 88 131.55 l 1
 128.8 126.65 242 121 335 121 c 0
 377.1 121 427.05 129.3 435.65 184.05 c 2
 441.7 223.45 l 2
 448.5 265.05 444.2 291.75 385.8 291.75 c 2
 284.75 291.75 l 2
 109.05 291.75 111.107 428.837 119.9 488.5 c 2
 130.45 564.4 l 1
 152.7 714.35 249 738.15 359.2 738 c 1
 464.45 739.3 568.9 727.5 631.7 709.05 c 1
 614.45 599.45 l 1
 557.3 603.3 413.2 609 376.9 609 c 1
 313 610.8 279.95 604.3 269.35 538 c 2
 263.75 502.25 l 2
 253.35 437.05 278.95 431.75 332.5 431.75 c 2
 435.75 431.75 l 2
 574.7 431.75 593.6 318.65 582.25 237.75 c 1
 576.2 172.5 l 1
 561.55 0.7 428.1 -8 336.75 -8 c 0
 222.965 -8 138.75 -0.35 70.75 21.5 c 1
EndSplineSet
Validated: 524321
Substitution2: "'c2sc' Capitals to Small Capitals in Latin lookup 17 subtable" s.smcp
EndChar

StartChar: G
Encoding: 71 71 34
Width: 613
VWidth: 0
Flags: W
HStem: -5.9 131.2<268.747 391.548> 303 113.5<405.817 486> 616.05 123.5<337.446 619.863>
LayerCount: 2
Fore
SplineSet
103.8 390.65 m 0
 146.65 624.1 206.8 739.55 405.8 739.55 c 0
 515.3 740 572.1 731.25 673.65 705.05 c 1
 656.85 597.65 l 1
 626.55 601.7 511 615.6 420.45 616.05 c 0
 342.75 616.5 279.7 593.55 245.15 366.65 c 1
 219.15 203.1 232.3 124.85 333.35 125.3 c 0
 402.55 125.3 464.1 175.35 464.1 175.35 c 1
 486 303 l 1
 383 303 l 1
 397.05 391.5 l 1
 442.9 409.65 503.3 416.5 576.05 416.5 c 0
 597.05 416.5 619.6 415.5 643.6 413.5 c 1
 577.65 0 l 1
 476.65 0 l 1
 446.3 52.6 l 1
 413.2 19.2 365.05 -3.15 286.85 -5.9 c 0
 88.2 -12.6 68.65 199.75 103.8 390.65 c 0
EndSplineSet
Validated: 524321
Substitution2: "'c2sc' Capitals to Small Capitals in Latin lookup 17 subtable" g.smcp
EndChar

StartChar: Q
Encoding: 81 81 35
Width: 668
VWidth: 0
Flags: W
HStem: -174.25 113<376.242 513> -4 129<266.177 460.032> 608 129<334.001 532.206>
LayerCount: 2
Fore
SplineSet
293.05 -33 m 1
 372.55 -33 l 1
 395.1 -86.35 469.4 -77.3 530.95 -61.25 c 1
 513 -174.25 l 1
 408.95 -196.3 280.4 -161.05 293.05 -33 c 1
245.25 361 m 0
 213.6 161.2 240.1 125 361.5 125 c 0
 472.7 125 521.95 163.7 553.25 361 c 0
 589.25 589.05 544.3 608 438.45 608 c 0
 330.2 608 281.8 594 245.25 361 c 0
105.25 377.5 m 0
 159.25 720.5 283.05 737 454.2 737 c 0
 627.65 737 745.45 682.1 693.25 344.5 c 0
 643.15 21.5 522.6 -2.9 345.75 -4 c 1
 173.85 -4 52.25 44.5 105.25 377.5 c 0
EndSplineSet
Validated: 524321
Substitution2: "'c2sc' Capitals to Small Capitals in Latin lookup 17 subtable" q.smcp
EndChar

StartChar: M
Encoding: 77 77 36
Width: 827
VWidth: 0
Flags: W
HStem: 0 21G<49 194.929 351.304 520.28 675.35 814.994> 0 21G<49 194.929 351.304 520.28 675.35 814.994> 712 20G<224.568 422.97 656.396 861.05>
DStem2: 49 0 190.1 0 0.239413 0.970918<33.7812 536.362> 421.2 732 308.05 488.55 0.088138 -0.996108<232.53 502.054> 465.45 231.9 512.2 0 0.369564 0.929205<0 329.183> 675.35 0 813.7 0 0.0645509 0.997914<8.93061 490.201>
LayerCount: 2
Fore
SplineSet
49 0 m 1xa0
 229.5 732 l 1
 421.2 732 l 1
 465.45 231.9 l 1
 664.35 732 l 1
 861.05 732 l 1
 813.7 0 l 1
 675.35 0 l 1
 709.75 489 l 1
 512.2 0 l 1
 353.15 0 l 1
 308.05 488.55 l 1
 190.1 0 l 1
 49 0 l 1xa0
EndSplineSet
Validated: 8912897
AlternateSubs2: "'salt' Access All Alternates in Latin lookup 4-1" M.salt
Substitution2: "'c2sc' Capitals to Small Capitals in Latin lookup 17 subtable" m.smcp
EndChar

StartChar: I
Encoding: 73 73 37
Width: 256
VWidth: 0
Flags: W
HStem: 0 21G<65.25 208.419> 0 21G<65.25 208.419> 712 20G<178.081 321.25>
VStem: 65.25 256
DStem2: 65.25 0 205.25 0 0.156517 0.987675<21.9124 741.134>
LayerCount: 2
Fore
SplineSet
65.25 0 m 1xb0
 181.25 732 l 1
 321.25 732 l 1
 205.25 0 l 1
 65.25 0 l 1xb0
EndSplineSet
Validated: 8912897
Substitution2: "'c2sc' Capitals to Small Capitals in Latin lookup 17 subtable" i.smcp
EndChar

StartChar: J
Encoding: 74 74 38
Width: 356
VWidth: 0
Flags: W
HStem: 712 20G<283.934 427.1>
DStem2: 207 226.05 337.1 165 0.156768 0.987636<-81.234 512.251>
LayerCount: 2
Fore
SplineSet
29.75 23.2 m 1
 48.8 132.2 l 1
 138.5 124.1 190.95 123.4 207 226.05 c 2
 287.1 732 l 1
 427.1 732 l 1
 337.1 165 l 2
 330.1 118 316 50 261 18 c 0
 203 -16 76.75 -10.8 29.75 23.2 c 1
EndSplineSet
Validated: 524321
Substitution2: "'c2sc' Capitals to Small Capitals in Latin lookup 17 subtable" j.smcp
EndChar

StartChar: H
Encoding: 72 72 39
Width: 637
VWidth: 0
Flags: W
HStem: 0 21G<63 206.181 454 597.169> 0 21G<63 206.181 454 597.169> 289.5 129<268.95 500.05> 712 20G<175.831 319 566.807 710>
DStem2: 63 0 203 0 0.156517 0.987675<21.9124 315.052 445.577 741.134> 454 0 594 0 0.156517 0.987675<21.9124 293.14 423.664 741.134>
LayerCount: 2
Fore
SplineSet
63 0 m 1xb0
 179 732 l 1
 319 732 l 1
 268.95 418.5 l 1
 519.95 418.5 l 1
 570 732 l 1
 710 732 l 1
 594 0 l 1
 454 0 l 1
 500.05 289.5 l 1
 249.05 289.5 l 1
 203 0 l 1
 63 0 l 1xb0
EndSplineSet
Validated: 8912897
Substitution2: "'c2sc' Capitals to Small Capitals in Latin lookup 17 subtable" h.smcp
EndChar

StartChar: E
Encoding: 69 69 40
Width: 560
VWidth: 0
Flags: W
HStem: -3 131.75<225.812 519.558> 14 114.75<247.555 528.95> 297.15 135.1<264.95 452.656> 306.6 115.1<360.144 529.05> 600.25 131.75<293.353 621.6> 600.25 115.75<358.226 621.6>
DStem2: 79.3 150.5 224.8 180.75 0.15633 0.987705<8.9862 170.532 307.309 473.279>
LayerCount: 2
Fore
SplineSet
79.3 150.5 m 2x80
 148.15 585.5 l 2
 168 708.8 248.3 733.8 331.45 732 c 1x88
 331.45 732 576.7 724.8 639.95 716 c 1x04
 621.6 600.25 l 1
 343.1 600.25 l 2
 292.9 600.25 286.65 571.25 282.65 544.25 c 2
 264.95 432.25 l 1x28
 547.85 421.7 l 1
 529.05 306.6 l 1x10
 243.6 297.15 l 1
 224.8 180.75 l 2
 216.7 127.75 250.25 128.75 279.25 128.75 c 2xa0
 547.75 128.75 l 1
 528.95 14 l 1x40
 470.65 6.3 224.45 -3 224.45 -3 c 2
 153.867 -6.08333 59.35 24.05 79.3 150.5 c 2x80
EndSplineSet
Validated: 524321
Substitution2: "'c2sc' Capitals to Small Capitals in Latin lookup 17 subtable" e.smcp
EndChar

StartChar: L
Encoding: 76 76 41
Width: 529
VWidth: 0
Flags: W
HStem: 0 129<229.605 513.65> 712 20G<173.456 316.2>
DStem2: 82.5 142.5 228.55 181 0.157713 0.987485<17.4501 596.971>
LayerCount: 2
Fore
SplineSet
82.5 142.5 m 2
 176.65 732 l 1
 316.2 732 l 1
 228.55 181 l 2
 220.55 128 254 129 283 129 c 2
 534 129 l 1
 513.65 0 l 1
 212.25 0 l 2
 132.05 0 65.85 38.05 82.5 142.5 c 2
EndSplineSet
Validated: 524321
Substitution2: "'c2sc' Capitals to Small Capitals in Latin lookup 17 subtable" l.smcp
EndChar

StartChar: F
Encoding: 70 70 42
Width: 561
VWidth: 0
Flags: W
HStem: 0 21G<58 201.16> 0 21G<58 201.16> 294.95 135.1<266.4 454.173> 304.4 115.1<361.627 531.6> 600.25 131.75<298.02 623.547> 600.25 115.75<359.776 623.7>
DStem2: 58 0 198 0 0.155777 0.987792<21.8088 320.417 457.264 624.914>
LayerCount: 2
Fore
SplineSet
58 0 m 1xa0
 148.6 574.5 l 2
 168.45 697.8 249.3 733.8 333 732 c 1xa8
 333 732 578.25 724.8 641.5 716 c 1
 623.7 600.25 l 1x04
 345.2 600.25 l 2
 295 600.25 288.2 571.25 284.2 544.25 c 2
 266.4 430.05 l 1x28
 549.4 419.5 l 1
 531.6 304.4 l 1x10
 244.6 294.95 l 1
 198 0 l 1
 58 0 l 1xa0
EndSplineSet
Validated: 524321
Substitution2: "'c2sc' Capitals to Small Capitals in Latin lookup 17 subtable" f.smcp
EndChar

StartChar: K
Encoding: 75 75 43
Width: 620
VWidth: 0
Flags: W
HStem: 0 21G<60.75 199.397 434.136 602.75> 0 21G<60.75 199.397 434.136 602.75> 712 20G<173.581 311.25 534.102 718.75>
DStem2: 60.75 0 196.25 0 0.156517 0.987675<21.208 327.43 452.335 741.134> 439.5 354.85 311.75 302.5 0.417946 -0.908472<0 323.751> 318.2 426 439.5 354.85 0.595062 0.80368<14.9992 383.385>
LayerCount: 2
Fore
SplineSet
60.75 0 m 1xa0
 176.75 732 l 1
 311.25 732 l 1
 262.55 426 l 1
 318.2 426 l 1
 549.2 732 l 1
 718.75 732 l 1
 439.5 354.85 l 1
 602.75 0 l 1
 442.8 0 l 1
 311.75 302.5 l 1
 243.85 302.5 l 1
 196.25 0 l 1
 60.75 0 l 1xa0
EndSplineSet
Validated: 524289
Substitution2: "'c2sc' Capitals to Small Capitals in Latin lookup 17 subtable" k.smcp
EndChar

StartChar: T
Encoding: 84 84 44
Width: 588
VWidth: 0
Flags: W
HStem: 0 21G<224.25 367.408> 0 21G<224.25 367.408> 603 129<142.75 319.45 459.45 662.95>
DStem2: 224.25 0 364.25 0 0.155946 0.987766<21.8324 610.469>
LayerCount: 2
Fore
SplineSet
121.95 603 m 1xa0
 142.75 732 l 1
 683.75 732 l 1
 662.95 603 l 1
 459.45 603 l 1
 364.25 0 l 1
 224.25 0 l 1
 319.45 603 l 1
 121.95 603 l 1xa0
EndSplineSet
Validated: 8912897
Substitution2: "'c2sc' Capitals to Small Capitals in Latin lookup 17 subtable" t.smcp
EndChar

StartChar: P
Encoding: 80 80 45
Width: 597
VWidth: 0
Flags: W
HStem: 0 21G<57.95 201.135> 0 21G<57.95 201.135> 270.5 123.5<261.504 470.432> 289.15 104.85<260.25 470.432> 607.5 124.5<294.25 497.247>
DStem2: 57.95 0 197.95 0 0.156517 0.987675<21.9124 314.706 420.807 636.998>
LayerCount: 2
Fore
SplineSet
260.25 394 m 1x18
 414.8 394 l 2x28
 459.1 394 492.4 416.7 506.25 504.6 c 0
 519.2 591.05 486.05 607.5 449.25 607.5 c 2
 294.25 607.5 l 1
 260.25 394 l 1x18
57.95 0 m 1x98
 173.95 732 l 1
 479.95 732 l 2
 571.6 732 675.85 680.15 647.25 489.75 c 0
 612.95 259.25 490.35 266.65 407 270.5 c 0xa8
 367 272.15 249 286.15 244 289.15 c 1
 197.95 0 l 1
 57.95 0 l 1x98
EndSplineSet
Validated: 524321
Substitution2: "'c2sc' Capitals to Small Capitals in Latin lookup 17 subtable" p.smcp
EndChar

StartChar: R
Encoding: 82 82 46
Width: 603
VWidth: 0
Flags: W
HStem: 0 21G<57.95 201.115 435.827 599.95> 0 21G<57.95 201.115 435.827 599.95> 288.75 109.1<261.8 336.297> 607.5 124.5<295.25 498.411>
DStem2: 57.95 0 197.95 0 0.156517 0.987675<21.9124 314.256 424.853 637.154>
LayerCount: 2
Fore
SplineSet
261.8 397.85 m 1x30
 414.05 397.85 l 2
 466.85 397.85 496.9 426.55 505.35 503.75 c 0
 514.15 587.35 497.35 607.5 449.75 607.5 c 2
 295.25 607.5 l 1
 261.8 397.85 l 1x30
57.95 0 m 1xb0
 173.95 732 l 1
 483.2 732 l 2
 592.95 732 669.95 665.25 646.35 490 c 0
 622.4 307.9 531.75 293.35 496.15 288.25 c 1
 599.95 0 l 1
 441.95 0 l 1
 356.15 280.25 l 1
 243.65 288.75 l 1
 197.95 0 l 1
 57.95 0 l 1xb0
EndSplineSet
Validated: 8912929
Substitution2: "'c2sc' Capitals to Small Capitals in Latin lookup 17 subtable" r.smcp
EndChar

StartChar: U
Encoding: 85 85 47
Width: 653
VWidth: 0
Flags: W
HStem: -5 129<271.881 440.807> 712 20G<171.444 315.1 580.491 724.65>
DStem2: 109.95 328.4 248.75 311.9 0.156005 0.987756<-125.975 408.752> 517.3 311.9 661.05 295.4 0.14415 0.989556<-133.117 425.277>
LayerCount: 2
Fore
SplineSet
109.95 328.4 m 2
 174.65 732 l 1
 315.1 732 l 1
 248.75 311.9 l 2
 227 174.7 246.55 124 352.8 124 c 0
 460.25 124 497 182.3 517.3 311.9 c 2
 583.65 732 l 1
 724.65 732 l 1
 661.05 295.4 l 1
 622.65 53.4 510.6 -5 334.7 -5 c 0
 186.1 -5 65.05 45.8 109.95 328.4 c 2
EndSplineSet
Validated: 524321
Substitution2: "'c2sc' Capitals to Small Capitals in Latin lookup 17 subtable" u.smcp
EndChar

StartChar: B
Encoding: 66 66 48
Width: 599
VWidth: 0
Flags: W
HStem: 0 123.5<220.9 432.736> 324.45 118<271.5 457.219> 608.5 123.5<297.95 500.612>
DStem2: 60.75 0 220.9 123.5 0.156517 0.987675<147.044 350.44 469.983 638.126>
LayerCount: 2
Fore
SplineSet
271.5 442.45 m 1
 419.55 442.45 l 2
 469.8 442.45 501.4 472.65 509.45 524.95 c 0
 520.05 592.8 487.35 608.5 446.45 608.5 c 2
 297.95 608.5 l 1
 271.5 442.45 l 1
220.9 123.5 m 1
 374.45 123.5 l 2
 416.95 123.5 458.05 143.65 470.45 221.4 c 0
 479.15 275.05 465.15 324.45 405.9 324.45 c 2
 252.35 324.45 l 1
 220.9 123.5 l 1
60.75 0 m 1
 176.75 732 l 1
 473.5 732 l 2
 625 732 664.85 630.15 649.35 524.15 c 0
 638.45 445.05 589.55 390.5 523.75 380 c 1
 576.95 371.15 623.25 302.25 609.8 198.25 c 0
 588.65 42.45 514.25 0 360.25 0 c 2
 60.75 0 l 1
EndSplineSet
Validated: 524321
Substitution2: "'c2sc' Capitals to Small Capitals in Latin lookup 17 subtable" b.smcp
EndChar

StartChar: N
Encoding: 78 78 49
Width: 669
VWidth: 0
Flags: W
HStem: 0 21G<60.75 204.906 476.636 626.919> 0 21G<60.75 204.906 476.636 626.919> 712 20G<173.581 325.696 596.608 739.75>
DStem2: 60.75 0 201.75 0 0.156517 0.987675<22.0689 498.137> 316.95 732 275.95 470.25 0.400672 -0.916221<223.393 519.252> 525 256.25 623.75 0 0.156517 0.987675<0 481.586>
LayerCount: 2
Fore
SplineSet
60.75 0 m 1xa0
 176.75 732 l 1
 316.95 732 l 1
 525 256.25 l 1
 599.75 732 l 1
 739.75 732 l 1
 623.75 0 l 1
 485.55 0 l 1
 275.95 470.25 l 1
 201.75 0 l 1
 60.75 0 l 1xa0
EndSplineSet
Validated: 524289
AlternateSubs2: "'salt' Access All Alternates in Latin lookup 4-1" N.salt
Substitution2: "'c2sc' Capitals to Small Capitals in Latin lookup 17 subtable" n.smcp
EndChar

StartChar: X
Encoding: 88 88 50
Width: 643
VWidth: 0
Flags: W
HStem: 0 21G<32.5 205.202 450.435 611.85> 0 21G<32.5 205.202 450.435 611.85> 712 20G<145.5 306.951 563.313 736>
DStem2: 32.5 0 190.8 0 0.597332 0.801994<94.5577 388.175 607.266 912.725> 298.85 732 145.5 732 0.393161 -0.91947<0 267.521 478.928 735.82>
LayerCount: 2
Fore
SplineSet
32.5 0 m 1xa0
 303 374.45 l 1
 145.5 732 l 1
 298.85 732 l 1
 399.3 484 l 1
 577.7 732 l 1
 736 732 l 1
 458.15 348.4 l 1
 611.85 0 l 1
 458.5 0 l 1
 362.4 238.3 l 1
 190.8 0 l 1
 32.5 0 l 1xa0
EndSplineSet
Validated: 8912897
AlternateSubs2: "'salt' Access All Alternates in Latin lookup 4-1" X.salt
Substitution2: "'c2sc' Capitals to Small Capitals in Latin lookup 17 subtable" x.smcp
EndChar

StartChar: Z
Encoding: 90 90 51
Width: 557
VWidth: 0
Flags: W
HStem: 0 129<229.25 530.75> 603 129<142.75 454.7>
DStem2: 47.55 129 229.25 129 0.651588 0.758573<118.394 624.858>
LayerCount: 2
Fore
SplineSet
26.75 0 m 1
 47.55 129 l 1
 454.7 603 l 1
 121.95 603 l 1
 142.75 732 l 1
 646.75 732 l 1
 625.95 603 l 1
 229.25 129 l 1
 551.55 129 l 1
 530.75 0 l 1
 26.75 0 l 1
EndSplineSet
Validated: 524289
Substitution2: "'c2sc' Capitals to Small Capitals in Latin lookup 17 subtable" z.smcp
EndChar

StartChar: Y
Encoding: 89 89 52
Width: 656
VWidth: 0
Flags: W
HStem: 0 21G<246.1 389.276> 0 21G<246.1 389.276> 712 20G<139 294.955 571.007 743>
DStem2: 246.1 0 386.1 0 0.156845 0.987623<21.9583 229.845> 374.15 382.35 422.15 227 0.536264 0.84405<0 407.094>
LayerCount: 2
Fore
SplineSet
139 732 m 1xa0
 290.15 732 l 1
 374.15 382.35 l 1
 582.95 732 l 1
 743 732 l 1
 422.15 227 l 1
 386.1 0 l 1
 246.1 0 l 1
 282.15 227 l 1
 139 732 l 1xa0
EndSplineSet
Validated: 524289
Substitution2: "'c2sc' Capitals to Small Capitals in Latin lookup 17 subtable" y.smcp
EndChar

StartChar: Agrave
Encoding: 192 192 53
Width: 688
VWidth: 0
Flags: W
HStem: 0 21G<34 198.558 531.212 678> 0 21G<34 198.558 531.212 678> 162.2 124.05<324.7 492.25> 712 20G<387.082 559.576>
DStem2: 34 0 188.7 0 0.444274 0.895891<68.7292 249.562 385.599 385.599> 556.25 732 451.25 551.55 0.164071 -0.986449<160.777 429.209>
LayerCount: 2
Fore
SplineSet
336.032 935.5 m 1x30
 454.932 935.5 l 1
 532.332 797 l 1
 441.332 797 l 1
 336.032 935.5 l 1x30
324.7 286.25 m 1
 492.25 286.25 l 1
 451.25 551.55 l 1
 324.7 286.25 l 1
34 0 m 1xb0
 397 732 l 1
 556.25 732 l 1
 678 0 l 1
 534.8 0 l 1
 505.7 162.2 l 1
 268.65 162.2 l 1
 188.7 0 l 1
 34 0 l 1xb0
EndSplineSet
Validated: 524289
Substitution2: "'c2sc' Capitals to Small Capitals in Latin lookup 17 subtable" agrave.smcp
EndChar

StartChar: Aacute
Encoding: 193 193 54
Width: 688
VWidth: 0
Flags: W
HStem: 0 21G<34 198.558 531.212 678> 0 21G<34 198.558 531.212 678> 162.2 124.05<324.7 492.25> 712 20G<387.082 559.576>
DStem2: 34 0 188.7 0 0.444274 0.895891<68.7292 249.562 385.599 385.599> 556.25 732 451.25 551.55 0.164071 -0.986449<160.777 429.209>
LayerCount: 2
Fore
SplineSet
441.332 797 m 1x30
 553.932 935.5 l 1
 676.432 935.5 l 1
 532.332 797 l 1
 441.332 797 l 1x30
324.7 286.25 m 1
 492.25 286.25 l 1
 451.25 551.55 l 1
 324.7 286.25 l 1
34 0 m 1xb0
 397 732 l 1
 556.25 732 l 1
 678 0 l 1
 534.8 0 l 1
 505.7 162.2 l 1
 268.65 162.2 l 1
 188.7 0 l 1
 34 0 l 1xb0
EndSplineSet
Validated: 524289
Substitution2: "'c2sc' Capitals to Small Capitals in Latin lookup 17 subtable" aacute.smcp
EndChar

StartChar: Acircumflex
Encoding: 194 194 55
Width: 688
VWidth: 0
Flags: W
HStem: 0 21G<34 198.558 531.212 678> 0 21G<34 198.558 531.212 678> 162.2 124.05<324.7 492.25> 712 20G<387.082 559.576>
DStem2: 34 0 188.7 0 0.444274 0.895891<68.7292 249.562 385.599 385.599> 556.25 732 451.25 551.55 0.164071 -0.986449<160.777 429.209>
LayerCount: 2
Fore
SplineSet
332.857 797 m 1x30
 462.057 932.5 l 1
 566.057 932.5 l 1
 641.357 797 l 1
 551.057 797 l 1
 508.357 862.4 l 1
 435.957 797 l 1
 332.857 797 l 1x30
324.7 286.25 m 1
 492.25 286.25 l 1
 451.25 551.55 l 1
 324.7 286.25 l 1
34 0 m 1xb0
 397 732 l 1
 556.25 732 l 1
 678 0 l 1
 534.8 0 l 1
 505.7 162.2 l 1
 268.65 162.2 l 1
 188.7 0 l 1
 34 0 l 1xb0
EndSplineSet
Validated: 524289
Substitution2: "'c2sc' Capitals to Small Capitals in Latin lookup 17 subtable" acircumflex.smcp
EndChar

StartChar: Atilde
Encoding: 195 195 56
Width: 688
VWidth: 0
Flags: W
HStem: 0 21G<34 198.558 531.212 678> 0 21G<34 198.558 531.212 678> 162.2 124.05<324.7 492.25> 712 20G<387.082 559.576> 797.45 89.8<501.836 610.988> 832 89.8<386.415 497.057>
DStem2: 34 0 188.7 0 0.444274 0.895891<68.7292 249.562 385.599 385.599> 556.25 732 451.25 551.55 0.164071 -0.986449<160.777 429.209>
LayerCount: 2
Fore
SplineSet
323.99 852.3 m 1x34
 361.29 886.95 406.59 921.8 455.84 921.8 c 1x34
 502.54 920.45 521.24 887.7 555.84 887.25 c 1
 588.64 885.7 638.84 910.1 655.84 924.55 c 1
 670.29 864.95 l 1
 636.09 834.65 593.24 797 545.39 797.45 c 0x38
 496.54 797.9 476.64 832.45 438.99 832 c 0
 397.74 831.55 373.19 816.5 339.54 797 c 1
 323.99 852.3 l 1x34
324.7 286.25 m 1
 492.25 286.25 l 1
 451.25 551.55 l 1
 324.7 286.25 l 1
34 0 m 1xb0
 397 732 l 1
 556.25 732 l 1
 678 0 l 1
 534.8 0 l 1
 505.7 162.2 l 1
 268.65 162.2 l 1
 188.7 0 l 1
 34 0 l 1xb0
EndSplineSet
Validated: 524321
Substitution2: "'c2sc' Capitals to Small Capitals in Latin lookup 17 subtable" atilde.smcp
EndChar

StartChar: Adieresis
Encoding: 196 196 57
Width: 688
VWidth: 0
Flags: W
HStem: 0 21G<34 198.558 531.212 678> 0 21G<34 198.558 531.212 678> 162.2 124.05<324.7 492.25> 712 20G<387.082 559.576> 797 117.5<329.996 408.773 584.996 663.773>
VStem: 310.543 117.5<816.54 895.507> 565.543 117.5<816.54 895.507>
DStem2: 34 0 188.7 0 0.444274 0.895891<68.7292 249.562 385.599 385.599> 556.25 732 451.25 551.55 0.164071 -0.986449<160.777 429.209>
LayerCount: 2
Fore
SplineSet
565.543 856.25 m 0x3e
 570.643 888.65 601.493 914.5 633.893 914.5 c 0
 666.293 914.5 688.143 888.65 683.043 856.25 c 0
 677.943 823.85 647.543 797 615.143 797 c 0
 582.743 797 560.443 823.85 565.543 856.25 c 0x3e
310.543 856.25 m 0
 315.643 888.65 346.493 914.5 378.893 914.5 c 0
 411.293 914.5 433.143 888.65 428.043 856.25 c 0
 422.943 823.85 392.543 797 360.143 797 c 0
 327.743 797 305.443 823.85 310.543 856.25 c 0
324.7 286.25 m 1
 492.25 286.25 l 1
 451.25 551.55 l 1
 324.7 286.25 l 1
34 0 m 1xbe
 397 732 l 1
 556.25 732 l 1
 678 0 l 1
 534.8 0 l 1
 505.7 162.2 l 1
 268.65 162.2 l 1
 188.7 0 l 1
 34 0 l 1xbe
EndSplineSet
Validated: 524321
Substitution2: "'c2sc' Capitals to Small Capitals in Latin lookup 17 subtable" adieresis.smcp
EndChar

StartChar: Aring
Encoding: 197 197 58
Width: 688
VWidth: 0
Flags: W
HStem: 0 21G<34 198.558 531.212 678> 0 21G<34 198.558 531.212 678> 162.2 124.05<324.7 492.25> 874.425 57.9<454.241 527.675>
DStem2: 556.25 732 451.25 551.55 0.164071 -0.986449<160.777 429.209>
LayerCount: 2
Fore
SplineSet
445.909 830.975 m 0x30
 443.628 807.025 461.633 788.525 485.583 788.525 c 0
 509.533 788.525 529.528 807.025 531.809 830.975 c 0
 534.09 854.925 517.124 874.425 493.174 874.425 c 0
 469.224 874.425 448.19 854.925 445.909 830.975 c 0x30
387.359 830.975 m 0
 392.354 887.975 441.264 932.325 497.264 932.325 c 0
 553.264 932.325 595.354 887.975 590.359 830.975 c 0
 585.978 780.967 549.016 741.042 502.197 732 c 1
 556.25 732 l 1
 678 0 l 1
 534.8 0 l 1
 505.7 162.2 l 1
 268.65 162.2 l 1
 188.7 0 l 1
 34 0 l 1xb0
 397 732 l 1
 462.058 732 l 1
 416.06 741.042 382.978 780.967 387.359 830.975 c 0
324.7 286.25 m 1
 492.25 286.25 l 1
 451.25 551.55 l 1
 324.7 286.25 l 1
EndSplineSet
Validated: 524321
Substitution2: "'c2sc' Capitals to Small Capitals in Latin lookup 17 subtable" aring.smcp
EndChar

StartChar: AE
Encoding: 198 198 59
Width: 1016
VWidth: 0
Flags: W
HStem: -3.9 131.75<618.455 915.602> 13.1 114.75<642.199 921.55> 195.35 123.5<386.15 479.1> 292.7 135.1<657 845.071> 302.15 115.1<752.379 922.65> 599.8 132.2<686.072 1015.13> 599.8 116.2<754.112 1015.2>
DStem2: 22.85 0 179.35 0 0.545183 0.838317<85.3211 319.115 465.362 743.144>
LayerCount: 2
Fore
SplineSet
386.15 318.85 m 1x20
 499.25 318.85 l 1
 537.65 553.1 l 1
 386.15 318.85 l 1x20
22.85 0 m 1
 397.05 575.4 l 2
 498.65 730.95 609.9 735.85 723.15 732 c 1xa4
 723.15 732 970.3 724.8 1033 716 c 1
 1015.2 599.8 l 1x02
 735.35 599.8 l 2
 685.15 599.8 680.6 572.15 675.7 545.15 c 2
 657 427.8 l 1x14
 940.45 417.25 l 1
 922.65 302.15 l 1x08
 635.2 292.7 l 1
 617.4 179.85 l 2
 609.4 126.85 642.85 127.85 671.85 127.85 c 2x90
 940.35 127.85 l 1
 921.55 13.1 l 1x40
 863.8 5.4 619.25 -3.9 619.25 -3.9 c 2x80
 550.5 -7.9 451.85 18.2 468.05 122.65 c 2
 479.1 195.35 l 1
 307.8 195.35 l 1
 179.35 0 l 1
 22.85 0 l 1
EndSplineSet
Validated: 524321
EndChar

StartChar: Ccedilla
Encoding: 199 199 60
Width: 571
VWidth: 0
Flags: W
HStem: -177.95 60.1<185.65 207.21> -6 129<273.971 529.805> 611 129<330.594 607.379>
VStem: 272.9 94.5<-91.0628 -36.45>
LayerCount: 2
Fore
SplineSet
175.8 -177.95 m 1
 185.65 -117.85 l 1
 231.85 -102.85 l 2
 262.3 -92.65 266.9 -74.45 272.9 -36.45 c 1
 285.5 -36.9 367.4 -36.45 367.4 -36.45 c 1
 351.4 -138.45 318.9 -177.95 232.3 -177.95 c 2
 175.8 -177.95 l 1
100.15 385.05 m 0
 137.5 618.5 208.2 740 407.2 740 c 0
 509.8 740 581.95 727.95 657.1 704.5 c 1
 639.85 594.9 l 1
 629.4 596.25 520.7 611.9 421.3 611 c 0
 350.35 610.55 280.25 615 241.05 366 c 1
 214.15 202.9 233 127.05 341.2 123 c 1
 418.75 121.65 503.9 127.05 567.8 131.55 c 1
 551 21.95 l 1
 476.45 -2.7 401.65 -7.65 291 -6 c 0
 104.75 -4.35 66.65 173.25 100.15 385.05 c 0
EndSplineSet
Validated: 524321
Substitution2: "'c2sc' Capitals to Small Capitals in Latin lookup 17 subtable" ccedilla.smcp
EndChar

StartChar: Eth
Encoding: 208 208 61
Width: 652
VWidth: 0
Flags: W
HStem: 0 124.85<220 433.909> 340.5 65<59.85 114.2 264.85 365.7> 608.5 123.5<296.6 505.144>
DStem2: 60.3 0 220 124.85 0.156611 0.98766<148.32 344.74 432.531 637.998>
LayerCount: 2
Fore
SplineSet
220 124.85 m 1
 369.5 124.85 l 2
 459.35 124.85 509.3 219.4 532.2 364 c 0
 562.55 554.45 528.65 608.5 446.1 608.5 c 2
 296.6 608.5 l 1
 264.85 405.5 l 1
 376.35 405.5 l 1
 365.7 340.5 l 1
 254.2 340.5 l 1
 220 124.85 l 1
49.2 340.5 m 1
 59.85 405.5 l 1
 124.85 405.5 l 1
 176.3 731.55 l 2
 176.3 732 449.8 732 476.8 732 c 0
 687.5 732 700.7 515.25 672.65 346.5 c 0
 633.45 109.85 548.7 0 371.8 0 c 2
 60.3 0 l 1
 114.2 340.5 l 1
 49.2 340.5 l 1
EndSplineSet
Validated: 524321
Substitution2: "'c2sc' Capitals to Small Capitals in Latin lookup 17 subtable" eth.smcp
EndChar

StartChar: Egrave
Encoding: 200 200 62
Width: 560
VWidth: 0
Flags: W
HStem: -3 131.75<225.812 519.558> 14 114.75<247.555 528.95> 297.15 135.1<264.95 452.656> 306.6 115.1<360.144 529.05> 600.25 131.75<293.353 621.6> 600.25 115.75<358.226 621.6>
DStem2: 79.2998 150.5 224.8 180.75 0.15633 0.987705<8.98631 170.532 307.309 473.279>
LayerCount: 2
Fore
SplineSet
274.6 930.5 m 1x00
 393.5 930.5 l 1
 470.9 792 l 1
 379.9 792 l 1
 274.6 930.5 l 1x00
79.2998 150.5 m 2
 148.15 585.5 l 2
 168 708.8 248.3 733.8 331.45 732 c 1x88
 331.45 732 576.7 724.8 639.95 716 c 1x04
 621.6 600.25 l 1
 343.1 600.25 l 2
 292.9 600.25 286.65 571.25 282.65 544.25 c 2
 264.95 432.25 l 1x28
 547.85 421.7 l 1
 529.05 306.6 l 1x10
 243.6 297.15 l 1
 224.8 180.75 l 2
 216.7 127.75 250.25 128.75 279.25 128.75 c 2xa0
 547.75 128.75 l 1
 528.95 14 l 1x40
 470.65 6.2998 224.45 -3 224.45 -3 c 2x80
 153.867 -6.08301 59.3496 24.0498 79.2998 150.5 c 2
EndSplineSet
Validated: 524321
Substitution2: "'c2sc' Capitals to Small Capitals in Latin lookup 17 subtable" egrave.smcp
EndChar

StartChar: Eacute
Encoding: 201 201 63
Width: 560
VWidth: 0
Flags: W
HStem: -3 131.75<225.812 519.558> 14 114.75<247.555 528.95> 297.15 135.1<264.95 452.656> 306.6 115.1<360.144 529.05> 600.25 131.75<293.353 621.6> 600.25 115.75<358.226 621.6>
DStem2: 79.2998 150.5 224.8 180.75 0.15633 0.987705<8.98631 170.532 307.309 473.279>
LayerCount: 2
Fore
SplineSet
381.5 792 m 1x00
 494.1 930.5 l 1
 616.6 930.5 l 1
 472.5 792 l 1
 381.5 792 l 1x00
79.2998 150.5 m 2
 148.15 585.5 l 2
 168 708.8 248.3 733.8 331.45 732 c 1x88
 331.45 732 576.7 724.8 639.95 716 c 1x04
 621.6 600.25 l 1
 343.1 600.25 l 2
 292.9 600.25 286.65 571.25 282.65 544.25 c 2
 264.95 432.25 l 1x28
 547.85 421.7 l 1
 529.05 306.6 l 1x10
 243.6 297.15 l 1
 224.8 180.75 l 2
 216.7 127.75 250.25 128.75 279.25 128.75 c 2xa0
 547.75 128.75 l 1
 528.95 14 l 1x40
 470.65 6.2998 224.45 -3 224.45 -3 c 2x80
 153.867 -6.08301 59.3496 24.0498 79.2998 150.5 c 2
EndSplineSet
Validated: 524321
Substitution2: "'c2sc' Capitals to Small Capitals in Latin lookup 17 subtable" eacute.smcp
EndChar

StartChar: Ecircumflex
Encoding: 202 202 64
Width: 560
VWidth: 0
Flags: W
HStem: -3 131.75<225.812 519.558> 14 114.75<247.555 528.95> 297.15 135.1<264.95 452.656> 306.6 115.1<360.144 529.05> 600.25 131.75<293.353 621.6> 600.25 115.75<358.226 621.6>
DStem2: 79.2998 150.5 224.8 180.75 0.15633 0.987705<8.98631 170.532 307.309 473.279>
LayerCount: 2
Fore
SplineSet
275.1 792 m 1x00
 404.3 927.95 l 1
 508.3 927.95 l 1
 583.6 792 l 1
 491.5 792 l 1
 451.05 856.05 l 1
 385.5 792 l 1
 275.1 792 l 1x00
79.2998 150.5 m 2
 148.15 585.5 l 2
 168 708.8 248.3 733.8 331.45 732 c 1x88
 331.45 732 576.7 724.8 639.95 716 c 1x04
 621.6 600.25 l 1
 343.1 600.25 l 2
 292.9 600.25 286.65 571.25 282.65 544.25 c 2
 264.95 432.25 l 1x28
 547.85 421.7 l 1
 529.05 306.6 l 1x10
 243.6 297.15 l 1
 224.8 180.75 l 2
 216.7 127.75 250.25 128.75 279.25 128.75 c 2xa0
 547.75 128.75 l 1
 528.95 14 l 1x40
 470.65 6.2998 224.45 -3 224.45 -3 c 2x80
 153.867 -6.08301 59.3496 24.0498 79.2998 150.5 c 2
EndSplineSet
Validated: 524321
Substitution2: "'c2sc' Capitals to Small Capitals in Latin lookup 17 subtable" ecircumflex.smcp
EndChar

StartChar: Edieresis
Encoding: 203 203 65
Width: 560
VWidth: 0
Flags: W
HStem: -3 131.75<225.812 519.558> 14 114.75<247.555 528.95> 297.15 135.1<264.95 452.656> 306.6 115.1<360.144 529.05> 600.25 131.75<293.353 621.6> 600.25 115.75<358.226 621.6> 783.75 117.5<260.803 339.58 515.803 594.58>
VStem: 241.35 117.5<803.29 882.257> 496.35 117.5<803.29 882.257>
DStem2: 79.2998 150.5 224.8 180.75 0.15633 0.987705<8.98631 170.532 307.309 473.279>
LayerCount: 2
Fore
SplineSet
496.35 843 m 0x0380
 501.45 875.4 532.3 901.25 564.7 901.25 c 0
 597.1 901.25 618.95 875.4 613.85 843 c 0
 608.75 810.6 578.35 783.75 545.95 783.75 c 0
 513.55 783.75 491.25 810.6 496.35 843 c 0x0380
241.35 843 m 0
 246.45 875.4 277.3 901.25 309.7 901.25 c 0
 342.1 901.25 363.95 875.4 358.85 843 c 0
 353.75 810.6 323.35 783.75 290.95 783.75 c 0
 258.55 783.75 236.25 810.6 241.35 843 c 0
79.2998 150.5 m 2
 148.15 585.5 l 2
 168 708.8 248.3 733.8 331.45 732 c 1x8b80
 331.45 732 576.7 724.8 639.95 716 c 1x0780
 621.6 600.25 l 1
 343.1 600.25 l 2
 292.9 600.25 286.65 571.25 282.65 544.25 c 2
 264.95 432.25 l 1x2b80
 547.85 421.7 l 1
 529.05 306.6 l 1x1380
 243.6 297.15 l 1
 224.8 180.75 l 2
 216.7 127.75 250.25 128.75 279.25 128.75 c 2xa380
 547.75 128.75 l 1
 528.95 14 l 1x4380
 470.65 6.2998 224.45 -3 224.45 -3 c 2x8380
 153.867 -6.08301 59.3496 24.0498 79.2998 150.5 c 2
EndSplineSet
Validated: 524321
Substitution2: "'c2sc' Capitals to Small Capitals in Latin lookup 17 subtable" edieresis.smcp
EndChar

StartChar: Igrave
Encoding: 204 204 66
Width: 256
VWidth: 0
Flags: W
HStem: 0 21G<65.25 208.419> 0 21G<65.25 208.419> 712 20G<178.081 321.25>
VStem: 65.25 256
DStem2: 65.25 0 205.25 0 0.156517 0.987675<21.9124 741.134>
LayerCount: 2
Fore
SplineSet
110.932 935.5 m 1x30
 229.832 935.5 l 1
 307.231 797 l 1
 216.231 797 l 1
 110.932 935.5 l 1x30
65.25 0 m 1xb0
 181.25 732 l 1
 321.25 732 l 1
 205.25 0 l 1
 65.25 0 l 1xb0
EndSplineSet
Validated: 524289
Substitution2: "'c2sc' Capitals to Small Capitals in Latin lookup 17 subtable" igrave.smcp
EndChar

StartChar: Iacute
Encoding: 205 205 67
Width: 256
VWidth: 0
Flags: W
HStem: 0 21G<65.25 208.419> 0 21G<65.25 208.419> 712 20G<178.081 321.25>
DStem2: 65.25 0 205.25 0 0.156517 0.987675<21.9124 741.134>
LayerCount: 2
Fore
SplineSet
216.232 797 m 1x20
 328.832 935.5 l 1
 451.332 935.5 l 1
 307.232 797 l 1
 216.232 797 l 1x20
65.25 0 m 1xa0
 181.25 732 l 1
 321.25 732 l 1
 205.25 0 l 1
 65.25 0 l 1xa0
EndSplineSet
Validated: 524289
Substitution2: "'c2sc' Capitals to Small Capitals in Latin lookup 17 subtable" iacute.smcp
EndChar

StartChar: Icircumflex
Encoding: 206 206 68
Width: 256
VWidth: 0
Flags: W
HStem: 0 21G<65.25 208.419> 0 21G<65.25 208.419> 712 20G<178.081 321.25>
DStem2: 65.25 0 205.25 0 0.156517 0.987675<21.9124 741.134>
LayerCount: 2
Fore
SplineSet
107.207 797 m 1x20
 236.406 932.5 l 1
 340.406 932.5 l 1
 415.707 797 l 1
 325.406 797 l 1
 282.707 862.4 l 1
 210.307 797 l 1
 107.207 797 l 1x20
65.25 0 m 1xa0
 181.25 732 l 1
 321.25 732 l 1
 205.25 0 l 1
 65.25 0 l 1xa0
EndSplineSet
Validated: 524289
Substitution2: "'c2sc' Capitals to Small Capitals in Latin lookup 17 subtable" icircumflex.smcp
EndChar

StartChar: Idieresis
Encoding: 207 207 69
Width: 256
VWidth: 0
Flags: W
HStem: 0 21G<65.25 208.419> 0 21G<65.25 208.419> 712 20G<178.081 321.25> 797 117.5<104.347 183.124 359.347 438.124>
VStem: 84.8936 117.5<816.54 895.507> 339.894 117.5<816.54 895.507>
DStem2: 65.25 0 205.25 0 0.156517 0.987675<21.9124 741.134>
LayerCount: 2
Fore
SplineSet
339.894 856.25 m 0x3c
 344.993 888.65 375.844 914.5 408.243 914.5 c 0
 440.644 914.5 462.493 888.65 457.394 856.25 c 0
 452.294 823.85 421.894 797 389.493 797 c 0
 357.094 797 334.794 823.85 339.894 856.25 c 0x3c
84.8936 856.25 m 0
 89.9932 888.65 120.844 914.5 153.243 914.5 c 0
 185.644 914.5 207.493 888.65 202.394 856.25 c 0
 197.294 823.85 166.894 797 134.493 797 c 0
 102.094 797 79.7939 823.85 84.8936 856.25 c 0
65.25 0 m 1xbc
 181.25 732 l 1
 321.25 732 l 1
 205.25 0 l 1
 65.25 0 l 1xbc
EndSplineSet
Validated: 524321
Substitution2: "'c2sc' Capitals to Small Capitals in Latin lookup 17 subtable" idieresis.smcp
EndChar

StartChar: Ntilde
Encoding: 209 209 70
Width: 669
VWidth: 0
Flags: W
HStem: 0 21G<60.75 204.906 476.636 626.919> 0 21G<60.75 204.906 476.636 626.919> 712 20G<173.581 325.696 596.608 739.75> 795.2 89.8<479.996 589.148> 829.75 89.8<364.575 475.217>
DStem2: 60.75 0 201.75 0 0.156517 0.987675<22.0689 498.137> 316.95 732 275.95 470.25 0.400672 -0.916221<223.393 519.252> 525 256.25 623.75 0 0.156517 0.987675<0 481.586>
LayerCount: 2
Fore
SplineSet
302.15 850.05 m 1x28
 339.45 884.7 384.75 919.55 434 919.55 c 1x28
 480.7 918.2 499.4 885.45 534 885 c 1
 566.8 883.45 617 907.85 634 922.3 c 1
 648.45 862.7 l 1
 614.25 832.4 571.4 794.75 523.55 795.2 c 0x30
 474.7 795.65 454.8 830.2 417.15 829.75 c 0
 375.9 829.3 351.35 814.25 317.7 794.75 c 1
 302.15 850.05 l 1x28
60.75 0 m 1xa0
 176.75 732 l 1
 316.95 732 l 1
 525 256.25 l 1
 599.75 732 l 1
 739.75 732 l 1
 623.75 0 l 1
 485.55 0 l 1
 275.95 470.25 l 1
 201.75 0 l 1
 60.75 0 l 1xa0
EndSplineSet
Validated: 524321
AlternateSubs2: "'salt' Access All Alternates in Latin lookup 4-1" Ntilde.salt
Substitution2: "'c2sc' Capitals to Small Capitals in Latin lookup 17 subtable" ntilde.smcp
EndChar

StartChar: Ograve
Encoding: 210 210 71
Width: 666
VWidth: 0
Flags: W
HStem: -4 129<264.377 458.232> 608 129<332.201 530.406>
LayerCount: 2
Fore
SplineSet
311.175 935.5 m 1
 430.075 935.5 l 1
 507.475 797 l 1
 416.475 797 l 1
 311.175 935.5 l 1
243.45 361 m 0
 211.8 161.2 238.3 125 359.7 125 c 0
 470.9 125 520.15 163.7 551.45 361 c 0
 587.45 589.05 542.5 608 436.65 608 c 0
 328.4 608 280 594 243.45 361 c 0
103.45 374.75 m 0
 157.45 717.75 281.25 737 452.4 737 c 0
 625.85 737 743.65 684.85 691.45 347.25 c 0
 641.35 24.25 520.8 -4 343.95 -4 c 0
 172.05 -4 50.4502 41.75 103.45 374.75 c 0
EndSplineSet
Validated: 524321
Substitution2: "'c2sc' Capitals to Small Capitals in Latin lookup 17 subtable" ograve.smcp
EndChar

StartChar: Oacute
Encoding: 211 211 72
Width: 666
VWidth: 0
Flags: W
HStem: -4 129<264.377 458.232> 608 129<332.201 530.406>
LayerCount: 2
Fore
SplineSet
416.475 797 m 1
 529.075 935.5 l 1
 651.575 935.5 l 1
 507.475 797 l 1
 416.475 797 l 1
243.45 361 m 0
 211.8 161.2 238.3 125 359.7 125 c 0
 470.9 125 520.15 163.7 551.45 361 c 0
 587.45 589.05 542.5 608 436.65 608 c 0
 328.4 608 280 594 243.45 361 c 0
103.45 374.75 m 0
 157.45 717.75 281.25 737 452.4 737 c 0
 625.85 737 743.65 684.85 691.45 347.25 c 0
 641.35 24.25 520.8 -4 343.95 -4 c 0
 172.05 -4 50.4502 41.75 103.45 374.75 c 0
EndSplineSet
Validated: 524321
Substitution2: "'c2sc' Capitals to Small Capitals in Latin lookup 17 subtable" oacute.smcp
EndChar

StartChar: Ocircumflex
Encoding: 212 212 73
Width: 666
VWidth: 0
Flags: W
HStem: -4 129<264.377 458.232> 608 129<332.201 530.406>
LayerCount: 2
Fore
SplineSet
308 797 m 1
 437.2 932.5 l 1
 541.2 932.5 l 1
 616.5 797 l 1
 526.2 797 l 1
 483.5 862.4 l 1
 411.1 797 l 1
 308 797 l 1
243.45 361 m 0
 211.8 161.2 238.3 125 359.7 125 c 0
 470.9 125 520.15 163.7 551.45 361 c 0
 587.45 589.05 542.5 608 436.65 608 c 0
 328.4 608 280 594 243.45 361 c 0
103.45 374.75 m 0
 157.45 717.75 281.25 737 452.4 737 c 0
 625.85 737 743.65 684.85 691.45 347.25 c 0
 641.35 24.25 520.8 -4 343.95 -4 c 0
 172.05 -4 50.4502 41.75 103.45 374.75 c 0
EndSplineSet
Validated: 524321
Substitution2: "'c2sc' Capitals to Small Capitals in Latin lookup 17 subtable" ocircumflex.smcp
EndChar

StartChar: Otilde
Encoding: 213 213 74
Width: 666
VWidth: 0
Flags: W
HStem: -4 129<264.377 458.232> 608 129<332.201 530.406> 797.45 89.8<476.429 585.581> 832 89.8<361.008 471.65>
LayerCount: 2
Fore
SplineSet
298.583 852.3 m 1xd0
 335.883 886.95 381.183 921.8 430.433 921.8 c 1xd0
 477.133 920.45 495.833 887.7 530.433 887.25 c 1
 563.233 885.7 613.433 910.1 630.433 924.55 c 1
 644.883 864.95 l 1
 610.683 834.65 567.833 797 519.983 797.45 c 0xe0
 471.133 797.9 451.233 832.45 413.583 832 c 0
 372.333 831.55 347.783 816.5 314.133 797 c 1
 298.583 852.3 l 1xd0
243.45 361 m 0
 211.8 161.2 238.3 125 359.7 125 c 0
 470.9 125 520.15 163.7 551.45 361 c 0
 587.45 589.05 542.5 608 436.65 608 c 0
 328.4 608 280 594 243.45 361 c 0
103.45 374.75 m 0
 157.45 717.75 281.25 737 452.4 737 c 0
 625.85 737 743.65 684.85 691.45 347.25 c 0
 641.35 24.25 520.8 -4 343.95 -4 c 0
 172.05 -4 50.4502 41.75 103.45 374.75 c 0
EndSplineSet
Validated: 524321
Substitution2: "'c2sc' Capitals to Small Capitals in Latin lookup 17 subtable" otilde.smcp
EndChar

StartChar: Odieresis
Encoding: 214 214 75
Width: 666
VWidth: 0
Flags: W
HStem: -4 129<264.377 458.232> 608 129<332.201 530.406> 797 117.5<305.141 383.917 560.141 638.917>
VStem: 285.688 117.5<816.54 895.507> 540.688 117.5<816.54 895.507>
LayerCount: 2
Fore
SplineSet
540.688 856.25 m 0
 545.787 888.65 576.637 914.5 609.037 914.5 c 0
 641.438 914.5 663.287 888.65 658.188 856.25 c 0
 653.087 823.85 622.688 797 590.287 797 c 0
 557.887 797 535.587 823.85 540.688 856.25 c 0
285.688 856.25 m 0
 290.787 888.65 321.637 914.5 354.037 914.5 c 0
 386.438 914.5 408.287 888.65 403.188 856.25 c 0
 398.087 823.85 367.688 797 335.287 797 c 0
 302.887 797 280.587 823.85 285.688 856.25 c 0
243.45 361 m 0
 211.8 161.2 238.3 125 359.7 125 c 0
 470.9 125 520.15 163.7 551.45 361 c 0
 587.45 589.05 542.5 608 436.65 608 c 0
 328.4 608 280 594 243.45 361 c 0
103.45 374.75 m 0
 157.45 717.75 281.25 737 452.4 737 c 0
 625.85 737 743.65 684.85 691.45 347.25 c 0
 641.35 24.25 520.8 -4 343.95 -4 c 0
 172.05 -4 50.4502 41.75 103.45 374.75 c 0
EndSplineSet
Validated: 524321
Substitution2: "'c2sc' Capitals to Small Capitals in Latin lookup 17 subtable" odieresis.smcp
EndChar

StartChar: Oslash
Encoding: 216 216 76
Width: 666
VWidth: 0
Flags: W
HStem: -4 129<262.207 456.526> 608 129<330.533 531.756>
DStem2: 42.6 0 117.35 0 0.644031 0.764999<48.1413 102.476 296.86 732.504 909.642 956.864>
LayerCount: 2
Fore
SplineSet
251.15 157 m 1
 270.8 132.1 305.25 125 358.35 125 c 0
 469.55 125 518.25 163.7 549.55 361 c 0
 561.5 438.4 563.8 489.6 556.6 524.8 c 1
 251.15 157 l 1
241.55 361 m 0
 231.7 299 229.5 256.3 235.15 225.95 c 1
 533.55 585.5 l 1
 511.9 605.35 477.65 608 434.75 608 c 0
 326.5 608 278.1 594 241.55 361 c 0
42.6 0 m 1
 115.6 86.25 l 1
 88 139.8 79.65 242.1 101.55 377.5 c 0
 155.55 720.5 279.9 737 451.05 737 c 0
 523.4 737 586.4 730.1 630.5 697.85 c 1
 658.85 732 l 1
 733.6 732 l 1
 669.65 655.8 l 1
 702.55 600.8 712.55 493.85 689.55 344.5 c 0
 639.45 21.5 518.9 -4 342.05 -4 c 0
 264.65 -4 197 2.45 151.45 40.45 c 1
 117.35 0 l 1
 42.6 0 l 1
EndSplineSet
Validated: 524321
Substitution2: "'c2sc' Capitals to Small Capitals in Latin lookup 17 subtable" oslash.smcp
EndChar

StartChar: Ugrave
Encoding: 217 217 77
Width: 653
VWidth: 0
Flags: W
HStem: -5 129<271.881 440.807> 712 20G<171.444 315.1 580.491 724.65>
DStem2: 109.95 328.4 248.75 311.9 0.156005 0.987756<-125.975 408.752> 517.3 311.9 661.05 295.4 0.14415 0.989556<-133.117 425.277>
LayerCount: 2
Fore
SplineSet
309.057 935.5 m 1
 427.957 935.5 l 1
 505.357 797 l 1
 414.357 797 l 1
 309.057 935.5 l 1
109.95 328.4 m 2
 174.65 732 l 1
 315.1 732 l 1
 248.75 311.9 l 2
 227 174.7 246.55 124 352.8 124 c 0
 460.25 124 497 182.3 517.3 311.9 c 2
 583.65 732 l 1
 724.65 732 l 1
 661.05 295.4 l 1
 622.65 53.4004 510.6 -5 334.7 -5 c 0
 186.1 -5 65.0498 45.7998 109.95 328.4 c 2
EndSplineSet
Validated: 524321
Substitution2: "'c2sc' Capitals to Small Capitals in Latin lookup 17 subtable" ugrave.smcp
EndChar

StartChar: Uacute
Encoding: 218 218 78
Width: 653
VWidth: 0
Flags: W
HStem: -5 129<271.881 440.807> 712 20G<171.444 315.1 580.491 724.65>
DStem2: 109.95 328.4 248.75 311.9 0.156005 0.987756<-125.975 408.752> 517.3 311.9 661.05 295.4 0.14415 0.989556<-133.117 425.277>
LayerCount: 2
Fore
SplineSet
414.357 797 m 1
 526.957 935.5 l 1
 649.457 935.5 l 1
 505.357 797 l 1
 414.357 797 l 1
109.95 328.4 m 2
 174.65 732 l 1
 315.1 732 l 1
 248.75 311.9 l 2
 227 174.7 246.55 124 352.8 124 c 0
 460.25 124 497 182.3 517.3 311.9 c 2
 583.65 732 l 1
 724.65 732 l 1
 661.05 295.4 l 1
 622.65 53.4004 510.6 -5 334.7 -5 c 0
 186.1 -5 65.0498 45.7998 109.95 328.4 c 2
EndSplineSet
Validated: 524321
Substitution2: "'c2sc' Capitals to Small Capitals in Latin lookup 17 subtable" uacute.smcp
EndChar

StartChar: Ucircumflex
Encoding: 219 219 79
Width: 653
VWidth: 0
Flags: W
HStem: -5 129<271.881 440.807> 712 20G<171.444 315.1 580.491 724.65>
DStem2: 109.95 328.4 248.75 311.9 0.156005 0.987756<-125.975 408.752> 517.3 311.9 661.05 295.4 0.14415 0.989556<-133.117 425.277>
LayerCount: 2
Fore
SplineSet
305.882 797 m 1
 435.082 932.5 l 1
 539.082 932.5 l 1
 614.382 797 l 1
 524.082 797 l 1
 481.382 862.4 l 1
 408.982 797 l 1
 305.882 797 l 1
109.95 328.4 m 2
 174.65 732 l 1
 315.1 732 l 1
 248.75 311.9 l 2
 227 174.7 246.55 124 352.8 124 c 0
 460.25 124 497 182.3 517.3 311.9 c 2
 583.65 732 l 1
 724.65 732 l 1
 661.05 295.4 l 1
 622.65 53.4004 510.6 -5 334.7 -5 c 0
 186.1 -5 65.0498 45.7998 109.95 328.4 c 2
EndSplineSet
Validated: 524321
Substitution2: "'c2sc' Capitals to Small Capitals in Latin lookup 17 subtable" ucircumflex.smcp
EndChar

StartChar: Udieresis
Encoding: 220 220 80
Width: 653
VWidth: 0
Flags: W
HStem: -5 129<271.881 440.807> 712 20G<171.444 315.1 580.491 724.65> 797 117.5<303.021 381.798 558.021 636.798>
VStem: 283.568 117.5<816.54 895.507> 538.568 117.5<816.54 895.507>
DStem2: 109.95 328.4 248.75 311.9 0.156005 0.987756<-125.975 408.752> 517.3 311.9 661.05 295.4 0.14415 0.989556<-133.117 425.277>
LayerCount: 2
Fore
SplineSet
538.568 856.25 m 0
 543.668 888.65 574.518 914.5 606.918 914.5 c 0
 639.318 914.5 661.168 888.65 656.068 856.25 c 0
 650.968 823.85 620.568 797 588.168 797 c 0
 555.768 797 533.468 823.85 538.568 856.25 c 0
283.568 856.25 m 0
 288.668 888.65 319.518 914.5 351.918 914.5 c 0
 384.318 914.5 406.168 888.65 401.068 856.25 c 0
 395.968 823.85 365.568 797 333.168 797 c 0
 300.768 797 278.468 823.85 283.568 856.25 c 0
109.95 328.4 m 2
 174.65 732 l 1
 315.1 732 l 1
 248.75 311.9 l 2
 227 174.7 246.55 124 352.8 124 c 0
 460.25 124 497 182.3 517.3 311.9 c 2
 583.65 732 l 1
 724.65 732 l 1
 661.05 295.4 l 1
 622.65 53.4004 510.6 -5 334.7 -5 c 0
 186.1 -5 65.0498 45.7998 109.95 328.4 c 2
EndSplineSet
Validated: 524321
Substitution2: "'c2sc' Capitals to Small Capitals in Latin lookup 17 subtable" udieresis.smcp
EndChar

StartChar: Yacute
Encoding: 221 221 81
Width: 656
VWidth: 0
Flags: W
HStem: 0 21G<246.1 389.276> 0 21G<246.1 389.276> 712 20G<139 294.955 571.007 743>
DStem2: 246.1 0 386.1 0 0.156845 0.987623<21.9583 229.845> 374.15 382.35 422.15 227 0.536264 0.84405<0 407.094>
LayerCount: 2
Fore
SplineSet
405.982 797 m 1x20
 518.582 935.5 l 1
 641.082 935.5 l 1
 496.982 797 l 1
 405.982 797 l 1x20
139 732 m 1
 290.15 732 l 1
 374.15 382.35 l 1
 582.95 732 l 1
 743 732 l 1
 422.15 227 l 1
 386.1 0 l 1
 246.1 0 l 1xa0
 282.15 227 l 1
 139 732 l 1
EndSplineSet
Validated: 524289
Substitution2: "'c2sc' Capitals to Small Capitals in Latin lookup 17 subtable" yacute.smcp
EndChar

StartChar: agrave
Encoding: 224 224 82
Width: 542
VWidth: 0
Flags: W
HStem: -5.90039 118.55<164.425 318.693>
DStem2: 389.05 162.85 506.35 1.09961 0.144928 0.989442<-24.3352 261.842>
LayerCount: 2
Fore
SplineSet
201.873 740.388 m 1
 320.75 740.388 l 1
 398.173 601.888 l 1
 307.173 601.888 l 1
 201.873 740.388 l 1
213.4 271.35 m 0
 198 170.75 204.75 112.65 267.35 112.65 c 0
 325.1 112.65 356.8 131.65 389.05 162.85 c 1
 427.3 419 l 1
 395.9 430.05 350.2 434.75 320.75 428.4 c 0
 275.55 419.15 233.95 405.15 213.4 271.35 c 0
76.9502 296.7 m 0
 119 516.45 233.5 536.5 327.6 541 c 0
 404.2 545.05 525.35 528 576.35 479 c 1
 506.35 1.09961 l 1
 398.35 1.09961 l 1
 376.9 55.5996 l 1
 350.65 22.8496 280 -5.90039 216.2 -5.90039 c 0
 112.65 -5.90039 35.2998 77.7002 76.9502 296.7 c 0
EndSplineSet
Validated: 524321
AlternateSubs2: "'salt' Access All Alternates in Latin lookup 4-1" agrave.salt
Substitution2: "'smcp' Lowercase to Small Capitals lookup 16-1" agrave.smcp
EndChar

StartChar: aacute
Encoding: 225 225 83
Width: 542
VWidth: 0
Flags: W
HStem: -5.90039 118.55<164.425 318.693>
DStem2: 389.05 162.85 506.35 1.09961 0.144928 0.989442<-24.3352 261.842>
LayerCount: 2
Fore
SplineSet
311.674 601.888 m 1
 424.274 740.388 l 1
 546.774 740.388 l 1
 402.674 601.888 l 1
 311.674 601.888 l 1
213.4 271.35 m 0
 198 170.75 204.75 112.65 267.35 112.65 c 0
 325.1 112.65 356.8 131.65 389.05 162.85 c 1
 427.3 419 l 1
 395.9 430.05 350.2 434.75 320.75 428.4 c 0
 275.55 419.15 233.95 405.15 213.4 271.35 c 0
76.9502 296.7 m 0
 119 516.45 233.5 536.5 327.6 541 c 0
 404.2 545.05 525.35 528 576.35 479 c 1
 506.35 1.09961 l 1
 398.35 1.09961 l 1
 376.9 55.5996 l 1
 350.65 22.8496 280 -5.90039 216.2 -5.90039 c 0
 112.65 -5.90039 35.2998 77.7002 76.9502 296.7 c 0
EndSplineSet
Validated: 524321
AlternateSubs2: "'salt' Access All Alternates in Latin lookup 4-1" aacute.salt
Substitution2: "'smcp' Lowercase to Small Capitals lookup 16-1" aacute.smcp
EndChar

StartChar: acircumflex
Encoding: 226 226 84
Width: 542
VWidth: 0
Flags: W
HStem: -5.90039 118.55<164.425 318.693> 717.388 20G<308.829 443.013>
DStem2: 389.05 162.85 506.35 1.09961 0.144928 0.989442<-24.3352 261.842>
LayerCount: 2
Fore
SplineSet
198.699 601.888 m 1
 327.899 737.388 l 1
 431.899 737.388 l 1
 507.199 601.888 l 1
 416.899 601.888 l 1
 374.199 667.287 l 1
 301.799 601.888 l 1
 198.699 601.888 l 1
213.4 271.35 m 0
 198 170.75 204.75 112.65 267.35 112.65 c 0
 325.1 112.65 356.8 131.65 389.05 162.85 c 1
 427.3 419 l 1
 395.9 430.05 350.2 434.75 320.75 428.4 c 0
 275.55 419.15 233.95 405.15 213.4 271.35 c 0
76.9502 296.7 m 0
 119 516.45 233.5 536.5 327.6 541 c 0
 404.2 545.05 525.35 528 576.35 479 c 1
 506.35 1.09961 l 1
 398.35 1.09961 l 1
 376.9 55.5996 l 1
 350.65 22.8496 280 -5.90039 216.2 -5.90039 c 0
 112.65 -5.90039 35.2998 77.7002 76.9502 296.7 c 0
EndSplineSet
Validated: 524321
AlternateSubs2: "'salt' Access All Alternates in Latin lookup 4-1" acircumflex.salt
Substitution2: "'smcp' Lowercase to Small Capitals lookup 16-1" acircumflex.smcp
EndChar

StartChar: atilde
Encoding: 227 227 85
Width: 542
VWidth: 0
Flags: W
HStem: -5.90039 118.55<164.425 318.693> 602.338 89.8<370.727 479.879> 636.888 89.8<255.307 365.948>
DStem2: 389.05 162.85 506.35 1.09961 0.144928 0.989442<-24.3352 261.842>
LayerCount: 2
Fore
SplineSet
192.882 657.188 m 1xa0
 230.182 691.838 275.481 726.688 324.731 726.688 c 1xa0
 371.432 725.338 390.132 692.588 424.731 692.138 c 1
 457.531 690.588 507.731 714.987 524.731 729.438 c 1
 539.182 669.838 l 1
 504.981 639.537 462.132 601.888 414.281 602.338 c 0xc0
 365.432 602.787 345.531 637.338 307.882 636.888 c 0
 266.632 636.438 242.082 621.388 208.432 601.888 c 1
 192.882 657.188 l 1xa0
213.4 271.35 m 0
 198 170.75 204.75 112.65 267.35 112.65 c 0
 325.1 112.65 356.8 131.65 389.05 162.85 c 1
 427.3 419 l 1
 395.9 430.05 350.2 434.75 320.75 428.4 c 0
 275.55 419.15 233.95 405.15 213.4 271.35 c 0
76.9502 296.7 m 0
 119 516.45 233.5 536.5 327.6 541 c 0
 404.2 545.05 525.35 528 576.35 479 c 1
 506.35 1.09961 l 1
 398.35 1.09961 l 1
 376.9 55.5996 l 1
 350.65 22.8496 280 -5.90039 216.2 -5.90039 c 0
 112.65 -5.90039 35.2998 77.7002 76.9502 296.7 c 0
EndSplineSet
Validated: 524321
AlternateSubs2: "'salt' Access All Alternates in Latin lookup 4-1" atilde.salt
Substitution2: "'smcp' Lowercase to Small Capitals lookup 16-1" atilde.smcp
EndChar

StartChar: adieresis
Encoding: 228 228 86
Width: 542
VWidth: 0
Flags: W
HStem: -5.90039 118.55<164.425 318.693> 601.888 117.5<195.289 274.065 450.289 529.065>
VStem: 175.835 117.5<621.427 700.395> 430.835 117.5<621.427 700.395>
DStem2: 389.05 162.85 506.35 1.09961 0.144928 0.989442<-24.3352 261.842>
LayerCount: 2
Fore
SplineSet
430.835 661.138 m 0
 435.936 693.537 466.785 719.388 499.186 719.388 c 0
 531.585 719.388 553.436 693.537 548.335 661.138 c 0
 543.235 628.737 512.835 601.888 480.436 601.888 c 0
 448.035 601.888 425.735 628.737 430.835 661.138 c 0
175.835 661.138 m 0
 180.936 693.537 211.785 719.388 244.186 719.388 c 0
 276.585 719.388 298.436 693.537 293.335 661.138 c 0
 288.235 628.737 257.835 601.888 225.436 601.888 c 0
 193.035 601.888 170.735 628.737 175.835 661.138 c 0
213.4 271.35 m 0
 198 170.75 204.75 112.65 267.35 112.65 c 0
 325.1 112.65 356.8 131.65 389.05 162.85 c 1
 427.3 419 l 1
 395.9 430.05 350.2 434.75 320.75 428.4 c 0
 275.55 419.15 233.95 405.15 213.4 271.35 c 0
76.9502 296.7 m 0
 119 516.45 233.5 536.5 327.6 541 c 0
 404.2 545.05 525.35 528 576.35 479 c 1
 506.35 1.09961 l 1
 398.35 1.09961 l 1
 376.9 55.5996 l 1
 350.65 22.8496 280 -5.90039 216.2 -5.90039 c 0
 112.65 -5.90039 35.2998 77.7002 76.9502 296.7 c 0
EndSplineSet
Validated: 524321
AlternateSubs2: "'salt' Access All Alternates in Latin lookup 4-1" adieresis.salt
Substitution2: "'smcp' Lowercase to Small Capitals lookup 16-1" adieresis.smcp
EndChar

StartChar: aring
Encoding: 229 229 87
Width: 542
VWidth: 0
Flags: W
HStem: -5.90039 118.55<164.425 318.693> 601.888 58.45<334.032 409.07> 746.237 57.901<338.761 412.194>
DStem2: 389.05 162.85 506.35 1.09961 0.144928 0.989442<-24.3352 261.842>
LayerCount: 2
Fore
SplineSet
330.429 702.787 m 0
 328.148 678.838 346.153 660.338 370.103 660.338 c 0
 394.053 660.338 414.048 678.838 416.329 702.787 c 0
 418.61 726.737 401.644 746.237 377.694 746.237 c 0
 353.744 746.237 332.71 726.737 330.429 702.787 c 0
271.879 702.787 m 0
 276.873 759.787 325.784 804.138 381.784 804.138 c 0
 437.784 804.138 479.873 759.787 474.879 702.787 c 0
 469.885 645.787 422.562 601.888 366.562 601.888 c 0
 310.562 601.888 266.885 645.787 271.879 702.787 c 0
213.4 271.35 m 0
 198 170.75 204.75 112.65 267.35 112.65 c 0
 325.1 112.65 356.8 131.65 389.05 162.85 c 1
 427.3 419 l 1
 395.9 430.05 350.2 434.75 320.75 428.4 c 0
 275.55 419.15 233.95 405.15 213.4 271.35 c 0
76.9502 296.7 m 0
 119 516.45 233.5 536.5 327.6 541 c 0
 404.2 545.05 525.35 528 576.35 479 c 1
 506.35 1.09961 l 1
 398.35 1.09961 l 1
 376.9 55.5996 l 1
 350.65 22.8496 280 -5.90039 216.2 -5.90039 c 0
 112.65 -5.90039 35.2998 77.7002 76.9502 296.7 c 0
EndSplineSet
Validated: 524321
AlternateSubs2: "'salt' Access All Alternates in Latin lookup 4-1" aring.salt
Substitution2: "'smcp' Lowercase to Small Capitals lookup 16-1" aring.smcp
EndChar

StartChar: ae
Encoding: 230 230 88
Width: 849
VWidth: 0
Flags: W
HStem: -7 118.55<195.754 309.052 509.614 751.285> 428.5 112.5<563.136 704.655>
LayerCount: 2
Fore
SplineSet
517.95 300.25 m 1
 517.95 300.25 692.5 271.45 709.45 368.75 c 0
 718.15 418.3 690.1 429.05 634.1 428.5 c 0
 539.45 427.4 530.35 365.95 517.95 300.25 c 1
191.4 270.25 m 0
 176 169.65 178.15 112 244.8 111.55 c 0
 291.45 111.1 343.85 125.6 363.2 149 c 1
 359.85 190.9 363.75 241.6 374.65 300 c 0
 383.25 346 393.4 385.95 408.95 417.4 c 1
 375.35 427.9 326.1 434.2 298.2 428.4 c 0
 253.45 419.15 211.95 404.05 191.4 270.25 c 0
54.85 298.65 m 0
 99.15 523.35 203.8 536.5 297.9 541 c 0
 352.75 544.6 438.9 534.2 490.55 509.85 c 1
 527 529.95 568.9 540.45 636.45 541 c 0
 750.9 541.55 860.6 510.05 852.2 388 c 0
 836.85 145.9 543.65 192.75 506.65 207.75 c 1
 493.35 126.65 512.9 105.7 583.9 105.25 c 1
 643.4 102.55 733.35 111.55 795.4 122 c 1
 778.15 22 l 1
 698 -2.1 618.2 -13.6 507.15 -7 c 0
 449.2 -4.25 409.3 19.3 386.55 62.45 c 1
 344.15 13.3 251 -7 194.2 -7 c 0
 89.65 -7 12.75 85.5 54.85 298.65 c 0
EndSplineSet
Validated: 524321
Substitution2: "'smcp' Lowercase to Small Capitals lookup 16-1" ae.smcp
EndChar

StartChar: ccedilla
Encoding: 231 231 89
Width: 493
VWidth: 0
Flags: W
HStem: -179.05 60.1<137.7 159.517> -5.45 112.05<165.325 437.842> 424.4 112.5<265.296 500.355>
VStem: 224.95 94.5<-92.1628 -37.55>
LayerCount: 2
Fore
SplineSet
128.4 -179.05 m 1
 137.7 -118.95 l 1
 184.45 -103.95 l 1
 214.45 -91.95 218.95 -75.55 224.95 -37.55 c 1
 237.55 -38 319.45 -37.55 319.45 -37.55 c 1
 303.45 -139.55 271.5 -179.05 184.9 -179.05 c 2
 128.4 -179.05 l 1
79.45 282.5 m 0
 117.4 510.75 198.5 536.9 296.9 536.9 c 0
 348.9 536.9 453 532.9 536.4 504.5 c 1
 522.9 417.5 l 1
 522.9 417.5 428.35 424.4 339.35 424.4 c 0
 275.4 424.4 246.2 421.9 218.45 263.1 c 0
 195.85 128.95 219.6 106.6 288.45 106.6 c 0
 380.45 106.6 482 115.95 482 115.95 c 1
 468.05 28.05 l 1
 384.15 -11.45 298.5 -5.35 215.5 -5.45 c 0
 115.15 -5 45.55 77.65 79.45 282.5 c 0
EndSplineSet
Validated: 524321
Substitution2: "'smcp' Lowercase to Small Capitals lookup 16-1" ccedilla.smcp
EndChar

StartChar: egrave
Encoding: 232 232 90
Width: 527
VWidth: 0
Flags: W
HStem: -7 112.25<217.562 460.099> 428.5 112.5<267.76 406.013>
LayerCount: 2
Fore
SplineSet
209.025 739.5 m 1
 327.925 739.5 l 1
 405.325 601 l 1
 314.325 601 l 1
 209.025 739.5 l 1
222.4 300.25 m 1
 222.4 300.25 396.4 271.45 413.35 368.75 c 0
 422.05 418.3 394.55 429.05 338.55 428.5 c 0
 243.9 427.4 234.8 365.95 222.4 300.25 c 1
79.0996 300 m 0
 110.1 463 153.6 539.9 348.6 541 c 0
 463.05 541.55 565.05 510.05 556.65 388 c 0
 541.3 145.9 247.55 192.75 210.55 207.75 c 1
 197.25 126.65 216.8 105.7 287.8 105.25 c 1
 347.3 102.55 442.85 111.55 504.9 122 c 1
 488.1 22 l 1
 407.95 -2.09961 322.2 -13.5996 211.15 -7 c 1
 83.7002 -0.950195 43.0996 106 79.0996 300 c 0
EndSplineSet
Validated: 524321
Substitution2: "'smcp' Lowercase to Small Capitals lookup 16-1" egrave.smcp
EndChar

StartChar: eacute
Encoding: 233 233 91
Width: 527
VWidth: 0
Flags: W
HStem: -7 112.25<217.562 460.099> 428.5 112.5<267.76 406.013>
LayerCount: 2
Fore
SplineSet
314.325 601 m 1
 426.925 739.5 l 1
 549.425 739.5 l 1
 405.325 601 l 1
 314.325 601 l 1
222.4 300.25 m 1
 222.4 300.25 396.4 271.45 413.35 368.75 c 0
 422.05 418.3 394.55 429.05 338.55 428.5 c 0
 243.9 427.4 234.8 365.95 222.4 300.25 c 1
79.0996 300 m 0
 110.1 463 153.6 539.9 348.6 541 c 0
 463.05 541.55 565.05 510.05 556.65 388 c 0
 541.3 145.9 247.55 192.75 210.55 207.75 c 1
 197.25 126.65 216.8 105.7 287.8 105.25 c 1
 347.3 102.55 442.85 111.55 504.9 122 c 1
 488.1 22 l 1
 407.95 -2.09961 322.2 -13.5996 211.15 -7 c 1
 83.7002 -0.950195 43.0996 106 79.0996 300 c 0
EndSplineSet
Validated: 524321
Substitution2: "'smcp' Lowercase to Small Capitals lookup 16-1" eacute.smcp
EndChar

StartChar: ecircumflex
Encoding: 234 234 92
Width: 527
VWidth: 0
Flags: W
HStem: -7 112.25<217.562 460.099> 428.5 112.5<267.76 406.013> 716.5 20G<315.98 450.164>
LayerCount: 2
Fore
SplineSet
205.85 601 m 1
 335.05 736.5 l 1
 439.05 736.5 l 1
 514.35 601 l 1
 424.05 601 l 1
 381.35 666.4 l 1
 308.95 601 l 1
 205.85 601 l 1
222.4 300.25 m 1
 222.4 300.25 396.4 271.45 413.35 368.75 c 0
 422.05 418.3 394.55 429.05 338.55 428.5 c 0
 243.9 427.4 234.8 365.95 222.4 300.25 c 1
79.0996 300 m 0
 110.1 463 153.6 539.9 348.6 541 c 0
 463.05 541.55 565.05 510.05 556.65 388 c 0
 541.3 145.9 247.55 192.75 210.55 207.75 c 1
 197.25 126.65 216.8 105.7 287.8 105.25 c 1
 347.3 102.55 442.85 111.55 504.9 122 c 1
 488.1 22 l 1
 407.95 -2.09961 322.2 -13.5996 211.15 -7 c 1
 83.7002 -0.950195 43.0996 106 79.0996 300 c 0
EndSplineSet
Validated: 524321
Substitution2: "'smcp' Lowercase to Small Capitals lookup 16-1" ecircumflex.smcp
EndChar

StartChar: edieresis
Encoding: 235 235 93
Width: 527
VWidth: 0
Flags: W
HStem: -7 112.25<217.562 460.099> 428.5 112.5<267.76 406.013> 601 117.5<202.44 281.217 457.44 536.217>
VStem: 182.987 117.5<620.54 699.507> 437.987 117.5<620.54 699.507>
LayerCount: 2
Fore
SplineSet
437.987 660.25 m 0
 443.087 692.65 473.937 718.5 506.337 718.5 c 0
 538.737 718.5 560.587 692.65 555.487 660.25 c 0
 550.387 627.85 519.987 601 487.587 601 c 0
 455.187 601 432.887 627.85 437.987 660.25 c 0
182.987 660.25 m 0
 188.087 692.65 218.937 718.5 251.337 718.5 c 0
 283.737 718.5 305.587 692.65 300.487 660.25 c 0
 295.387 627.85 264.987 601 232.587 601 c 0
 200.187 601 177.887 627.85 182.987 660.25 c 0
222.4 300.25 m 1
 222.4 300.25 396.4 271.45 413.35 368.75 c 0
 422.05 418.3 394.55 429.05 338.55 428.5 c 0
 243.9 427.4 234.8 365.95 222.4 300.25 c 1
79.0996 300 m 0
 110.1 463 153.6 539.9 348.6 541 c 0
 463.05 541.55 565.05 510.05 556.65 388 c 0
 541.3 145.9 247.55 192.75 210.55 207.75 c 1
 197.25 126.65 216.8 105.7 287.8 105.25 c 1
 347.3 102.55 442.85 111.55 504.9 122 c 1
 488.1 22 l 1
 407.95 -2.09961 322.2 -13.5996 211.15 -7 c 1
 83.7002 -0.950195 43.0996 106 79.0996 300 c 0
EndSplineSet
Validated: 524321
Substitution2: "'smcp' Lowercase to Small Capitals lookup 16-1" edieresis.smcp
EndChar

StartChar: igrave
Encoding: 236 236 94
Width: 226
VWidth: 0
Flags: W
HStem: 0 21G<38 181.164> 0 21G<38 181.164> 511 20G<118.836 262> 716.15 20G<50.582 180.658>
VStem: 38 224
DStem2: 38 0 178 0 0.156249 0.987718<21.8749 537.603>
LayerCount: 2
Fore
SplineSet
50.582 736.15 m 1x38
 169.481 736.15 l 1
 246.882 597.65 l 1
 155.882 597.65 l 1
 50.582 736.15 l 1x38
38 0 m 1xb8
 122 531 l 1
 262 531 l 1
 178 0 l 1
 38 0 l 1xb8
EndSplineSet
Validated: 524289
Substitution2: "'smcp' Lowercase to Small Capitals lookup 16-1" igrave.smcp
EndChar

StartChar: iacute
Encoding: 237 237 95
Width: 226
VWidth: 0
Flags: W
HStem: 0 21G<38 181.164> 0 21G<38 181.164> 511 20G<118.836 262> 716.15 20G<251.321 390.081>
DStem2: 38 0 178 0 0.156249 0.987718<21.8749 537.603>
LayerCount: 2
Fore
SplineSet
154.981 597.65 m 1x30
 267.581 736.15 l 1
 390.081 736.15 l 1
 245.981 597.65 l 1
 154.981 597.65 l 1x30
38 0 m 1xb0
 122 531 l 1
 262 531 l 1
 178 0 l 1
 38 0 l 1xb0
EndSplineSet
Validated: 524289
Substitution2: "'smcp' Lowercase to Small Capitals lookup 16-1" iacute.smcp
EndChar

StartChar: icircumflex
Encoding: 238 238 96
Width: 226
VWidth: 0
Flags: W
HStem: 0 21G<38 181.164> 0 21G<38 181.164> 511 20G<118.836 262> 713.15 20G<155.737 289.921>
VStem: 38 316.106
DStem2: 38 0 178 0 0.156249 0.987718<21.8749 537.603>
LayerCount: 2
Fore
SplineSet
45.6064 597.65 m 1x38
 174.807 733.15 l 1
 278.807 733.15 l 1
 354.106 597.65 l 1
 263.807 597.65 l 1
 221.106 663.05 l 1
 148.707 597.65 l 1
 45.6064 597.65 l 1x38
38 0 m 1xb8
 122 531 l 1
 262 531 l 1
 178 0 l 1
 38 0 l 1xb8
EndSplineSet
Validated: 524289
Substitution2: "'smcp' Lowercase to Small Capitals lookup 16-1" icircumflex.smcp
EndChar

StartChar: idieresis
Encoding: 239 239 97
Width: 226
VWidth: 0
Flags: W
HStem: 0 21G<38 181.164> 0 21G<38 181.164> 511 20G<118.836 262> 597.65 117.5<40.9464 119.723 295.946 374.723>
VStem: 21.4932 117.5<617.19 696.157> 276.493 117.5<617.19 696.157>
DStem2: 38 0 178 0 0.156249 0.987718<21.8749 537.603>
LayerCount: 2
Fore
SplineSet
276.493 656.9 m 0x3c
 281.593 689.3 312.443 715.15 344.843 715.15 c 0
 377.243 715.15 399.093 689.3 393.993 656.9 c 0
 388.893 624.5 358.493 597.65 326.093 597.65 c 0
 293.693 597.65 271.393 624.5 276.493 656.9 c 0x3c
21.4932 656.9 m 0
 26.5928 689.3 57.4434 715.15 89.8428 715.15 c 0
 122.243 715.15 144.093 689.3 138.993 656.9 c 0
 133.893 624.5 103.493 597.65 71.0928 597.65 c 0
 38.6934 597.65 16.3926 624.5 21.4932 656.9 c 0
38 0 m 1xbc
 122 531 l 1
 262 531 l 1
 178 0 l 1
 38 0 l 1xbc
EndSplineSet
Validated: 524321
Substitution2: "'smcp' Lowercase to Small Capitals lookup 16-1" idieresis.smcp
EndChar

StartChar: eth
Encoding: 240 240 98
Width: 539
VWidth: 0
Flags: W
HStem: 0 130.1<209.657 371.408> 402 129<250.747 413.428> 668.5 114.5<217.95 319.589>
DStem2: 246 622.5 265.4 564.7 0.911584 0.411115<0 83.7132 263.966 343.095>
LayerCount: 2
Fore
SplineSet
210.2 261.3 m 0
 192 148.8 209.25 129.2 257.1 130.1 c 2
 320.55 130.1 l 2
 366.85 129.65 391.35 144.4 410.2 261.3 c 0
 428.7 377.2 422.4 402 362.6 402 c 2
 302.75 402 l 2
 254.35 402 229.4 378.9 210.2 261.3 c 0
70.2 273.95 m 0
 99.45 452.05 163.1 531 298.1 531 c 2
 355.45 531 l 2
 361.45 531 413.65 531 429.5 521.5 c 1
 424.15 559.25 410.8 592.85 387.5 618.3 c 1
 265.4 564.7 l 1
 246 622.5 l 1
 322.95 655.5 l 1
 287.8 668.6 242.75 669.95 199.7 668.5 c 1
 217.95 783 l 1
 333.05 783 410.45 762.9 464.7 722.9 c 1
 563.3 766.05 l 1
 583.7 708.25 l 1
 510.9 677.2 l 1
 585.3 575.1 573.45 393.05 550.2 244.8 c 0
 520 56.6 443.7 0 323.2 0 c 2
 214.1 0 l 2
 77.1 0 44.45 115.65 70.2 273.95 c 0
EndSplineSet
Validated: 524321
Substitution2: "'smcp' Lowercase to Small Capitals lookup 16-1" eth.smcp
EndChar

StartChar: ograve
Encoding: 242 242 99
Width: 557
VWidth: 0
Flags: W
HStem: -5 112.5<225.421 375.643> 425.15 112.5<269.693 416.956> 716.15 20G<215.075 345.152>
LayerCount: 2
Fore
SplineSet
215.075 736.15 m 1
 333.975 736.15 l 1
 411.375 597.65 l 1
 320.375 597.65 l 1
 215.075 736.15 l 1
217.45 258 m 0
 195.05 122.85 221.35 107.5 295.75 107.5 c 0
 373.25 107.5 398.55 118.2 421.95 258 c 0
 444.9 398.2 429.55 425.15 346.1 425.15 c 0
 263.25 425.15 241.3 403.5 217.45 258 c 0
77.4502 271.75 m 0
 111.45 488.75 182.85 537.65 362.35 537.65 c 0
 540.25 537.65 594.05 444.45 561.95 244.25 c 0
 530.05 47.25 466.45 -5 282.65 -5 c 0
 102.4 -5 47.4502 81.75 77.4502 271.75 c 0
EndSplineSet
Validated: 524321
Substitution2: "'smcp' Lowercase to Small Capitals lookup 16-1" ograve.smcp
EndChar

StartChar: oacute
Encoding: 243 243 100
Width: 557
VWidth: 0
Flags: W
HStem: -5 112.5<225.421 375.643> 425.15 112.5<269.693 416.956> 716.15 20G<420.015 558.775>
LayerCount: 2
Fore
SplineSet
323.675 597.65 m 1
 436.275 736.15 l 1
 558.775 736.15 l 1
 414.675 597.65 l 1
 323.675 597.65 l 1
217.45 258 m 0
 195.05 122.85 221.35 107.5 295.75 107.5 c 0
 373.25 107.5 398.55 118.2 421.95 258 c 0
 444.9 398.2 429.55 425.15 346.1 425.15 c 0
 263.25 425.15 241.3 403.5 217.45 258 c 0
77.4502 271.75 m 0
 111.45 488.75 182.85 537.65 362.35 537.65 c 0
 540.25 537.65 594.05 444.45 561.95 244.25 c 0
 530.05 47.25 466.45 -5 282.65 -5 c 0
 102.4 -5 47.4502 81.75 77.4502 271.75 c 0
EndSplineSet
Validated: 524321
Substitution2: "'smcp' Lowercase to Small Capitals lookup 16-1" oacute.smcp
EndChar

StartChar: ocircumflex
Encoding: 244 244 101
Width: 557
VWidth: 0
Flags: W
HStem: -5 112.5<225.421 375.643> 425.15 112.5<269.693 416.956> 713.15 20G<319.83 454.014>
LayerCount: 2
Fore
SplineSet
209.7 597.65 m 1
 338.9 733.15 l 1
 442.9 733.15 l 1
 518.2 597.65 l 1
 427.9 597.65 l 1
 385.2 663.05 l 1
 312.8 597.65 l 1
 209.7 597.65 l 1
217.45 258 m 0
 195.05 122.85 221.35 107.5 295.75 107.5 c 0
 373.25 107.5 398.55 118.2 421.95 258 c 0
 444.9 398.2 429.55 425.15 346.1 425.15 c 0
 263.25 425.15 241.3 403.5 217.45 258 c 0
77.4502 271.75 m 0
 111.45 488.75 182.85 537.65 362.35 537.65 c 0
 540.25 537.65 594.05 444.45 561.95 244.25 c 0
 530.05 47.25 466.45 -5 282.65 -5 c 0
 102.4 -5 47.4502 81.75 77.4502 271.75 c 0
EndSplineSet
Validated: 524321
Substitution2: "'smcp' Lowercase to Small Capitals lookup 16-1" ocircumflex.smcp
EndChar

StartChar: otilde
Encoding: 245 245 102
Width: 557
VWidth: 0
Flags: W
HStem: -5 112.5<225.421 375.643> 425.15 112.5<269.693 416.956> 598.1 89.8<380.879 490.031> 632.65 89.8<265.458 376.1>
LayerCount: 2
Fore
SplineSet
203.033 652.95 m 1xd0
 240.333 687.6 285.633 722.45 334.883 722.45 c 1xd0
 381.583 721.1 400.283 688.35 434.883 687.9 c 1
 467.684 686.35 517.883 710.75 534.883 725.2 c 1
 549.333 665.6 l 1
 515.133 635.3 472.283 597.65 424.434 598.1 c 0xe0
 375.583 598.55 355.684 633.1 318.033 632.65 c 0
 276.783 632.2 252.233 617.15 218.583 597.65 c 1
 203.033 652.95 l 1xd0
217.45 258 m 0
 195.05 122.85 221.35 107.5 295.75 107.5 c 0
 373.25 107.5 398.55 118.2 421.95 258 c 0
 444.9 398.2 429.55 425.15 346.1 425.15 c 0
 263.25 425.15 241.3 403.5 217.45 258 c 0
77.4502 271.75 m 0
 111.45 488.75 182.85 537.65 362.35 537.65 c 0
 540.25 537.65 594.05 444.45 561.95 244.25 c 0
 530.05 47.25 466.45 -5 282.65 -5 c 0
 102.4 -5 47.4502 81.75 77.4502 271.75 c 0
EndSplineSet
Validated: 524321
Substitution2: "'smcp' Lowercase to Small Capitals lookup 16-1" otilde.smcp
EndChar

StartChar: odieresis
Encoding: 246 246 103
Width: 557
VWidth: 0
Flags: W
HStem: -5 112.5<225.421 375.643> 425.15 112.5<269.693 416.956> 597.65 117.5<210.69 289.467 465.69 544.467>
VStem: 191.237 117.5<617.19 696.157> 446.237 117.5<617.19 696.157>
LayerCount: 2
Fore
SplineSet
446.237 656.9 m 0
 451.337 689.3 482.187 715.15 514.587 715.15 c 0
 546.987 715.15 568.837 689.3 563.737 656.9 c 0
 558.637 624.5 528.237 597.65 495.837 597.65 c 0
 463.437 597.65 441.137 624.5 446.237 656.9 c 0
191.237 656.9 m 0
 196.337 689.3 227.187 715.15 259.587 715.15 c 0
 291.987 715.15 313.837 689.3 308.737 656.9 c 0
 303.637 624.5 273.237 597.65 240.837 597.65 c 0
 208.437 597.65 186.137 624.5 191.237 656.9 c 0
217.45 258 m 0
 195.05 122.85 221.35 107.5 295.75 107.5 c 0
 373.25 107.5 398.55 118.2 421.95 258 c 0
 444.9 398.2 429.55 425.15 346.1 425.15 c 0
 263.25 425.15 241.3 403.5 217.45 258 c 0
77.4502 271.75 m 0
 111.45 488.75 182.85 537.65 362.35 537.65 c 0
 540.25 537.65 594.05 444.45 561.95 244.25 c 0
 530.05 47.25 466.45 -5 282.65 -5 c 0
 102.4 -5 47.4502 81.75 77.4502 271.75 c 0
EndSplineSet
Validated: 524321
Substitution2: "'smcp' Lowercase to Small Capitals lookup 16-1" odieresis.smcp
EndChar

StartChar: ntilde
Encoding: 241 241 104
Width: 550
VWidth: 0
Flags: W
HStem: 0 21G<45.7002 188.877 372.7 515.882> 0 21G<45.7002 188.877 372.7 515.882> 427.5 112.5<336.806 502> 511 20G<126.536 248.784> 600.45 89.8<387.436 496.588> 635 89.8<272.016 382.657>
DStem2: 372.7 0 512.7 0 0.156198 0.987726<21.8677 417.083>
LayerCount: 2
Fore
SplineSet
209.591 655.3 m 1x04
 246.891 689.95 292.19 724.8 341.44 724.8 c 1x04
 388.141 723.45 406.841 690.7 441.44 690.25 c 1
 474.24 688.7 524.44 713.1 541.44 727.55 c 1
 555.891 667.95 l 1
 521.69 637.65 478.841 600 430.99 600.45 c 0x08
 382.141 600.9 362.24 635.45 324.591 635 c 0
 283.341 634.55 258.791 619.5 225.141 600 c 1
 209.591 655.3 l 1x04
45.7002 0 m 1xa0
 129.7 531 l 1
 242.2 531 l 1x90
 260.8 474.5 l 1
 311.85 507.3 359.2 540 440.2 540 c 0
 563.8 540 585.15 454.7 568.95 353.5 c 2
 512.7 0 l 1
 372.7 0 l 1
 428.95 355.7 l 2
 437.3 408.5 417.05 427.5 382 427.5 c 0
 325.65 427.5 292.45 413 246.3 381.5 c 1
 185.7 0 l 1
 45.7002 0 l 1xa0
EndSplineSet
Validated: 524321
AlternateSubs2: "'salt' Access All Alternates in Latin lookup 4-1" ntilde.salt
Substitution2: "'smcp' Lowercase to Small Capitals lookup 16-1" ntilde.smcp
EndChar

StartChar: oslash
Encoding: 248 248 105
Width: 559
VWidth: 0
Flags: W
HStem: -5 112.5<227.286 376.789> 423.5 112.5<267.729 411.642>
DStem2: 93.05 68.85 102.1 0 0.691852 0.722039<-43.4511 2.15354 178.005 425.198 596.811 638.693>
LayerCount: 2
Fore
SplineSet
226.65 128.05 m 1
 239.65 110.5 263.1 107.5 297.2 107.5 c 0
 374.7 107.5 399.45 118.2 423.4 258 c 0
 429.8 296.7 430.45 322.7 424.7 339.95 c 1
 226.65 128.05 l 1
217.9 195.75 m 1
 412.7 405.75 l 1
 400.6 419.5 378.95 423.5 347.1 423.5 c 0
 264.25 423.5 242.75 403.5 218.9 258 c 0
 214.4 229.45 213.85 209.45 217.9 195.75 c 1
27.35 0 m 1
 93.05 68.85 l 1
 68.8 110.85 65.45 185.4 78.9 270.65 c 0
 112.9 487.65 184.3 536 363.8 536 c 0
 427.4 536 475.15 526.1 508.8 504.55 c 1
 533.9 531 l 1
 610.9 531 l 1
 547.1 464.5 l 1
 574.6 419.6 578.85 338.7 563.4 244.8 c 0
 531.5 47.8 467.45 -5 283.65 -5 c 0
 215.1 -5 164.55 5.9 130 29.25 c 1
 102.1 0 l 1
 27.35 0 l 1
EndSplineSet
Validated: 524321
Substitution2: "'smcp' Lowercase to Small Capitals lookup 16-1" oslash.smcp
EndChar

StartChar: thorn
Encoding: 254 254 106
Width: 554
VWidth: 0
Flags: W
HStem: -12.75 109.75<229.706 379.453> 415.3 119.2<340.531 421.218> 762 20G<174.325 317.5>
DStem2: 10.5 -270 150.5 -270 0.156782 0.987633<21.9495 319.102 409.356 695.188 774.388 1065.17>
LayerCount: 2
Fore
SplineSet
211.9 116.5 m 1
 251.4 100.1 291.65 98.35 329.25 97 c 1
 370.3 97 407.3 122.25 427.1 259.1 c 0
 443.65 375.3 424.35 417.55 381.4 415.3 c 0
 334.65 413.5 290.3 400.4 253.45 380.25 c 1
 211.9 116.5 l 1
10.5 -270 m 1
 177.5 782 l 1
 317.5 782 l 1
 268.05 473.2 l 1
 305.3 499.9 374.7 534.5 437.75 534.5 c 0
 556.3 534.5 592.7 408.9 568.1 249.95 c 0
 546.5 112.55 510.05 -12.75 350.75 -12.75 c 0
 305.75 -12.75 241 -0.85 196.95 23.5 c 1
 150.5 -270 l 1
 10.5 -270 l 1
EndSplineSet
Validated: 524321
Substitution2: "'smcp' Lowercase to Small Capitals lookup 16-1" thorn.smcp
EndChar

StartChar: ugrave
Encoding: 249 249 107
Width: 549
VWidth: 0
Flags: W
HStem: -9 112.5<133.05 300.066> 0 21G<385.461 507.535> 0 21G<385.461 507.535> 511 20G<118.743 261.9 445.747 588.9> 716.15 20G<215.082 345.158>
DStem2: 66.0996 177.5 205.55 175.3 0.156469 0.987683<-38.1813 357.877> 388.75 149.5 504.35 0 0.157247 0.987559<-18.155 386.212>
LayerCount: 2
Fore
SplineSet
215.082 736.15 m 1x18
 333.981 736.15 l 1
 411.382 597.65 l 1
 320.382 597.65 l 1
 215.082 736.15 l 1x18
66.0996 177.5 m 2
 121.9 531 l 1
 261.9 531 l 1
 205.55 175.3 l 2
 196.3 118 218 103.5 253.05 103.5 c 0x98
 309.4 103.5 342.6 118 388.75 149.5 c 1
 448.9 531 l 1
 588.9 531 l 1
 504.35 0 l 1
 391.85 0 l 1x58
 373.8 56.5 l 1
 320.55 19.2998 275.85 -9 194.85 -9 c 0x98
 71.25 -9 49.4502 73.1504 66.0996 177.5 c 2
EndSplineSet
Validated: 524321
AlternateSubs2: "'salt' Access All Alternates in Latin lookup 4-1" ugrave.salt
Substitution2: "'smcp' Lowercase to Small Capitals lookup 16-1" ugrave.smcp
EndChar

StartChar: uacute
Encoding: 250 250 108
Width: 549
VWidth: 0
Flags: W
HStem: -9 112.5<133.05 300.066> 0 21G<385.461 507.535> 0 21G<385.461 507.535> 511 20G<118.743 261.9 445.747 588.9> 716.15 20G<416.722 555.482>
DStem2: 66.0996 177.5 205.55 175.3 0.156469 0.987683<-38.1813 357.877> 388.75 149.5 504.35 0 0.157247 0.987559<-18.155 386.212>
LayerCount: 2
Fore
SplineSet
320.382 597.65 m 1x18
 432.982 736.15 l 1
 555.482 736.15 l 1
 411.382 597.65 l 1
 320.382 597.65 l 1x18
66.0996 177.5 m 2
 121.9 531 l 1
 261.9 531 l 1
 205.55 175.3 l 2
 196.3 118 218 103.5 253.05 103.5 c 0x98
 309.4 103.5 342.6 118 388.75 149.5 c 1
 448.9 531 l 1
 588.9 531 l 1
 504.35 0 l 1
 391.85 0 l 1x58
 373.8 56.5 l 1
 320.55 19.2998 275.85 -9 194.85 -9 c 0x98
 71.25 -9 49.4502 73.1504 66.0996 177.5 c 2
EndSplineSet
Validated: 524321
AlternateSubs2: "'salt' Access All Alternates in Latin lookup 4-1" uacute.salt
Substitution2: "'smcp' Lowercase to Small Capitals lookup 16-1" uacute.smcp
EndChar

StartChar: ucircumflex
Encoding: 251 251 109
Width: 549
VWidth: 0
Flags: W
HStem: -9 112.5<133.05 300.066> 0 21G<385.461 507.535> 0 21G<385.461 507.535> 511 20G<118.743 261.9 445.747 588.9> 713.15 20G<322.037 456.221>
DStem2: 66.0996 177.5 205.55 175.3 0.156469 0.987683<-38.1813 357.877> 388.75 149.5 504.35 0 0.157247 0.987559<-18.155 386.212>
LayerCount: 2
Fore
SplineSet
211.907 597.65 m 1x18
 341.107 733.15 l 1
 445.107 733.15 l 1
 520.407 597.65 l 1
 430.107 597.65 l 1
 387.407 663.05 l 1
 315.007 597.65 l 1
 211.907 597.65 l 1x18
66.0996 177.5 m 2
 121.9 531 l 1
 261.9 531 l 1
 205.55 175.3 l 2
 196.3 118 218 103.5 253.05 103.5 c 0x98
 309.4 103.5 342.6 118 388.75 149.5 c 1
 448.9 531 l 1
 588.9 531 l 1
 504.35 0 l 1
 391.85 0 l 1x58
 373.8 56.5 l 1
 320.55 19.2998 275.85 -9 194.85 -9 c 0x98
 71.25 -9 49.4502 73.1504 66.0996 177.5 c 2
EndSplineSet
Validated: 524321
AlternateSubs2: "'salt' Access All Alternates in Latin lookup 4-1" ucircumflex.salt
Substitution2: "'smcp' Lowercase to Small Capitals lookup 16-1" ucircumflex.smcp
EndChar

StartChar: udieresis
Encoding: 252 252 110
Width: 549
VWidth: 0
Flags: W
HStem: -9 112.5<133.05 300.066> 0 21G<385.461 507.535> 0 21G<385.461 507.535> 511 20G<118.743 261.9 445.747 588.9> 597.65 117.5<208.497 287.273 463.497 542.273>
VStem: 189.044 117.5<617.19 696.157> 444.044 117.5<617.19 696.157>
DStem2: 66.0996 177.5 205.55 175.3 0.156469 0.987683<-38.1813 357.877> 388.75 149.5 504.35 0 0.157247 0.987559<-18.155 386.212>
LayerCount: 2
Fore
SplineSet
444.044 656.9 m 0x1e
 449.144 689.3 479.993 715.15 512.394 715.15 c 0
 544.794 715.15 566.644 689.3 561.544 656.9 c 0
 556.443 624.5 526.044 597.65 493.644 597.65 c 0
 461.243 597.65 438.943 624.5 444.044 656.9 c 0x1e
189.044 656.9 m 0
 194.144 689.3 224.993 715.15 257.394 715.15 c 0
 289.794 715.15 311.644 689.3 306.544 656.9 c 0
 301.443 624.5 271.044 597.65 238.644 597.65 c 0
 206.243 597.65 183.943 624.5 189.044 656.9 c 0
66.0996 177.5 m 2
 121.9 531 l 1
 261.9 531 l 1
 205.55 175.3 l 2
 196.3 118 218 103.5 253.05 103.5 c 0x9e
 309.4 103.5 342.6 118 388.75 149.5 c 1
 448.9 531 l 1
 588.9 531 l 1
 504.35 0 l 1
 391.85 0 l 1x5e
 373.8 56.5 l 1
 320.55 19.2998 275.85 -9 194.85 -9 c 0x9e
 71.25 -9 49.4502 73.1504 66.0996 177.5 c 2
EndSplineSet
Validated: 524321
AlternateSubs2: "'salt' Access All Alternates in Latin lookup 4-1" udieresis.salt
Substitution2: "'smcp' Lowercase to Small Capitals lookup 16-1" udieresis.smcp
EndChar

StartChar: yacute
Encoding: 253 253 111
Width: 563
VWidth: 0
Flags: W
HStem: 511 20G<84.0996 231.087 470.425 608.95> 712.25 20G<410.34 549.1>
VStem: 473.15 129.75<430.288 532.45>
DStem2: 229.3 531 84.0996 531 0.104431 -0.994532<0 412.154> 264.45 0 408.1 0.450195 0.415349 0.909662<-118.418 0 124.558 540.206>
LayerCount: 2
Fore
SplineSet
314 593.75 m 1
 426.6 732.25 l 1
 549.1 732.25 l 1
 405 593.75 l 1
 314 593.75 l 1
84.0996 531 m 1
 229.3 531 l 1
 262.5 159.45 l 2
 266.65 120.35 304.65 121 313.45 120.45 c 1
 447.6 420.55 l 2
 459.4 448.1 467.7 479.5 473.15 532.45 c 1
 602.9 532.45 l 1
 615 475.25 597.8 416.3 579.05 374.85 c 2
 408.1 0.450195 l 2
 303.35 -230.35 172.7 -273.95 91.9502 -288.25 c 1
 91.9502 -189.6 l 1
 181.2 -141.55 227.45 -72.6504 264.45 0 c 1
 188.85 0 135.7 40.7998 125.65 135.3 c 2
 84.0996 531 l 1
EndSplineSet
Validated: 524321
Substitution2: "'smcp' Lowercase to Small Capitals lookup 16-1" yacute.smcp
EndChar

StartChar: ydieresis
Encoding: 255 255 112
Width: 563
VWidth: 0
Flags: W
HStem: 511 20G<84.0996 231.087 470.425 608.95> 582.75 117.5<203.953 282.73 458.953 537.73>
VStem: 184.5 117.5<602.29 681.257> 439.5 117.5<602.29 681.257> 473.15 129.75<430.288 532.45>
DStem2: 229.3 531 84.0996 531 0.104431 -0.994532<0 412.154> 264.45 0 408.1 0.450195 0.415349 0.909662<-118.418 0 124.558 540.206>
LayerCount: 2
Fore
SplineSet
439.5 642 m 0xf0
 444.6 674.4 475.45 700.25 507.85 700.25 c 0
 540.25 700.25 562.1 674.4 557 642 c 0
 551.9 609.6 521.5 582.75 489.1 582.75 c 0
 456.7 582.75 434.4 609.6 439.5 642 c 0xf0
184.5 642 m 0
 189.6 674.4 220.45 700.25 252.85 700.25 c 0
 285.25 700.25 307.1 674.4 302 642 c 0
 296.9 609.6 266.5 582.75 234.1 582.75 c 0
 201.7 582.75 179.4 609.6 184.5 642 c 0
84.0996 531 m 1
 229.3 531 l 1
 262.5 159.45 l 2
 266.65 120.35 304.65 121 313.45 120.45 c 1
 447.6 420.55 l 2
 459.4 448.1 467.7 479.5 473.15 532.45 c 1
 602.9 532.45 l 1xe8
 615 475.25 597.8 416.3 579.05 374.85 c 2
 408.1 0.450195 l 2
 303.35 -230.35 172.7 -273.95 91.9502 -288.25 c 1
 91.9502 -189.6 l 1
 181.2 -141.55 227.45 -72.6504 264.45 0 c 1
 188.85 0 135.7 40.7998 125.65 135.3 c 2
 84.0996 531 l 1
EndSplineSet
Validated: 524321
Substitution2: "'smcp' Lowercase to Small Capitals lookup 16-1" ydieresis.smcp
EndChar

StartChar: Thorn
Encoding: 222 222 113
Width: 545
VWidth: 0
Flags: W
HStem: 0 21G<45.7 188.916> 0 21G<45.7 188.916> 151.25 123.5<229.606 397.59> 464.05 123.95<278.7 420.536>
DStem2: 45.7 0 185.7 0 0.155823 0.987785<21.8153 194.708 300.019 491.619 617.124 738.015>
LayerCount: 2
Fore
SplineSet
229.4 274.75 m 1x30
 332.9 274.75 l 2
 388.5 274.75 412.35 284.15 426.75 374.25 c 0
 439.7 461.25 398 464.05 362.5 464.05 c 2
 259 464.05 l 1
 229.4 274.75 l 1x30
45.7 0 m 1xb0
 83.7 243 122.7 486 160.7 729 c 1
 300.7 729 l 1
 278.7 588 l 1
 426.2 588 l 2
 497.1 588 593.5 547.3 568.2 367.85 c 0
 539.35 161.15 438.85 152.9 359 151.25 c 0
 315.7 150.15 263.05 149.7 213.15 170.7 c 1
 185.7 0 l 1
 45.7 0 l 1xb0
EndSplineSet
Validated: 524321
Substitution2: "'c2sc' Capitals to Small Capitals in Latin lookup 17 subtable" thorn.smcp
EndChar

StartChar: uni00B5
Encoding: 181 181 114
Width: 587
VWidth: 0
Flags: W
HStem: -0.75 104.25<239.947 338.425> 511 20G<149.368 292.55 476.373 619.55>
DStem2: 25.55 -270 165.55 -270 0.156596 0.987663<21.9234 299.233 414.09 811.006> 418.95 149.5 535.55 0 0.156249 0.987718<-18.1346 386.283>
LayerCount: 2
Fore
SplineSet
25.55 -270 m 1
 96.3 177.5 l 1
 152.55 531 l 1
 292.55 531 l 1
 235.75 175.3 l 2
 227.4 122.5 248.2 103.5 283.25 103.5 c 0
 339.6 103.5 372.8 118 418.95 149.5 c 1
 479.55 531 l 1
 619.55 531 l 1
 535.55 0 l 1
 423.05 0 l 1
 404.45 56.5 l 1
 358.35 31.4 319.8 5.85 268.5 -0.75 c 0
 246.25 -3.5 227.05 -1.65 208.9 3.9 c 1
 165.55 -270 l 1
 25.55 -270 l 1
EndSplineSet
Validated: 524321
EndChar

StartChar: germandbls
Encoding: 223 223 115
Width: 572
VWidth: 0
Flags: W
HStem: -8 112.5<256.585 423.578> 0 21G<45.7 188.866> 0 21G<45.7 188.866> 653.5 127.35<322.779 472.482>
DStem2: 45.7 0 185.7 0 0.157038 0.987593<21.9853 648.261>
LayerCount: 2
Fore
SplineSet
45.7 0 m 1x50
 135.7 566 l 2
 153.7 682 230.2 780.85 408.75 780.85 c 0
 696.05 780.85 658.75 541.85 543.35 435.95 c 1
 506.4 404.25 462.25 393.95 455 349.8 c 0
 443.5 281.6 604.4 297.9 584.25 169.9 c 2
 579.45 139.4 l 2
 560.7 18.85 468.3 -8 387.7 -8 c 0
 319.7 -8 276.7 3.15 242.45 11 c 1
 257.5 110.05 l 1
 292.55 107.85 332.6 104.5 370.8 104.5 c 0x90
 402.35 104.5 433.95 120.6 440.85 160.6 c 2
 444.55 180.55 l 1
 455.35 249.9 300.65 226.45 319.25 349.65 c 0
 329.7 419.05 354.05 443.8 429.15 491.3 c 1
 464.4 516.15 480.05 544.35 484.4 575.7 c 0
 493.85 642.5 457.2 653.5 398.5 653.5 c 0
 324.8 653.5 284.35 623.35 267.45 516.5 c 2
 185.7 0 l 1
 45.7 0 l 1x50
EndSplineSet
Validated: 524321
Substitution2: "'smcp' Lowercase to Small Capitals lookup 16-1" germandbls.smcp
EndChar

StartChar: asciitilde
Encoding: 126 126 116
Width: 418
VWidth: 0
Flags: W
HStem: 531 91.6<306.949 416.592> 566 91.6<191.309 303.792>
LayerCount: 2
Fore
SplineSet
130.1 586.3 m 1x80
 167.4 620.95 207.3 657.6 261.95 657.6 c 0x40
 305.95 657.6 321.95 622.6 361.95 622.6 c 1
 401.5 621.5 434.6 642.75 461.95 662.6 c 1
 476.4 603 l 1
 447.6 573.6 403.4 531 351.5 531 c 0x80
 307.6 531 283.2 566 244.2 566 c 0x40
 205.2 566 182 550.5 145.65 531 c 1
 130.1 586.3 l 1x80
EndSplineSet
Validated: 524321
EndChar

StartChar: asciicircum
Encoding: 94 94 117
Width: 384
VWidth: 0
Flags: W
HStem: 531 135.95<234.3 251.1>
VStem: 121.9 308.5
LayerCount: 2
Fore
SplineSet
121.9 531 m 1
 251.1 666.95 l 1
 355.1 666.95 l 1
 430.4 531 l 1
 338.3 531 l 1
 297.85 595.05 l 1
 232.3 531 l 1
 121.9 531 l 1
EndSplineSet
Validated: 524289
EndChar

StartChar: grave
Encoding: 96 96 118
Width: 247
VWidth: 0
Flags: W
HStem: 531 138.5<225.9 239.5>
VStem: 120.6 196.3
LayerCount: 2
Fore
SplineSet
120.6 669.5 m 1
 239.5 669.5 l 1
 316.9 531 l 1
 225.9 531 l 1
 120.6 669.5 l 1
EndSplineSet
Validated: 524289
Substitution2: "'smcp' Lowercase to Small Capitals lookup 16-1" grave.smcp
EndChar

StartChar: dieresis
Encoding: 168 168 119
Width: 447
VWidth: 0
Flags: W
HStem: 522.75 117.5<149.353 228.13 404.353 483.13>
VStem: 129.9 117.5<542.29 621.257> 384.9 117.5<542.29 621.257>
LayerCount: 2
Fore
SplineSet
384.9 582 m 0
 390 614.4 420.85 640.25 453.25 640.25 c 0
 485.65 640.25 507.5 614.4 502.4 582 c 0
 497.3 549.6 466.9 522.75 434.5 522.75 c 0
 402.1 522.75 379.8 549.6 384.9 582 c 0
129.9 582 m 0
 135 614.4 165.85 640.25 198.25 640.25 c 0
 230.65 640.25 252.5 614.4 247.4 582 c 0
 242.3 549.6 211.9 522.75 179.5 522.75 c 0
 147.1 522.75 124.8 549.6 129.9 582 c 0
EndSplineSet
Validated: 524321
Substitution2: "'smcp' Lowercase to Small Capitals lookup 16-1" dieresis.smcp
EndChar

StartChar: acute
Encoding: 180 180 120
Width: 243
VWidth: 0
Flags: W
HStem: 531 138.5
VStem: 99.05 235.1
LayerCount: 2
Fore
SplineSet
99.05 531 m 1
 211.65 669.5 l 1
 334.15 669.5 l 1
 190.05 531 l 1
 99.05 531 l 1
EndSplineSet
Validated: 524289
Substitution2: "'smcp' Lowercase to Small Capitals lookup 16-1" acute.smcp
EndChar

StartChar: cedilla
Encoding: 184 184 121
Width: 243
VWidth: 0
Flags: W
HStem: -178.5 60.1<19.75 41.31>
VStem: 106.45 94.5<-91.6128 -37>
LayerCount: 2
Fore
SplineSet
9.9 -178.5 m 1
 19.75 -118.4 l 1
 65.95 -103.4 l 1
 95.95 -91.4 100.45 -75 106.45 -37 c 1
 200.95 -37 l 1
 184.95 -139 153 -178.5 66.4 -178.5 c 2
 9.9 -178.5 l 1
EndSplineSet
Validated: 524289
EndChar

StartChar: exclam
Encoding: 33 33 122
Width: 271
VWidth: 0
Flags: W
HStem: 0 138<85.0071 204.082> 711 20G<175.418 319.35>
VStem: 69.6 249.75
DStem2: 84.1 113 219.1 113 0.150374 0.988629<-97.286 28.3344 104.369 625.108>
LayerCount: 2
Fore
SplineSet
106.6 197.8 m 1
 178.1 731 l 1
 319.35 731 l 1
 220.65 197.8 l 1
 106.6 197.8 l 1
69.6 23 m 2
 84.1 113 l 2
 86.1 128 96.1 138 112.1 138 c 2
 200.1 138 l 2
 215.1 138 221.1 127 219.1 113 c 2
 204.6 23 l 2
 202.6 8 192.6 0 178.6 0 c 2
 90.6 0 l 2
 76.6 0 67.6 9 69.6 23 c 2
EndSplineSet
Validated: 524321
Substitution2: "'smcp' Lowercase to Small Capitals lookup 16-1" exclam.smcp
EndChar

StartChar: degree
Encoding: 176 176 123
Width: 275
VWidth: 0
Flags: W
HStem: 532.75 55.7<198.582 274.04> 676.55 56.25<201.675 275.459>
VStem: 135.9 57.45<594.707 667.191> 281.45 57.45<596.999 671.657>
LayerCount: 2
Fore
SplineSet
193.35 632 m 0
 192.25 607.5 211.75 588.45 236.25 588.45 c 0
 260.75 588.45 280.35 607.5 281.45 632 c 0
 282.55 656.5 264.6 676.55 240.1 676.55 c 0
 215.6 676.55 194.45 656.5 193.35 632 c 0
135.9 632 m 0
 138.65 689 186.3 732.8 242.3 732.8 c 0
 298.3 732.8 341.65 689 338.9 632 c 0
 336.15 575 289.5 532.75 233.5 532.75 c 0
 177.5 532.75 133.15 575 135.9 632 c 0
EndSplineSet
Validated: 524321
Substitution2: "'smcp' Lowercase to Small Capitals lookup 16-1" degree.smcp
EndChar

StartChar: period
Encoding: 46 46 124
Width: 262
VWidth: 0
Flags: W
HStem: 0 138<83.0571 202.343>
VStem: 67.65 149.5
LayerCount: 2
Fore
SplineSet
67.65 23 m 2
 82.15 113 l 2
 84.15 128 94.15 138 110.15 138 c 2
 196.15 138 l 2
 214.15 138 220.15 129 217.15 113 c 2
 202.65 23 l 2
 199.65 5 188.65 0 174.65 0 c 2
 88.65 0 l 2
 74.65 0 65.65 9 67.65 23 c 2
EndSplineSet
Validated: 524321
EndChar

StartChar: periodcentered
Encoding: 183 183 125
Width: 262
VWidth: 0
Flags: W
HStem: 316.7 138<132.857 252.143>
VStem: 117.45 149.5
LayerCount: 2
Fore
SplineSet
117.45 339.7 m 2
 131.95 429.7 l 2
 133.95 444.7 143.95 454.7 159.95 454.7 c 2
 245.95 454.7 l 2
 263.95 454.7 269.95 445.7 266.95 429.7 c 2
 252.45 339.7 l 2
 249.45 321.7 238.45 316.7 224.45 316.7 c 2
 138.45 316.7 l 2
 124.45 316.7 115.45 325.7 117.45 339.7 c 2
EndSplineSet
Validated: 524321
Substitution2: "'smcp' Lowercase to Small Capitals lookup 16-1" periodcentered.smcp
EndChar

StartChar: comma
Encoding: 44 44 126
Width: 260
VWidth: 0
Flags: W
HStem: -88 48.5<63.4 95.2667>
VStem: 55.65 159.5
LayerCount: 2
Fore
SplineSet
55.65 -88 m 1
 63.4 -39.5 l 1
 93.4 -40.5 96.3 -24.45 98.3 -14 c 2
 100.65 0 l 1
 89.65 0 l 2
 75.65 0 65.65 8 68.65 25 c 2
 82.15 112 l 2
 85.15 130 95.6 139 111.6 139 c 2
 195.6 139 l 2
 213.6 139 217.15 127 215.15 112 c 2
 195.65 -11 l 2
 177.9 -121.95 55.65 -88 55.65 -88 c 1
EndSplineSet
Validated: 524321
EndChar

StartChar: bullet
Encoding: 256 8226 127
Width: 307
VWidth: 0
Flags: W
HStem: 289.75 185.5<137.847 292.468>
VStem: 115.35 198.55
LayerCount: 2
Fore
SplineSet
115.35 321.75 m 2
 133.4 440.25 l 2
 136.4 461.25 150.4 475.25 172.4 475.25 c 2
 284.9 475.25 l 2
 309.9 475.25 316.9 462.25 313.9 440.25 c 2
 295.85 321.75 l 2
 291.85 297.75 274.85 289.75 254.85 289.75 c 2
 142.35 289.75 l 2
 122.35 289.75 112.35 301.75 115.35 321.75 c 2
EndSplineSet
Validated: 524321
Substitution2: "'smcp' Lowercase to Small Capitals lookup 16-1" bullet.smcp
EndChar

StartChar: quoteleft
Encoding: 257 8216 128
Width: 258
VWidth: 0
Flags: W
HStem: 680.15 55.35<268.611 300.95>
VStem: 142.15 168.1
LayerCount: 2
Fore
SplineSet
142.15 511.8 m 2
 162.65 644.35 l 2
 181.85 763.75 310.25 735.5 310.25 735.5 c 1
 300.95 680.15 l 1
 269.6 680.6 265.15 658.7 263.15 647.8 c 2
 260.25 626.95 l 1
 271.7 626.95 l 2
 286.15 626.95 296.6 618.95 293.6 601.05 c 2
 279.65 511.8 l 2
 276.65 492.9 265.2 483.45 248.3 483.45 c 2
 162.05 483.45 l 2
 143.15 483.45 139.7 496.35 142.15 511.8 c 2
EndSplineSet
Validated: 524321
Substitution2: "'smcp' Lowercase to Small Capitals lookup 16-1" quoteleft.smcp
EndChar

StartChar: quoteright
Encoding: 258 8217 129
Width: 258
VWidth: 0
Flags: W
HStem: 486.1 55.8<151.9 184.473>
VStem: 143.15 168.1
LayerCount: 2
Fore
SplineSet
143.15 486.1 m 1
 151.9 541.9 l 1
 183.25 541.45 187.25 563.35 189.25 574.25 c 2
 192.7 594.65 l 1
 181.25 594.65 l 2
 166.8 594.65 156.35 603.1 159.35 621 c 2
 173.75 710.25 l 2
 176.75 729.15 187.2 738.6 204.1 738.6 c 2
 290.35 738.6 l 2
 309.25 738.6 313.7 725.7 311.25 710.25 c 2
 289.75 577.7 l 2
 270.55 458.3 143.15 486.1 143.15 486.1 c 1
EndSplineSet
Validated: 524321
Substitution2: "'smcp' Lowercase to Small Capitals lookup 16-1" quoteright.smcp
EndChar

StartChar: quotesinglbase
Encoding: 259 8218 130
Width: 258
VWidth: 0
Flags: W
HStem: -109 55.35<57.3 89.8727>
VStem: 48.55 168.1
LayerCount: 2
Fore
SplineSet
48.55 -109 m 1
 57.3 -53.65 l 1
 88.65 -54.1 92.65 -31.75 94.65 -20.85 c 2
 98.1 -0.45 l 1
 86.65 -0.45 l 2
 72.2 -0.45 61.75 8 64.75 25.9 c 2
 79.15 115.15 l 2
 82.15 134.05 92.6 143.5 109.5 143.5 c 2
 195.75 143.5 l 2
 214.65 143.5 219.1 130.6 216.65 115.15 c 2
 195.15 -17.4 l 2
 175.95 -136.8 48.55 -109 48.55 -109 c 1
EndSplineSet
Validated: 524321
Substitution2: "'smcp' Lowercase to Small Capitals lookup 16-1" quotesinglbase.smcp
EndChar

StartChar: quotedblleft
Encoding: 260 8220 131
Width: 423
VWidth: 0
Flags: W
HStem: 679.05 55.35<262.577 295.6 439.627 472.65>
LayerCount: 2
Fore
SplineSet
313.85 510.7 m 2
 334.35 643.25 l 2
 353.55 762.65 480.95 734.4 480.95 734.4 c 1
 472.65 679.05 l 1
 441.3 679.5 436.85 657.6 434.85 646.7 c 2
 431.95 625.85 l 1
 443.4 625.85 l 2
 457.85 625.85 468.3 617.85 465.3 599.95 c 2
 451.35 510.7 l 2
 448.35 491.8 436.9 482.35 420 482.35 c 2
 333.75 482.35 l 2
 314.85 482.35 311.4 495.25 313.85 510.7 c 2
136.8 510.7 m 2
 157.3 643.25 l 2
 176.5 762.65 303.9 734.4 303.9 734.4 c 1
 295.6 679.05 l 1
 264.25 679.5 259.8 657.6 257.8 646.7 c 2
 254.9 625.85 l 1
 266.35 625.85 l 2
 280.8 625.85 291.25 617.85 288.25 599.95 c 2
 274.3 510.7 l 2
 271.3 491.8 259.85 482.35 242.95 482.35 c 2
 156.7 482.35 l 2
 137.8 482.35 134.35 495.25 136.8 510.7 c 2
EndSplineSet
Validated: 524321
Substitution2: "'smcp' Lowercase to Small Capitals lookup 16-1" quotedblleft.smcp
EndChar

StartChar: quotedblright
Encoding: 261 8221 132
Width: 424
VWidth: 0
Flags: W
HStem: 485 55.8<146.1 178.673 323.15 355.723> 717.5 20G<189.85 294 366.9 471.05>
LayerCount: 2
Fore
SplineSet
314.4 485 m 1
 323.15 540.8 l 1
 354.5 540.35 358.5 562.25 360.5 573.15 c 2
 363.95 593.55 l 1
 352.5 593.55 l 2
 338.05 593.55 327.6 602 330.6 619.9 c 2
 345 709.15 l 2
 348 728.05 358.45 737.5 375.35 737.5 c 2
 461.6 737.5 l 2
 480.5 737.5 484.95 724.6 482.5 709.15 c 2
 461 576.6 l 2
 441.8 457.2 314.4 485 314.4 485 c 1
137.35 485 m 1
 146.1 540.8 l 1
 177.45 540.35 181.45 562.25 183.45 573.15 c 2
 186.9 593.55 l 1
 175.45 593.55 l 2
 161 593.55 150.55 602 153.55 619.9 c 2
 167.95 709.15 l 2
 170.95 728.05 181.4 737.5 198.3 737.5 c 2
 284.55 737.5 l 2
 303.45 737.5 307.9 724.6 305.45 709.15 c 2
 283.95 576.6 l 2
 264.75 457.2 137.35 485 137.35 485 c 1
EndSplineSet
Validated: 524321
Substitution2: "'smcp' Lowercase to Small Capitals lookup 16-1" quotedblright.smcp
EndChar

StartChar: quotedblbase
Encoding: 262 8222 133
Width: 423
VWidth: 0
Flags: W
HStem: -108.55 55.35<51.5 84.0727 228.55 261.123>
LayerCount: 2
Fore
SplineSet
219.8 -108.55 m 1
 228.55 -53.2 l 1
 259.9 -53.65 263.9 -31.3 265.9 -20.4 c 2
 269.35 0 l 1
 257.9 0 l 2
 243.45 0 233 8.45 236 26.35 c 2
 250.4 115.6 l 2
 253.4 134.5 263.85 143.95 280.75 143.95 c 2
 367 143.95 l 2
 385.9 143.95 390.35 131.05 387.9 115.6 c 2
 366.4 -16.95 l 2
 347.2 -136.35 219.8 -108.55 219.8 -108.55 c 1
42.75 -108.55 m 1
 51.5 -53.2 l 1
 82.85 -53.65 86.85 -31.3 88.85 -20.4 c 2
 92.3 0 l 1
 80.85 0 l 2
 66.4 0 55.95 8.45 58.95 26.35 c 2
 73.35 115.6 l 2
 76.35 134.5 86.8 143.95 103.7 143.95 c 2
 189.95 143.95 l 2
 208.85 143.95 213.3 131.05 210.85 115.6 c 2
 189.35 -16.95 l 2
 170.15 -136.35 42.75 -108.55 42.75 -108.55 c 1
EndSplineSet
Validated: 524321
Substitution2: "'smcp' Lowercase to Small Capitals lookup 16-1" quotedblbase.smcp
EndChar

StartChar: colon
Encoding: 58 58 134
Width: 263
VWidth: 0
Flags: W
HStem: 0 138<83.0571 202.343> 393.45 138<145.715 264.82>
VStem: 67.65 211.45
DStem2: 82.15 113 217.15 113 0.157289 0.987553<-96.1446 28.2426 302.236 427.064>
LayerCount: 2
Fore
SplineSet
130.15 416.45 m 2
 144.65 506.45 l 2
 146.65 521.45 156.65 531.45 172.65 531.45 c 2
 258.65 531.45 l 2
 276.65 531.45 282.1 522.45 279.1 506.45 c 2
 265.15 416.45 l 2
 262.15 398.45 250.7 393.45 236.7 393.45 c 2
 150.7 393.45 l 2
 136.7 393.45 128.15 402.45 130.15 416.45 c 2
67.65 23 m 2
 82.15 113 l 2
 84.15 128 94.15 138 110.15 138 c 2
 196.15 138 l 2
 214.15 138 220.15 129 217.15 113 c 2
 202.65 23 l 2
 199.65 5 188.65 0 174.65 0 c 2
 88.65 0 l 2
 74.65 0 65.65 9 67.65 23 c 2
EndSplineSet
Validated: 524321
EndChar

StartChar: semicolon
Encoding: 59 59 135
Width: 263
VWidth: 0
Flags: W
HStem: -88 48.5<63.4 95.2667> 393.9 138<146.487 265.743>
VStem: 55.65 224.9
DStem2: 68.65 25 195.65 -11 0.149421 0.988774<-67.2983 -59.827 -19.8632 118.361 389.669 515.164>
LayerCount: 2
Fore
SplineSet
131.6 416.9 m 2
 145.55 506.9 l 2
 147.55 521.9 157.55 531.9 173.55 531.9 c 2
 259.55 531.9 l 2
 277.55 531.9 283.55 522.9 280.55 506.9 c 2
 266.6 416.9 l 2
 263.6 398.9 252.05 393.9 238.05 393.9 c 2
 152.05 393.9 l 2
 138.05 393.9 129.6 402.9 131.6 416.9 c 2
55.65 -88 m 1
 63.4 -39.5 l 1
 93.4 -40.5 96.3 -24.45 98.3 -14 c 2
 100.65 0 l 1
 89.65 0 l 2
 75.65 0 66.1 10.25 68.65 25 c 2
 82.15 112 l 2
 84.7 128.2 96.05 139 111.6 139 c 2
 195.6 139 l 2
 212.25 139 217.15 127 215.15 112 c 2
 195.65 -11 l 2
 177.9 -121.95 55.65 -88 55.65 -88 c 1
EndSplineSet
Validated: 524321
EndChar

StartChar: quotedbl
Encoding: 34 34 136
Width: 444
VWidth: 0
Flags: W
HStem: 531 201<180.65 273.6 361.3 454.25>
LayerCount: 2
Fore
SplineSet
339.75 531 m 1
 350.3 665 l 1
 361.3 732 l 1
 496.25 732 l 1
 485.25 665 l 1
 454.25 531 l 1
 339.75 531 l 1
160.2 531 m 1
 169.65 665 l 1
 180.65 732 l 1
 315.6 732 l 1
 304.6 665 l 1
 273.6 531 l 1
 160.2 531 l 1
EndSplineSet
Validated: 524289
Substitution2: "'smcp' Lowercase to Small Capitals lookup 16-1" quotedbl.smcp
EndChar

StartChar: exclamdown
Encoding: 161 161 137
Width: 276
VWidth: 0
Flags: W
HStem: 324.8 136.65<140.68 258.26>
VStem: 22.45 250.45
DStem2: 140.15 438.45 272.9 435.45 0.163992 0.986462<-403.228 -175.254 -96.4474 26.7722>
LayerCount: 2
Fore
SplineSet
126.65 350.9 m 2
 140.15 438.45 l 2
 142.15 452.45 154.15 460.45 168.15 461.45 c 1
 252.9 461.45 l 1
 264.9 460.45 274.9 449.45 272.9 435.45 c 2
 259.4 350.9 l 2
 256.95 338.35 249.95 326.6 234.3 324.8 c 1
 145.3 324.8 l 2
 132.3 325.25 124.55 334.15 126.65 350.9 c 2
22.45 -269.55 m 1
 122.95 263.65 l 1
 237.55 263.65 l 1
 168.4 -269.55 l 1
 22.45 -269.55 l 1
EndSplineSet
Validated: 524321
Substitution2: "'case' Case-Sensitive Forms lookup 1-1" exclamdown.alt
Substitution2: "'smcp' Lowercase to Small Capitals lookup 16-1" exclamdown.smcp
EndChar

StartChar: zero
Encoding: 48 48 138
Width: 629
VWidth: 0
Flags: W
HStem: 0 129<230.953 446.196> 603 129<299.357 516.999>
DStem2: 80.15 178.5 224 201.05 0.157548 0.987511<-11.1701 438.633> 468.45 200.5 605.15 178.5 0.156706 0.987645<-62.054 392.201>
LayerCount: 2
Fore
SplineSet
224 201.05 m 2
 212.75 129.3 253.95 129 287.65 129 c 2
 384.55 129 l 2
 431.5 129 459.45 146.5 468.45 200.5 c 2
 521.35 531.5 l 2
 529.25 582.45 512.5 603 464.35 603 c 2
 359.2 603 l 2
 295.05 603 280.6 559.35 276.35 531.5 c 2
 224 201.05 l 2
80.15 178.5 m 2
 139.1 548 l 2
 158.75 671.25 223.25 732 341.05 732 c 2
 505.05 732 l 2
 639.25 732 679.3 644.05 664.65 553.5 c 2
 605.15 178.5 l 2
 586.15 59.5 525.1 0 410.5 0 c 2
 246.5 0 l 2
 134.05 0 61.15 58.5 80.15 178.5 c 2
EndSplineSet
Validated: 524321
Substitution2: "'dnom' Denominators lookup 0 subtable" zero.denominator
Substitution2: "'sups' Superscript lookup 2 subtable" zerosuperior
Substitution2: "'onum' Oldstyle Figures in Latin lookup 5-1" zero.oldstyle
Substitution2: "'tnum' Tabular Numbers in Latin lookup 7-1" zero.tnum
Substitution2: "'numr' Numerators lookup 9 subtable" zero.numerator
Substitution2: "'zero' Slashed Zero lookup 20-1" uni0338
Substitution2: "'sinf' Scientific Inferiors lookup 3-1" zeroinferior
Substitution2: "'frac' Diagonal Fractions lookup 13-1" zero.numerator
Substitution2: "'smcp' Lowercase to Small Capitals lookup 16-1" zero.smcp
EndChar

StartChar: one
Encoding: 49 49 139
Width: 370
VWidth: 0
Flags: W
HStem: 0 21G<170.05 313.195> 0 21G<170.05 313.195> 557.7 91.5<132.1 199.65> 712 20G<273.95 425.15>
VStem: 118.05 307.1
DStem2: 170.05 0 310.05 0 0.155332 0.987862<21.7465 595.475>
LayerCount: 2
Fore
SplineSet
118.05 557.7 m 1xb8
 132.1 649.2 l 1
 177.1 649.2 260.75 701.75 287.15 732 c 1
 425.15 732 l 1
 310.05 0 l 1
 170.05 0 l 1
 263.8 588.05 l 1
 230.7 564.9 161.25 557.7 118.05 557.7 c 1xb8
EndSplineSet
Validated: 8912897
Substitution2: "'dnom' Denominators lookup 0 subtable" one.denominator
Substitution2: "'sups' Superscript lookup 2 subtable" onesuperior
Substitution2: "'onum' Oldstyle Figures in Latin lookup 5-1" one.oldstyle
Substitution2: "'tnum' Tabular Numbers in Latin lookup 7-1" one.tnum
Substitution2: "'numr' Numerators lookup 9 subtable" one.numerator
Substitution2: "'sinf' Scientific Inferiors lookup 3-1" oneinferior
Substitution2: "'frac' Diagonal Fractions lookup 13-1" one.numerator
Substitution2: "'smcp' Lowercase to Small Capitals lookup 16-1" one.smcp
EndChar

StartChar: two
Encoding: 50 50 140
Width: 586
VWidth: 0
Flags: W
HStem: 0 129<301.45 549.15> 612 130<165.814 473.56> 612 104.5<144.1 323.94>
LayerCount: 2
Fore
SplineSet
37.65 0 m 1xc0
 57.45 123 l 1
 168.95 190.95 474.35 398.8 492.65 514.75 c 0
 503.55 584.3 472.8 612 386.4 612 c 2xc0
 127.4 612 l 1
 144.1 716.5 l 1xa0
 237.65 732.25 318 742 447.15 742 c 0
 593.7 742 648.7 627.55 632.1 502.85 c 1
 612.35 342.8 380.1 185.45 301.45 129 c 1
 569.95 129 l 1
 549.15 0 l 1
 37.65 0 l 1xc0
EndSplineSet
Validated: 8912929
Substitution2: "'dnom' Denominators lookup 0 subtable" two.denominator
Substitution2: "'sups' Superscript lookup 2 subtable" twosuperior
Substitution2: "'onum' Oldstyle Figures in Latin lookup 5-1" two.oldstyle
Substitution2: "'tnum' Tabular Numbers in Latin lookup 7-1" two.tnum
Substitution2: "'numr' Numerators lookup 9 subtable" two.numerator
Substitution2: "'sinf' Scientific Inferiors lookup 3-1" twoinferior
Substitution2: "'frac' Diagonal Fractions lookup 13-1" two.numerator
Substitution2: "'smcp' Lowercase to Small Capitals lookup 16-1" two.smcp
EndChar

StartChar: three
Encoding: 51 51 141
Width: 583
VWidth: 0
Flags: W
HStem: -7 130<51.7779 391.986> 21 102<48.65 130.581> 307.15 113<157.25 309.561> 605 129<169.868 464.468>
DStem2: 416.3 191.25 553.9 161 0.157841 0.987465<-54.3741 89.4212 254.657 397.859>
LayerCount: 2
Fore
SplineSet
31.85 21 m 1x70
 48.65 123 l 1x70
 302.65 123 l 2
 367.15 123 407.5 135.25 416.3 191.25 c 2
 421.35 223.3 l 2
 432.4 293.6 395.4 295.95 336.45 299.05 c 2
 138.45 307.15 l 1
 157.25 420.15 l 1
 357.25 429.05 l 2
 426.25 432.05 459 447.8 467.35 500.55 c 2
 472.85 536 l 2
 483.2 598.25 437.05 605 385.05 605 c 2
 118.05 605 l 1
 133.85 706 l 1
 226.85 737 345.35 736 462.35 734 c 0
 566.05 732 632.8 655.2 615.6 547 c 2
 606.8 494.5 l 2
 594.35 417.9 559.35 373.9 508.35 364 c 1
 560.2 345.2 573.15 279.5 561.15 203.5 c 2
 553.9 161 l 1
 535.8 45.4 460.35 -7 338.35 -7 c 0xb0
 224.35 -7 114.85 -10 31.85 21 c 1x70
EndSplineSet
Validated: 8912929
Substitution2: "'dnom' Denominators lookup 0 subtable" three.denominator
Substitution2: "'sups' Superscript lookup 2 subtable" threesuperior
Substitution2: "'onum' Oldstyle Figures in Latin lookup 5-1" three.oldstyle
Substitution2: "'tnum' Tabular Numbers in Latin lookup 7-1" three.tnum
Substitution2: "'numr' Numerators lookup 9 subtable" three.numerator
Substitution2: "'sinf' Scientific Inferiors lookup 3-1" threeinferior
Substitution2: "'frac' Diagonal Fractions lookup 13-1" three.numerator
Substitution2: "'smcp' Lowercase to Small Capitals lookup 16-1" three.smcp
EndChar

StartChar: four
Encoding: 52 52 142
Width: 620
VWidth: 0
Flags: W
HStem: 159.5 133<258.55 415.3> 516 20G<496.197 616.4> 712 20G<377.144 546.8>
DStem2: 50.05 224 258.55 292.5 0.556774 0.830664<172.988 611.559> 390.7 2 532.05 2 0.156024 0.987753<22.054 159.409 316.08 463.037>
LayerCount: 2
Fore
SplineSet
50.05 224 m 1
 390.55 732 l 1
 546.8 732 l 1
 258.55 292.5 l 1
 436.1 292.5 l 1
 463.05 459.35 l 1
 507.9 536 l 1
 616.4 536 l 1
 577.45 292.5 l 1
 650.95 292.5 l 1
 634.25 184 l 1
 556.65 159.5 l 1
 532.05 2 l 1
 390.7 2 l 1
 415.3 159.5 l 1
 73.65 159.5 l 1
 50.05 224 l 1
EndSplineSet
Validated: 524289
Substitution2: "'dnom' Denominators lookup 0 subtable" four.denominator
Substitution2: "'sups' Superscript lookup 2 subtable" foursuperior
Substitution2: "'onum' Oldstyle Figures in Latin lookup 5-1" four.oldstyle
Substitution2: "'tnum' Tabular Numbers in Latin lookup 7-1" four.tnum
Substitution2: "'numr' Numerators lookup 9 subtable" four.numerator
Substitution2: "'sinf' Scientific Inferiors lookup 3-1" fourinferior
Substitution2: "'frac' Diagonal Fractions lookup 13-1" four.numerator
Substitution2: "'smcp' Lowercase to Small Capitals lookup 16-1" four.smcp
EndChar

StartChar: five
Encoding: 53 53 143
Width: 596
VWidth: 0
Flags: W
HStem: -4.45 134<78.65 419.57> 19.55 110<78.65 232.212> 339 123.95<283.776 448.894> 603 129<311.95 621.05>
LayerCount: 2
Fore
SplineSet
60.85 19.55 m 1x70
 78.65 129.55 l 1
 360.65 129.55 l 2
 425.8 129.55 439.5 172.45 443.85 200.55 c 2
 454.25 265.3 l 2
 459.25 296.5 459 339 399.4 339 c 2
 307.25 339 l 2
 272.1 339 243.25 321.85 236.45 280.5 c 1
 103.1 280.5 l 1
 196.85 732 l 1
 641.85 732 l 1
 621.05 603 l 1
 311.95 603 l 1
 278 438 l 1
 302.05 455.35 332.2 461.05 356 462.95 c 0
 393.7 466.3 439.15 463.05 459.35 462.5 c 0
 563.55 457 610.35 375.55 595.9 272.25 c 2
 580 160.05 l 1
 558 23.05 461.65 -4 366.35 -4.45 c 0xb0
 241.45 -4.9 190.85 -3.45 60.85 19.55 c 1x70
EndSplineSet
Validated: 8912929
Substitution2: "'dnom' Denominators lookup 0 subtable" five.denominator
Substitution2: "'sups' Superscript lookup 2 subtable" fivesuperior
Substitution2: "'onum' Oldstyle Figures in Latin lookup 5-1" five.oldstyle
Substitution2: "'tnum' Tabular Numbers in Latin lookup 7-1" five.tnum
Substitution2: "'numr' Numerators lookup 9 subtable" five.numerator
Substitution2: "'sinf' Scientific Inferiors lookup 3-1" fiveinferior
Substitution2: "'frac' Diagonal Fractions lookup 13-1" five.numerator
Substitution2: "'smcp' Lowercase to Small Capitals lookup 16-1" five.smcp
EndChar

StartChar: six
Encoding: 54 54 144
Width: 608
VWidth: 0
Flags: W
HStem: -0.55 127.65<252.046 438.817> 321 123.5<259.869 468.668> 609 106.15<464.83 636.5>
LayerCount: 2
Fore
SplineSet
240.3 321 m 1
 222.85 211.4 223.7 127.1 304.45 127.1 c 2
 383.6 127.1 l 2
 416.6 127.1 449.2 137.45 457.45 189.75 c 2
 468.2 257 l 2
 476.55 308.1 466.2 321 417.5 321 c 2
 240.3 321 l 1
109.7 395 m 0
 151.7 660 250.85 727.55 338.25 735.25 c 0
 440.35 744.05 565.45 732 653.2 715.15 c 1
 636.5 609 l 1
 386 609 l 2
 297.25 609 270.35 501.45 257 423.5 c 1
 318.15 438.45 383 444.05 462.5 444.5 c 0
 603.55 445.4 620.6 347.65 607.2 262.5 c 2
 589.95 148 l 1
 570.3 26.1 492.9 -0.55 386.8 -0.55 c 2
 244.75 -0.55 l 2
 134.9 -0.55 59.7 80 109.7 395 c 0
EndSplineSet
Validated: 524321
Substitution2: "'dnom' Denominators lookup 0 subtable" six.denominator
Substitution2: "'sups' Superscript lookup 2 subtable" sixsuperior
Substitution2: "'onum' Oldstyle Figures in Latin lookup 5-1" six.oldstyle
Substitution2: "'tnum' Tabular Numbers in Latin lookup 7-1" six.tnum
Substitution2: "'numr' Numerators lookup 9 subtable" six.numerator
Substitution2: "'sinf' Scientific Inferiors lookup 3-1" sixinferior
Substitution2: "'frac' Diagonal Fractions lookup 13-1" six.numerator
Substitution2: "'smcp' Lowercase to Small Capitals lookup 16-1" six.smcp
EndChar

StartChar: seven
Encoding: 55 55 145
Width: 554
VWidth: 0
Flags: W
HStem: 0 21G<133.85 297.25> 0 21G<133.85 297.25> 603 129<138.85 454.05>
DStem2: 133.85 0 286.75 0 0.464847 0.885391<71.0751 682.735>
LayerCount: 2
Fore
SplineSet
118.05 603 m 1xa0
 138.85 732 l 1
 609.95 732 l 1
 637.2 667.5 l 1
 286.75 0 l 1
 133.85 0 l 1
 454.05 603 l 1
 118.05 603 l 1xa0
EndSplineSet
Validated: 8912897
Substitution2: "'dnom' Denominators lookup 0 subtable" seven.denominator
Substitution2: "'sups' Superscript lookup 2 subtable" sevensuperior
Substitution2: "'onum' Oldstyle Figures in Latin lookup 5-1" seven.oldstyle
Substitution2: "'tnum' Tabular Numbers in Latin lookup 7-1" seven.tnum
Substitution2: "'numr' Numerators lookup 9 subtable" seven.numerator
Substitution2: "'sinf' Scientific Inferiors lookup 3-1" seveninferior
Substitution2: "'frac' Diagonal Fractions lookup 13-1" seven.numerator
Substitution2: "'smcp' Lowercase to Small Capitals lookup 16-1" seven.smcp
EndChar

StartChar: percent
Encoding: 37 37 146
Width: 964
VWidth: 0
Flags: W
HStem: 1.65 98<689.633 850.476> 286.65 98<711.675 874.263> 349 98<207.153 371.233> 634 98<232.632 394.779>
DStem2: 106.75 487.75 207.5 496 0.156648 0.987654<-15.5891 163.439> 206.3 0 310.3 0 0.609522 0.792769<63.3903 923.346> 379.5 496 474.75 472.9 0.156648 0.987654<-46.4496 131.735> 586.85 137.65 687.05 148.65 0.152301 0.988334<-15.5637 163.893> 859.05 148.65 955.4 123.9 0.147944 0.988996<-48.5246 133.116>
LayerCount: 2
Fore
SplineSet
687.05 148.65 m 2xd0
 681.8 114.5 688.2 99.65 727.5 99.65 c 2
 800.45 99.65 l 2
 843.9 99.65 853.8 114.95 859.05 148.65 c 2
 872.9 237.65 l 2
 879.25 277.85 870.95 286.65 832 286.65 c 2
 759.05 286.65 l 2
 720.85 286.65 706.8 276.6 700.9 237.65 c 2
 687.05 148.65 l 2xd0
586.85 137.65 m 2
 605.65 259.65 l 2
 618.65 343.75 654.65 384.65 760.15 384.65 c 2
 861.7 384.65 l 2
 954.3 384.65 986.55 333.6 973.65 245.9 c 2
 955.4 123.9 l 2
 941.5 35.3 901.6 1.65 799.25 1.65 c 2
 697.7 1.65 l 2
 610.05 1.65 573.85 53.1 586.85 137.65 c 2
206.3 0 m 1
 769.1 732 l 1
 869.25 732 l 1
 310.3 0 l 1
 206.3 0 l 1
207.5 496 m 2
 202.25 461.85 208.55 447 247.85 447 c 2
 321.35 447 l 2xb0
 364.8 447 374.25 462.3 379.5 496 c 2
 393.35 585 l 2
 399.7 625.2 391.85 634 352.9 634 c 2
 279.4 634 l 2
 241.2 634 227.25 623.95 221.35 585 c 2
 207.5 496 l 2
106.75 487.75 m 2
 126.1 609.75 l 2
 139.1 693.85 175.65 732 281.15 732 c 2
 382.15 732 l 2
 474.75 732 507.55 682.6 494.1 594.9 c 2
 474.75 472.9 l 2
 460.85 384.3 422.5 349 320.15 349 c 2
 219.15 349 l 2
 131.5 349 93.75 403.2 106.75 487.75 c 2
EndSplineSet
Validated: 524321
Substitution2: "'smcp' Lowercase to Small Capitals lookup 16-1" percent.smcp
EndChar

StartChar: nine
Encoding: 57 57 147
Width: 607
VWidth: 0
Flags: W
HStem: 19.55 106.15<88.95 247.547> 290.2 123.5<257.158 466.13> 607.6 127.65<285.579 472.97>
LayerCount: 2
Fore
SplineSet
257.8 477.7 m 2
 249.45 426.6 259.25 413.7 307.95 413.7 c 2
 485.15 413.7 l 1
 502.6 523.3 501.2 607.6 420.45 607.6 c 2
 341.85 607.6 l 2
 308.85 607.6 276.25 597.25 268 544.95 c 2
 257.8 477.7 l 2
72.25 19.55 m 1
 88.95 125.7 l 1
 339.45 125.7 l 2
 428.2 125.7 455.65 233.25 469 311.2 c 1
 407.85 296.25 342.45 290.65 262.95 290.2 c 0
 121.9 289.3 105.95 392.55 119.35 477.7 c 2
 135.5 581.2 l 2
 154.6 703.1 231.45 735.25 337.55 735.25 c 2
 479.6 735.25 l 2
 592.75 735.25 665.2 643.7 615.2 328.7 c 0
 573.2 63.7 475.15 7.15 387.75 -0.55 c 0
 285.65 -9.35 166.75 0 72.25 19.55 c 1
EndSplineSet
Validated: 524321
Substitution2: "'dnom' Denominators lookup 0 subtable" nine.denominator
Substitution2: "'sups' Superscript lookup 2 subtable" ninesuperior
Substitution2: "'onum' Oldstyle Figures in Latin lookup 5-1" nine.oldstyle
Substitution2: "'tnum' Tabular Numbers in Latin lookup 7-1" nine.tnum
Substitution2: "'numr' Numerators lookup 9 subtable" nine.numerator
Substitution2: "'sinf' Scientific Inferiors lookup 3-1" nineinferior
Substitution2: "'frac' Diagonal Fractions lookup 13-1" nine.numerator
Substitution2: "'smcp' Lowercase to Small Capitals lookup 16-1" nine.smcp
EndChar

StartChar: eight
Encoding: 56 56 148
Width: 623
VWidth: 0
Flags: W
HStem: 0 123.5<234.548 438.49> 315 117<279.134 462.761> 613.5 123.5<302.029 510.995>
DStem2: 83.05 178.75 225.35 183.45 0.156532 0.987673<-19.6057 148.706 294.898 454.181> 456.85 183.45 595.1 160.05 0.15668 0.987649<-53.289 116.445 267.587 417.832>
LayerCount: 2
Fore
SplineSet
274.4 494 m 2
 266.15 442.4 297.5 432 331.5 432 c 2
 431.65 432 l 2
 488.7 432 500.45 461.3 505.9 494 c 2
 513.05 541.1 l 2
 523.3 603.5 501.2 613.5 459.2 613.5 c 2
 364.9 613.5 l 2
 311.05 613.5 290.35 597.9 281.55 541.1 c 2
 274.4 494 l 2
225.35 183.45 m 2
 218 138.1 235.2 123.5 287.3 123.5 c 2
 381.15 123.5 l 2
 422.9 123.5 450.6 141.05 456.85 183.45 c 2
 467.8 252.7 l 2
 474.05 292.65 455.85 315 414.6 315 c 2
 313.35 315 l 2
 269.55 315 243 295.45 236.3 252.7 c 2
 225.35 183.45 l 2
83.05 178.75 m 2
 94.2 252 l 2
 104 312.8 142.8 348.55 195.75 355.75 c 1
 128.65 386 126.3 454.85 135.4 510 c 2
 145.85 575 l 2
 167.4 712.75 252.35 737 359.85 737 c 2
 511.35 737 l 2
 620.8 737 676 672.35 657.35 552.45 c 1
 648.55 499 l 2
 645.45 474.25 622.35 404.8 552.75 393.1 c 1
 613.9 377.85 615.9 288.95 608.45 245.95 c 2
 595.1 160.05 l 2
 570.45 6.5 481.35 0 393.35 0 c 2
 242.85 0 l 2
 62.75 0 74.85 126.9 83.05 178.75 c 2
EndSplineSet
Validated: 524321
Substitution2: "'dnom' Denominators lookup 0 subtable" eight.denominator
Substitution2: "'sups' Superscript lookup 2 subtable" eightsuperior
Substitution2: "'onum' Oldstyle Figures in Latin lookup 5-1" eight.oldstyle
Substitution2: "'tnum' Tabular Numbers in Latin lookup 7-1" eight.tnum
Substitution2: "'numr' Numerators lookup 9 subtable" eight.numerator
Substitution2: "'sinf' Scientific Inferiors lookup 3-1" eightinferior
Substitution2: "'frac' Diagonal Fractions lookup 13-1" eight.numerator
Substitution2: "'smcp' Lowercase to Small Capitals lookup 16-1" eight.smcp
EndChar

StartChar: quotesingle
Encoding: 39 39 149
Width: 224
VWidth: 0
Flags: W
HStem: 531 201<157.8 256.8>
VStem: 136.8 162
LayerCount: 2
Fore
SplineSet
136.8 531 m 1
 146.8 665 l 1
 157.8 732 l 1
 298.8 732 l 1
 287.8 665 l 1
 256.8 531 l 1
 136.8 531 l 1
EndSplineSet
Validated: 524289
Substitution2: "'smcp' Lowercase to Small Capitals lookup 16-1" quotesingle.smcp
EndChar

StartChar: onesuperior
Encoding: 185 185 150
Width: 279
VWidth: 350
Flags: W
HStem: 704.1 73.9<120.9 185.466>
VStem: 109.5 237.3
DStem2: 162.05 355.45 270.25 355.45 0.156551 0.98767<16.9388 375.925>
LayerCount: 2
Fore
SplineSet
109.5 704.1 m 1
 120.9 778 l 1
 156.9 778 223 818.05 240.6 838.4 c 1
 346.8 838.4 l 1
 270.25 355.45 l 1
 162.05 355.45 l 1
 222.1 726.55 l 1
 199.05 708.6 144.15 704.1 109.5 704.1 c 1
EndSplineSet
Validated: 524289
EndChar

StartChar: twosuperior
Encoding: 178 178 151
Width: 398
VWidth: 350
Flags: W
HStem: 355.45 99.95<273.5 408.2> 744.1 99.95<141.224 345.223> 744.1 81.1<137.051 331.882>
LayerCount: 2
Fore
SplineSet
67.3 355.45 m 1xc0
 82.35 450.85 l 1
 149 492.75 339.5 612.4 351.45 687.45 c 0
 358.35 731.1 339.85 744.1 284.05 744.1 c 2xc0
 125.25 744.1 l 2
 124.35 744.1 137.85 825.65 138.3 825.2 c 0xa0
 200.9 835.95 248.55 844.05 335.95 844.05 c 0
 436.85 844.05 473.85 758.3 462.55 690.45 c 0
 444.95 574.55 315.15 488.7 273.5 455.4 c 1
 424.25 455.4 l 1
 408.2 355.45 l 1
 67.3 355.45 l 1xc0
EndSplineSet
Validated: 524321
EndChar

StartChar: threesuperior
Encoding: 179 179 152
Width: 407
VWidth: 350
Flags: W
HStem: 350.9 99.95<83.12 306.781> 553.85 87.05<152.15 313.522> 739.55 99.5<138.8 350.492>
DStem2: 316.7 491.5 421.6 466.05 0.156861 0.987621<-36.2469 46.2014 160.525 242.625>
LayerCount: 2
Fore
SplineSet
68.85 370.55 m 1
 82.35 450.4 l 1
 96.75 450.4 242.3 450.85 242.3 450.85 c 2
 288 450.85 311.9 459.05 316.7 491.5 c 1
 319.05 504.6 l 1
 324.3 539.65 300.9 547.85 261.5 549.4 c 2
 138.65 553.85 l 1
 152.15 640.9 l 1
 277.55 645.8 l 2
 323.1 647.8 345.05 657.15 349.4 687.25 c 2
 350.75 699.35 l 1
 356.65 731.45 335.4 739.55 292.3 739.55 c 2
 123.35 739.55 l 1
 135.85 818.85 l 1
 198.6 840.5 273.35 840.6 352.65 839.05 c 0
 429.65 838.05 471.8 782.05 460.6 711.6 c 2
 455.7 681.55 l 2
 447.7 633.45 423.15 600.85 385.8 593.05 c 1
 423 578.8 432.7 534.35 425.6 489.65 c 2
 421.6 466.05 l 2
 409.5 389.55 362.75 350.45 270.55 350.9 c 0
 193.25 350.9 124.5 348.9 68.85 370.55 c 1
EndSplineSet
Validated: 524321
EndChar

StartChar: ordmasculine
Encoding: 186 186 153
Width: 385
VWidth: 0
Flags: W
HStem: 263.85 69<87.6 399.35> 372.55 87.3<218.198 324.368> 647.95 87.3<237.352 349.086>
LayerCount: 2
Fore
SplineSet
215.4 549.45 m 0
 201.8 464.7 220.9 460.3 267.5 459.85 c 0
 314.8 459.4 334.2 461.7 348.25 549.45 c 0
 362.3 640.55 353.2 647.5 297.25 647.95 c 0
 242.45 648.4 229.45 640.1 215.4 549.45 c 0
113.25 558.25 m 0
 135.8 699.1 184.45 734.8 308.4 735.25 c 0
 425.65 735.7 472.85 682.25 450.4 539.55 c 0
 429.85 410.8 386.05 372.55 254.55 372.55 c 0
 135.4 372.55 93.25 432.25 113.25 558.25 c 0
76.95 263.85 m 1
 87.6 332.85 l 1
 410 332.85 l 1
 399.35 263.85 l 1
 76.95 263.85 l 1
EndSplineSet
Validated: 524321
Ligature2: "'ordn' Ordinals lookup 21-1" o
Substitution2: "'smcp' Lowercase to Small Capitals lookup 16-1" ordmasculine.smcp
EndChar

StartChar: ordfeminine
Encoding: 170 170 154
Width: 364
VWidth: 0
Flags: W
HStem: 262.5 69<74.4 384.8> 370.4 92.15<165.05 274.135>
VStem: 324.7 71.4<374.95 396.763>
DStem2: 317.6 503 396.1 374.95 0.132983 0.991118<-25.0231 145.165>
LayerCount: 2
Fore
SplineSet
194.55 557.55 m 0
 184.4 492.85 196 462.55 231.2 462.55 c 0
 267.3 462.55 296.25 478.5 317.6 503 c 1
 337.85 644.15 l 1
 315.9 651.95 279.2 655.1 260.35 650.3 c 0
 235.05 644.05 205.7 632.25 194.55 557.55 c 0
97.7 572.65 m 1
 125.2 719.4 208.3 730.4 268.4 733.1 c 0
 317.55 735.35 408.65 722.85 442.2 690.3 c 1
 396.1 374.95 l 1
 324.7 374.95 l 1
 309.2 423.25 l 1
 290.05 392.2 236.7 370.4 194.95 370.4 c 0
 133.65 370.4 70.2 431.8 97.7 572.65 c 1
63.75 262.5 m 1
 74.4 331.5 l 1
 395.45 331.5 l 1
 384.8 262.5 l 1
 63.75 262.5 l 1
EndSplineSet
Validated: 524321
Ligature2: "'ordn' Ordinals lookup 21-1" a
Substitution2: "'smcp' Lowercase to Small Capitals lookup 16-1" ordfeminine.smcp
EndChar

StartChar: slash
Encoding: 47 47 155
Width: 456
VWidth: 0
Flags: W
DStem2: 3.6 -72 148.6 -72 0.441235 0.897391<63.9791 938.275>
LayerCount: 2
Fore
SplineSet
3.6 -72 m 1
 417.6 770 l 1
 562.6 770 l 1
 148.6 -72 l 1
 3.6 -72 l 1
EndSplineSet
Validated: 524289
Substitution2: "'numr' Numerators lookup 9 subtable" fraction
Substitution2: "'frac' Diagonal Fractions lookup 12-1" fraction
EndChar

StartChar: backslash
Encoding: 92 92 156
Width: 449
VWidth: 0
Flags: W
VStem: 136.05 287.75
DStem2: 275.8 770 136.05 770 0.173118 -0.984901<0 830.715>
LayerCount: 2
Fore
SplineSet
136.05 770 m 1
 275.8 770 l 1
 423.8 -72 l 1
 284.05 -72 l 1
 136.05 770 l 1
EndSplineSet
Validated: 524289
EndChar

StartChar: bar
Encoding: 124 124 157
Width: 247
VWidth: 0
Flags: W
VStem: 53.1 251
DStem2: 53.1 -72 171.1 -72 0.156023 0.987753<18.4107 852.439>
LayerCount: 2
Fore
SplineSet
53.1 -72 m 1
 186.1 770 l 1
 304.1 770 l 1
 171.1 -72 l 1
 53.1 -72 l 1
EndSplineSet
Validated: 524289
EndChar

StartChar: underscore
Encoding: 95 95 158
Width: 673
VWidth: 0
Flags: W
HStem: -1 118<43.1 658.5>
LayerCount: 2
Fore
SplineSet
24.5 -1 m 1
 43.1 117 l 1
 677.1 117 l 1
 658.5 -1 l 1
 24.5 -1 l 1
EndSplineSet
Validated: 524289
EndChar

StartChar: hyphen
Encoding: 45 45 159
Width: 353
VWidth: 0
Flags: W
HStem: 231 118<79.15 374.55>
VStem: 60.55 332.6
LayerCount: 2
Fore
SplineSet
60.55 231 m 1
 79.15 349 l 1
 393.15 349 l 1
 374.55 231 l 1
 60.55 231 l 1
EndSplineSet
Validated: 524289
Substitution2: "'case' Case-Sensitive Forms lookup 1-1" hyphen.alt
Substitution2: "'c2sc' Capitals to Small Capitals in Latin lookup 17 subtable" hyphen.smcp
Substitution2: "'smcp' Lowercase to Small Capitals lookup 16-1" hyphen.smcp
EndChar

StartChar: numbersign
Encoding: 35 35 160
Width: 721
VWidth: 0
Flags: W
HStem: 0 21G<126.8 229.481 346.45 449.163> 0 21G<126.8 229.481 346.45 449.163> 209 96<77.5 196.95 325.9 416.6 547.85 691.25> 427 96<146.95 269.25 398.75 491.2 617.85 759.25> 712 20G<366.278 469 584.473 687.1>
DStem2: 126.8 0 222.8 0 0.31879 0.947825<30.6039 221.406 353.506 450.133 582.408 772.294> 346.45 0 442.45 0 0.316986 0.94843<30.4306 220.458 353.112 450.863 582.059 771.802>
LayerCount: 2
Fore
SplineSet
325.9 306 m 1x38
 451.85 305 l 1
 491.2 427 l 1
 365.25 427 l 1
 325.9 306 l 1x38
47.75 210 m 1
 77.5 306 l 1
 229.9 306 l 1
 269.25 427 l 1
 115.75 427 l 1
 146.95 523 l 1
 302.75 523 l 1
 373 732 l 1
 469 732 l 1
 398.75 523 l 1
 521.85 523 l 1
 591.1 732 l 1
 687.1 732 l 1
 617.85 523 l 1
 789.35 523 l 1
 759.25 427 l 1
 587.2 427 l 1
 547.85 305 l 1
 719.9 305 l 1
 691.25 209 l 1
 512.6 209 l 1
 442.45 0 l 1
 346.45 0 l 1
 416.6 209 l 1
 292.95 210 l 1
 222.8 0 l 1
 126.8 0 l 1xb8
 196.95 210 l 1
 47.75 210 l 1
EndSplineSet
Validated: 524289
Substitution2: "'smcp' Lowercase to Small Capitals lookup 16-1" numbersign.smcp
EndChar

StartChar: dollar
Encoding: 36 36 161
Width: 569
VWidth: 0
Flags: W
HStem: -8 128.1<96.2534 236.95 322 393.244> 291.75 140<268.687 423.193>
DStem2: 223.5 -90 309 -90 0.156104 0.987741<13.3469 85.3167 850.312 925.344>
LayerCount: 2
Fore
SplineSet
67.9 21.95 m 1
 85.6 128.85 l 1
 125.05 126.65 224.55 120.1 317.55 120.1 c 0
 359.65 120.1 409.6 132.9 417.75 184.05 c 2
 423.8 223.45 l 2
 430.6 265.05 430.8 291.75 367.9 291.75 c 2
 276.4 291.75 l 2
 109.25 291.75 109.55 438.65 119.25 500.05 c 1
 128.15 563.3 l 1
 150.5 705.95 244.3 734.9 354.5 738 c 1
 367.95 824 l 1
 453.45 824 l 1
 440 736.65 l 1
 508.05 732.75 568.75 721.3 613.8 709.05 c 1
 596.55 599.9 l 1
 539.4 603.75 410.8 609.45 374.5 609.45 c 0
 313.3 610.8 276.65 599.8 266.5 538 c 2
 260.9 502.25 l 2
 253.65 455.05 263.05 431.75 329.65 431.75 c 2
 423.35 431.75 l 2
 569.05 431.75 579 304.9 566 224 c 2
 558.3 175.25 l 2
 532.45 13.6 423.05 -9.6 322 -8 c 1
 309 -90 l 1
 223.5 -90 l 1
 236.95 -5.75 l 1
 160.65 -2.05 119.85 6.3 67.9 21.95 c 1
EndSplineSet
Validated: 524321
Substitution2: "'smcp' Lowercase to Small Capitals lookup 16-1" dollar.smcp
EndChar

StartChar: zerosuperior
Encoding: 263 8304 162
Width: 438
VWidth: 350
Flags: W
HStem: 355 99.95<180.427 329.732> 736.65 99.95<222.33 369.846>
DStem2: 68.1 474.9 179.5 497.6 0.154314 0.988022<2.32716 278.809> 336.5 497.05 440.95 474.9 0.154452 0.988<-43.2081 237.65>
LayerCount: 2
Fore
SplineSet
179.5 497.6 m 2
 173.6 459.65 189.3 454.95 219.6 454.95 c 2
 284.05 454.95 l 2
 316.85 454.95 331.05 463.7 336.5 497.05 c 2
 370.55 694.55 l 2
 376 725.15 368.3 736.65 334.55 736.65 c 2
 264.6 736.65 l 2
 226.4 736.65 218 720.05 213.55 694.55 c 2
 179.5 497.6 l 2
68.1 474.9 m 2
 105.35 713.4 l 2
 118.9 798.5 167.3 836.6 247.5 836.6 c 2
 365.6 836.6 l 2
 457.1 836.6 489.75 783.7 478.75 716.7 c 2
 440.95 474.9 l 2
 427.05 388.25 384.35 355 305 355 c 2
 186.9 355 l 2
 117.65 355 54.2 388.15 68.1 474.9 c 2
EndSplineSet
Validated: 524321
EndChar

StartChar: foursuperior
Encoding: 264 8308 163
Width: 469
VWidth: 350
Flags: W
HStem: 453.45 102.95<261.3 355>
DStem2: 102.35 500 261.3 556.4 0.555213 0.831708<135.159 404.709> 338.85 356.55 444.2 356.55 0.157202 0.987566<16.5612 98.234 218.918 306.01>
LayerCount: 2
Fore
SplineSet
102.35 500 m 1
 327.05 836.6 l 1
 444.05 836.6 l 1
 261.3 556.4 l 1
 371.05 556.4 l 1
 387.3 658.7 l 1
 419.45 708.35 l 1
 500.2 708.35 l 1
 475.95 556.4 l 1
 524.05 556.4 l 1
 510.55 471.4 l 1
 458.25 454 l 1
 444.2 356.55 l 1
 338.85 356.55 l 1
 355 453.45 l 1
 123.1 453.45 l 1
 102.35 500 l 1
EndSplineSet
Validated: 524289
EndChar

StartChar: fivesuperior
Encoding: 265 8309 164
Width: 413
VWidth: 350
Flags: W
HStem: 351.55 101.6<88.65 324.729> 367.75 85.4<88.65 324.729> 534.7 21G<102.15 197.725> 569.4 95.55<233.431 336.88> 736.65 99.95<250.9 459.05>
LayerCount: 2
Fore
SplineSet
75.15 367.75 m 1x78
 88.65 453.15 l 1
 280.4 453.15 l 2
 316.5 453.15 328.35 465.7 331.7 493.2 c 2
 336.3 526.65 l 2
 338.75 545.9 340.6 569.4 302.45 569.4 c 2
 236.55 569.4 l 2
 213.75 569.4 199.9 559.25 195.55 534.7 c 1
 102.15 534.7 l 1
 165.25 836.6 l 1
 475.1 836.6 l 1
 459.05 736.65 l 1
 250.9 736.65 l 1
 231.9 648.15 l 1
 264.25 671.1 316.35 666.6 349.45 664.95 c 0
 432.35 660.55 453.2 593.4 444.95 533.95 c 2
 434.5 462.8 l 1
 423.35 369.7 357.9 351.1 290.35 351.55 c 0xb8
 206.05 352 163.45 351.65 75.15 367.75 c 1x78
EndSplineSet
Validated: 524321
EndChar

StartChar: sixsuperior
Encoding: 266 8310 165
Width: 407
VWidth: 350
Flags: W
HStem: 355.45 99.95<197.598 329.402> 563.1 90.05<207.181 341.526> 743.75 96.65<234.256 462.3> 743.75 83.55<234.256 462.3>
LayerCount: 2
Fore
SplineSet
192.8 563.1 m 1xc0
 186.15 519.65 182 455.4 234 455.4 c 2
 291.3 455.4 l 2
 318.25 455.4 330.4 464.35 334.2 490.45 c 2
 340.35 528.9 l 2
 344.7 556.65 337.5 563.1 310.25 563.1 c 2
 192.8 563.1 l 1xc0
91.8 616.45 m 0
 121.6 802.45 181.95 835.45 242.55 840.4 c 0xe0
 313.5 847 404.4 839.85 475.8 827.3 c 1xd0
 462.3 743.75 l 1
 284.7 743.75 l 2xe0
 222.4 743.75 213.1 683.7 205.3 638.05 c 1
 245.35 648.45 290.65 652.7 343.6 653.15 c 0
 434.15 653.6 457.2 588.65 447.45 529.05 c 2
 436.45 458.8 l 2
 423.8 377.45 373.25 355.45 294.65 355.45 c 2
 201.15 355.45 l 2
 125.2 355.45 59.25 412.3 91.8 616.45 c 0
EndSplineSet
Validated: 524321
EndChar

StartChar: sevensuperior
Encoding: 267 8311 166
Width: 431
VWidth: 350
Flags: W
HStem: 737.55 99.95<126.85 348.75>
DStem2: 127.15 355.45 246.1 355.45 0.500562 0.8657<59.5419 441.709>
LayerCount: 2
Fore
SplineSet
110.8 737.55 m 1
 126.85 837.5 l 1
 477.3 837.5 l 1
 498 791.1 l 1
 246.1 355.45 l 1
 127.15 355.45 l 1
 348.75 737.55 l 1
 110.8 737.55 l 1
EndSplineSet
Validated: 524289
EndChar

StartChar: eightsuperior
Encoding: 268 8312 167
Width: 424
VWidth: 350
Flags: W
HStem: 354.55 96<223.661 369.934> 554.65 91.6<256.163 377.813> 745.5 95.55<267.808 409.072>
DStem2: 113.75 473.95 224.6 484 0.158415 0.987373<-1.17129 99.8685 197.884 293.889> 372.9 484 479 462.4 0.155982 0.98776<-35.4379 65.4202 163.427 258.278>
LayerCount: 2
Fore
SplineSet
256.3 683.1 m 2
 251.5 652.85 267.15 646.25 289.7 646.25 c 2
 358.9 646.25 l 2
 396 646.25 401.25 664.5 404.15 683.1 c 2
 408.05 705.75 l 2
 413.85 740.55 399.65 745.5 373.75 745.5 c 2
 308.6 745.5 l 2
 278.7 745.5 265.55 739.1 260.2 705.75 c 2
 256.3 683.1 l 2
224.6 484 m 2
 220.7 459.7 227.7 450.55 261.5 450.55 c 2
 329.45 450.55 l 2
 358 450.55 369.55 460.45 372.9 484 c 2
 378.25 518.05 l 2
 382.05 541.85 374.1 554.65 346.75 554.65 c 2
 274.75 554.65 l 2
 245.85 554.65 234.2 543.75 230.4 518.05 c 2
 224.6 484 l 2
113.75 473.95 m 2
 121 519.3 l 2
 127.35 559.05 154.65 580 190.45 586.9 c 1
 144.3 610.1 142.65 654.05 148.2 690.1 c 2
 155.2 732.3 l 2
 170.2 825.4 232.2 841.05 303.6 841.05 c 2
 417.05 841.05 l 2
 488.65 841.05 532 798.05 519.45 718.55 c 2
 514 684.6 l 2
 511.45 668.4 496.35 623.55 447.25 615.75 c 1
 491.05 604.5 492 545.1 487.45 516.55 c 2
 479 462.4 l 2
 463.35 360.95 406.35 354.55 339.4 354.55 c 2
 226.05 354.55 l 2
 115.05 354.55 106.3 427 113.75 473.95 c 2
EndSplineSet
Validated: 524321
EndChar

StartChar: ninesuperior
Encoding: 269 8313 168
Width: 447
VWidth: 350
Flags: W
HStem: 351.05 97.2<118.65 346.897> 364.15 84.1<118.65 346.897> 542.15 96.1<241.772 374.869> 743.75 99.95<254.313 385.602>
LayerCount: 2
Fore
SplineSet
243.25 674.1 m 2x30
 238.35 645.25 245 638.25 272.25 638.25 c 2
 389.7 638.25 l 1
 396.9 684.45 399.5 743.75 347.5 743.75 c 2
 290.75 743.75 l 2
 263.8 743.75 252.75 734.25 248.4 707.05 c 2
 243.25 674.1 l 2x30
105.15 364.15 m 1x70
 118.65 448.25 l 1
 296.25 448.25 l 2
 358.55 448.25 368.4 509.4 376.75 557.25 c 1
 336.7 546.85 291.4 542.6 238.45 542.15 c 0
 147.35 541.7 125.95 611.05 135.7 671.75 c 2
 145.05 735.4 l 2
 157.15 817.85 207.15 844.8 285.75 843.7 c 2
 384.2 842.6 l 2
 462.35 842.6 522.7 778.6 489.6 571.15 c 0
 459.25 382.4 399.55 356.55 338.4 351.05 c 0xb0
 267.45 344.45 169.8 350.7 105.15 364.15 c 1x70
EndSplineSet
Validated: 524321
EndChar

StartChar: zeroinferior
Encoding: 270 8320 169
Width: 457
VWidth: 0
Flags: W
HStem: -201 99.95<206.877 356.182> 180.65 99.95<248.78 396.296>
DStem2: 94.55 -81.1 205.95 -58.4 0.154314 0.988022<2.32714 278.809> 362.95 -58.95 467.4 -81.1 0.154452 0.988<-43.2081 237.65>
LayerCount: 2
Fore
SplineSet
205.95 -58.4 m 2
 200.05 -96.35 215.75 -101.05 246.05 -101.05 c 2
 310.5 -101.05 l 2
 343.3 -101.05 357.5 -92.3 362.95 -58.95 c 2
 397 138.55 l 2
 402.45 169.15 394.75 180.65 361 180.65 c 2
 291.05 180.65 l 2
 252.85 180.65 244.45 164.05 240 138.55 c 2
 205.95 -58.4 l 2
94.55 -81.1 m 2
 131.8 157.4 l 2
 145.35 242.5 193.75 280.6 273.95 280.6 c 2
 392.05 280.6 l 2
 483.55 280.6 516.2 227.7 505.2 160.7 c 2
 467.4 -81.1 l 2
 453.5 -167.75 410.8 -201 331.45 -201 c 2
 213.35 -201 l 2
 144.1 -201 80.65 -167.85 94.55 -81.1 c 2
EndSplineSet
Validated: 524321
EndChar

StartChar: oneinferior
Encoding: 271 8321 170
Width: 284
VWidth: 0
Flags: W
HStem: 148.1 73.9<41.75 106.316>
VStem: 30.35 237.3
DStem2: 82.9 -200.55 191.1 -200.55 0.156551 0.98767<16.9388 375.925>
LayerCount: 2
Fore
SplineSet
30.35 148.1 m 1
 41.75 222 l 1
 77.75 222 143.85 262.05 161.45 282.4 c 1
 267.65 282.4 l 1
 191.1 -200.55 l 1
 82.9 -200.55 l 1
 142.95 170.55 l 1
 119.9 152.6 65 148.1 30.35 148.1 c 1
EndSplineSet
Validated: 524289
EndChar

StartChar: twoinferior
Encoding: 272 8322 171
Width: 438
VWidth: 0
Flags: W
HStem: -200.55 99.95<243.7 378.4> 188.1 99.95<111.424 315.423> 188.1 81.1<107.251 302.082>
LayerCount: 2
Fore
SplineSet
37.5 -200.55 m 1xc0
 52.55 -105.15 l 1
 119.2 -63.25 309.7 56.4 321.65 131.45 c 0
 328.55 175.1 310.05 188.1 254.25 188.1 c 2xc0
 95.45 188.1 l 2
 94.55 188.1 108.05 269.65 108.5 269.2 c 0xa0
 171.1 279.95 218.75 288.05 306.15 288.05 c 0
 407.05 288.05 444.05 202.3 432.75 134.45 c 0
 415.15 18.55 285.35 -67.3 243.7 -100.6 c 1
 394.45 -100.6 l 1
 378.4 -200.55 l 1
 37.5 -200.55 l 1xc0
EndSplineSet
Validated: 524321
EndChar

StartChar: threeinferior
Encoding: 273 8323 172
Width: 394
VWidth: 0
Flags: W
HStem: -205.1 99.95<9.67033 233.781> -2.15 87.05<79.15 240.522> 183.55 99.5<65.8002 277.492>
DStem2: 243.7 -64.5 348.6 -89.95 0.156861 0.987621<-36.2469 46.2014 160.525 242.625>
LayerCount: 2
Fore
SplineSet
-4.15 -185.45 m 1
 8.9 -105.6 l 1
 23.3 -105.6 169.3 -105.15 169.3 -105.15 c 2
 215 -105.15 238.9 -96.95 243.7 -64.5 c 1
 246.05 -51.4 l 1
 251.3 -16.35 227.9 -8.15 188.5 -6.6 c 2
 65.65 -2.15 l 1
 79.15 84.9 l 1
 204.55 89.8 l 2
 250.1 91.8 272.05 101.15 276.4 131.25 c 2
 277.75 143.35 l 1
 283.65 175.45 262.4 183.55 219.3 183.55 c 2
 50.35 183.55 l 1
 62.85 262.85 l 1
 125.6 284.5 200.35 284.6 279.65 283.05 c 0
 356.65 282.05 398.8 226.05 387.6 155.6 c 2
 382.7 125.55 l 2
 374.7 77.45 350.15 44.85 312.8 37.05 c 1
 350 22.8 359.7 -21.65 352.6 -66.35 c 2
 348.6 -89.95 l 2
 336.5 -166.45 289.75 -205.55 197.55 -205.1 c 0
 120.25 -205.1 51.5 -207.1 -4.15 -185.45 c 1
EndSplineSet
Validated: 524321
EndChar

StartChar: fourinferior
Encoding: 274 8324 173
Width: 435
VWidth: 0
Flags: W
HStem: -102.55 102.95<156.35 250.05>
DStem2: -2.6 -56 156.35 0.400001 0.555213 0.831708<135.159 404.709> 233.9 -199.45 339.25 -199.45 0.157202 0.987566<16.5612 98.234 218.918 306.01>
LayerCount: 2
Fore
SplineSet
-2.6 -56 m 1
 222.1 280.6 l 1
 339.1 280.6 l 1
 156.35 0.400001 l 1
 266.1 0.400001 l 1
 282.35 102.7 l 1
 314.5 152.35 l 1
 395.25 152.35 l 1
 371 0.400001 l 1
 419.1 0.400001 l 1
 405.6 -84.6 l 1
 353.3 -102 l 1
 339.25 -199.45 l 1
 233.9 -199.45 l 1
 250.05 -102.55 l 1
 18.15 -102.55 l 1
 -2.6 -56 l 1
EndSplineSet
Validated: 524289
EndChar

StartChar: fiveinferior
Encoding: 275 8325 174
Width: 412
VWidth: 0
Flags: W
HStem: -204.45 101.6<16.65 252.729> -188.25 85.4<16.65 252.729> 13.4 95.55<161.431 264.88> 180.65 99.95<178.9 387.05>
LayerCount: 2
Fore
SplineSet
3.15 -188.25 m 1x70
 16.65 -102.85 l 1
 208.4 -102.85 l 2
 244.5 -102.85 256.35 -90.3 259.7 -62.8 c 2
 264.3 -29.35 l 2
 266.75 -10.1 268.6 13.4 230.45 13.4 c 2
 164.55 13.4 l 2
 141.75 13.4 127.9 3.25 123.55 -21.3 c 1
 30.15 -21.3 l 1
 93.25 280.6 l 1
 403.1 280.6 l 1
 387.05 180.65 l 1
 178.9 180.65 l 1
 159.9 92.15 l 1
 192.25 115.1 244.35 110.6 277.45 108.95 c 0
 360.35 104.55 381.2 37.4 372.95 -22.05 c 2
 362.5 -93.2 l 1
 351.35 -186.3 285.9 -204.9 218.35 -204.45 c 0xb0
 134.05 -204 91.45 -204.35 3.15 -188.25 c 1x70
EndSplineSet
Validated: 524321
EndChar

StartChar: sixinferior
Encoding: 276 8326 175
Width: 407
VWidth: 0
Flags: W
HStem: -200.55 99.95<125.597 257.402> 7.1 90.05<135.181 269.526> 187.75 96.65<162.256 390.3> 187.75 83.55<162.256 390.3>
LayerCount: 2
Fore
SplineSet
120.8 7.1 m 1xc0
 114.15 -36.35 110 -100.6 162 -100.6 c 2
 219.3 -100.6 l 2
 246.25 -100.6 258.4 -91.65 262.2 -65.55 c 2
 268.35 -27.1 l 2
 272.7 0.65 265.5 7.1 238.25 7.1 c 2
 120.8 7.1 l 1xc0
19.8 60.45 m 0
 49.6 246.45 109.95 279.45 170.55 284.4 c 0xe0
 241.5 291 336.9 283.85 403.8 271.3 c 1xd0
 390.3 187.75 l 1
 212.7 187.75 l 2xe0
 150.4 187.75 141.1 127.7 133.3 82.05 c 1
 173.35 92.45 218.65 96.7 271.6 97.15 c 0
 362.15 97.6 385.2 32.65 375.45 -26.95 c 2
 364.45 -97.2 l 2
 351.8 -178.55 301.25 -200.55 222.65 -200.55 c 2
 129.15 -200.55 l 2
 53.2 -200.55 -12.75 -143.7 19.8 60.45 c 0
EndSplineSet
Validated: 524321
EndChar

StartChar: seveninferior
Encoding: 277 8327 176
Width: 431
VWidth: 0
Flags: W
HStem: 181.55 99.95<54.85 276.75>
DStem2: 55.15 -200.55 174.1 -200.55 0.500562 0.865701<59.5419 441.709>
LayerCount: 2
Fore
SplineSet
38.8 181.55 m 1
 54.85 281.5 l 1
 405.3 281.5 l 1
 426 235.1 l 1
 174.1 -200.55 l 1
 55.15 -200.55 l 1
 276.75 181.55 l 1
 38.8 181.55 l 1
EndSplineSet
Validated: 524289
EndChar

StartChar: eightinferior
Encoding: 278 8328 177
Width: 424
VWidth: 0
Flags: W
HStem: -201.45 96<151.661 297.934> -1.35 91.6<184.163 305.813> 189.5 95.55<195.808 337.072>
DStem2: 41.75 -82.05 152.6 -72 0.158415 0.987373<-1.17128 99.8685 197.884 293.889> 300.9 -72 407 -93.6 0.155982 0.98776<-35.4379 65.4202 163.427 258.278>
LayerCount: 2
Fore
SplineSet
184.3 127.1 m 2
 179.5 96.85 195.15 90.25 217.7 90.25 c 2
 286.9 90.25 l 2
 324 90.25 329.25 108.5 332.15 127.1 c 2
 336.05 149.75 l 2
 341.85 184.55 327.65 189.5 301.75 189.5 c 2
 236.6 189.5 l 2
 206.7 189.5 193.55 183.1 188.2 149.75 c 2
 184.3 127.1 l 2
152.6 -72 m 2
 148.7 -96.3 155.7 -105.45 189.5 -105.45 c 2
 257.45 -105.45 l 2
 286 -105.45 297.55 -95.55 300.9 -72 c 2
 306.25 -37.95 l 2
 310.05 -14.15 302.1 -1.35 274.75 -1.35 c 2
 202.75 -1.35 l 2
 173.85 -1.35 162.2 -12.25 158.4 -37.95 c 2
 152.6 -72 l 2
41.75 -82.05 m 2
 49 -36.7 l 2
 55.35 3.05 82.65 24 118.45 30.9 c 1
 72.3 54.1 70.65 98.05 76.2 134.1 c 2
 83.2 176.3 l 2
 98.2 269.4 160.2 285.05 231.6 285.05 c 2
 345.05 285.05 l 2
 416.65 285.05 460 242.05 447.45 162.55 c 2
 442 128.6 l 2
 439.45 112.4 424.35 67.55 375.25 59.75 c 1
 419.05 48.5 420 -10.9 415.45 -39.45 c 2
 407 -93.6 l 2
 391.35 -195.05 334.35 -201.45 267.4 -201.45 c 2
 154.05 -201.45 l 2
 43.05 -201.45 34.3 -129 41.75 -82.05 c 2
EndSplineSet
Validated: 524321
EndChar

StartChar: nineinferior
Encoding: 279 8329 178
Width: 446
VWidth: 0
Flags: W
HStem: -204.95 97.2<46.65 274.897> -191.85 84.1<46.65 274.897> -13.85 96.1<169.772 302.869> 187.75 99.95<182.313 313.602>
LayerCount: 2
Fore
SplineSet
171.25 118.1 m 2x30
 166.35 89.25 173 82.25 200.25 82.25 c 2
 317.7 82.25 l 1
 324.9 128.45 327.5 187.75 275.5 187.75 c 2
 218.75 187.75 l 2
 191.8 187.75 180.75 178.25 176.4 151.05 c 2
 171.25 118.1 l 2x30
33.15 -191.85 m 1x70
 46.65 -107.75 l 1
 224.25 -107.75 l 2
 286.55 -107.75 296.4 -46.6 304.75 1.25 c 1
 264.7 -9.15 219.4 -13.4 166.45 -13.85 c 0
 75.35 -14.3 53.95 55.05 63.7 115.75 c 2
 73.05 179.4 l 2
 85.15 261.85 135.15 288.8 213.75 287.7 c 2
 312.2 286.6 l 2
 390.35 286.6 450.7 222.6 417.6 15.15 c 0
 387.25 -173.6 327.55 -199.45 266.4 -204.95 c 0xb0
 195.45 -211.55 94.65 -205.3 33.15 -191.85 c 1x70
EndSplineSet
Validated: 524321
EndChar

StartChar: zero.oldstyle
Encoding: 280 -1 179
Width: 617
VWidth: 0
Flags: W
HStem: 0 129<233.349 448.596> 503 129<286.869 498.722>
DStem2: 82.5498 178.5 226.4 201.05 0.159348 0.987222<-11.1774 337.458> 471.4 200.5 607.55 178.5 0.16009 0.987102<-62.1735 287.241>
LayerCount: 2
Fore
SplineSet
226.4 201.05 m 2
 215.15 129.3 256.35 129 290.05 129 c 2
 386.95 129 l 2
 433.9 129 462.4 146.5 471.4 200.5 c 2
 508.3 431.5 l 2
 516.2 482.45 500 503 451.85 503 c 2
 346.7 503 l 2
 284.2 503 267.55 459.35 263.3 431.5 c 2
 226.4 201.05 l 2
82.5498 178.5 m 2
 126.05 448 l 2
 145.7 571.25 210.2 632 328 632 c 2
 492 632 l 2
 637.2 632 666.8 544.05 652.15 453.5 c 2
 607.55 178.5 l 2
 588.55 59.5 527.5 0 412.9 0 c 2
 248.9 0 l 2
 136.45 0 63 58.5 82.5498 178.5 c 2
EndSplineSet
Validated: 524321
Substitution2: "'tnum' Tabular Numbers in Latin lookup 7-1" zero.tosf
Substitution2: "'lnum' Lining Figures lookup 19-1" zero
EndChar

StartChar: one.oldstyle
Encoding: 281 -1 180
Width: 362
VWidth: 0
Flags: W
HStem: 0 21G<152.3 294.173> 0 21G<152.3 294.173> 459.05 91.5<91.2 158.75>
VStem: 77.15 308
DStem2: 152.3 0 291.2 0 0.147039 0.989131<20.4238 495.377>
LayerCount: 2
Fore
SplineSet
77.15 459.05 m 1xb0
 91.2 550.55 l 1
 136.2 550.55 219.85 603.1 246.25 633.35 c 1
 385.15 632 l 1
 291.2 0 l 1
 152.3 0 l 1
 226.1 489.85 l 1
 191.65 465.35 120.35 459.05 77.15 459.05 c 1xb0
EndSplineSet
Validated: 8912897
Substitution2: "'tnum' Tabular Numbers in Latin lookup 7-1" one.tosf
Substitution2: "'lnum' Lining Figures lookup 19-1" one
EndChar

StartChar: two.oldstyle
Encoding: 282 -1 181
Width: 592
VWidth: 0
Flags: W
HStem: 0 129<347.3 549.3> 505.15 129.55<158.95 467.999>
LayerCount: 2
Fore
SplineSet
37.7998 0 m 1
 57.5996 123 l 1
 184.15 182.8 465.45 310.4 482.4 417.8 c 0
 493.3 484.2 468 506.05 380.25 505.15 c 0
 357.75 505.15 120.35 504.7 120.35 504.7 c 1
 137.5 609.2 l 1
 230.15 625.4 306.45 634.7 439.65 634.7 c 0
 597.9 634.7 642.1 533.5 626.4 416.9 c 1
 607.55 261.8 419.2 161.2 347.3 129 c 1
 570.1 129 l 1
 549.3 0 l 1
 37.7998 0 l 1
EndSplineSet
Validated: 524321
Substitution2: "'tnum' Tabular Numbers in Latin lookup 7-1" two.tosf
Substitution2: "'lnum' Lining Figures lookup 19-1" two
EndChar

StartChar: three.oldstyle
Encoding: 283 -1 182
Width: 587
VWidth: 0
Flags: W
HStem: -104.3 130<57.5779 397.786> -76.3 102<54.45 136.381> 209.85 113<163.05 315.361> 507.7 129<175.668 470.268>
DStem2: 422.1 93.95 559.7 63.7 0.157841 0.987465<-54.3741 89.4212 254.657 397.859>
LayerCount: 2
Fore
SplineSet
37.65 -76.3 m 1x70
 54.45 25.7 l 1
 308.45 25.7 l 2
 372.95 25.7 413.3 37.95 422.1 93.95 c 2
 427.15 126 l 2
 438.2 196.3 401.2 198.65 342.25 201.75 c 2
 144.25 209.85 l 1
 163.05 322.85 l 1
 363.05 331.75 l 2
 432.05 334.75 464.8 350.5 473.15 403.25 c 2
 478.65 438.7 l 2
 489 500.95 442.85 507.7 390.85 507.7 c 2
 123.85 507.7 l 1
 139.65 608.7 l 1
 232.65 639.7 351.15 638.7 468.15 636.7 c 0
 571.85 634.7 638.6 557.9 621.4 449.7 c 2
 612.6 397.2 l 2
 600.15 320.6 565.15 276.6 514.15 266.7 c 1
 566 247.9 578.95 182.2 566.95 106.2 c 2
 559.7 63.7 l 1
 541.6 -51.9 466.15 -104.3 344.15 -104.3 c 0xb0
 230.15 -104.3 120.65 -107.3 37.65 -76.3 c 1x70
EndSplineSet
Validated: 8912929
Substitution2: "'tnum' Tabular Numbers in Latin lookup 7-1" three.tosf
Substitution2: "'lnum' Lining Figures lookup 19-1" three
EndChar

StartChar: four.oldstyle
Encoding: 284 -1 183
Width: 613
VWidth: 0
Flags: W
HStem: 59.5 133<240.4 397.15>
DStem2: 31.9 124 240.4 192.5 0.556774 0.830664<172.988 611.559> 372.55 -98 513.9 -98 0.156024 0.987753<22.054 159.409 316.08 463.037>
LayerCount: 2
Fore
SplineSet
31.9 124 m 1
 372.4 632 l 1
 528.65 632 l 1
 240.4 192.5 l 1
 417.95 192.5 l 1
 444.9 359.35 l 1
 489.75 436 l 1
 598.25 436 l 1
 559.3 192.5 l 1
 632.8 192.5 l 1
 616.1 84 l 1
 538.5 59.5 l 1
 513.9 -98 l 1
 372.55 -98 l 1
 397.15 59.5 l 1
 55.5 59.5 l 1
 31.9 124 l 1
EndSplineSet
Validated: 524289
Substitution2: "'tnum' Tabular Numbers in Latin lookup 7-1" four.tosf
Substitution2: "'lnum' Lining Figures lookup 19-1" four
EndChar

StartChar: five.oldstyle
Encoding: 285 -1 184
Width: 599
VWidth: 0
Flags: W
HStem: -103.55 134<51.85 392.603> -79.55 110<51.85 188.881> 239 123.95<257.426 422.094> 503 129<285.6 594.25>
LayerCount: 2
Fore
SplineSet
34.05 -79.55 m 1x70
 51.85 30.45 l 1
 333.85 30.45 l 2
 399 30.45 412.7 73.35 417.05 101.45 c 2
 427.45 165.3 l 2
 432.45 196.5 432.2 239 372.6 239 c 2
 280.9 239 l 2
 245.75 239 216.9 221.85 210.1 180.5 c 1
 76.3 180.5 l 1
 170.05 632 l 1
 615.05 632 l 1
 594.25 503 l 1
 285.6 503 l 1
 251.65 338 l 1
 276.15 355.35 306.3 361.05 330.1 362.95 c 0
 367.35 365.85 412.8 363.05 432.55 362.5 c 0
 536.75 357 584 275.55 569.1 172.25 c 2
 553.2 60.95 l 1
 531.2 -76.05 434.4 -101.3 339.55 -103.55 c 0xb0
 215.1 -106.7 164.05 -102.55 34.05 -79.55 c 1x70
EndSplineSet
Validated: 8912929
Substitution2: "'tnum' Tabular Numbers in Latin lookup 7-1" five.tosf
Substitution2: "'lnum' Lining Figures lookup 19-1" five
EndChar

StartChar: six.oldstyle
Encoding: 286 -1 185
Width: 588
VWidth: 0
Flags: W
HStem: -0.55 127.65<203.296 390.067> 321 123.5<211.119 419.918> 609 106.15<399.027 587.75>
LayerCount: 2
Fore
SplineSet
191.55 321 m 1
 174.1 211.4 174.95 127.1 255.7 127.1 c 2
 334.85 127.1 l 2
 367.85 127.1 400.45 137.45 408.7 189.75 c 2
 419.45 257 l 2
 427.8 308.1 417.45 321 368.75 321 c 2
 191.55 321 l 1
60.95 395 m 0
 102.95 660 202.1 727.55 289.5 735.25 c 0
 391.6 744.05 510.4 729.3 604.45 715.15 c 1
 587.75 609 l 1
 337.25 609 l 2
 248.5 609 221.6 501.45 208.25 423.5 c 1
 269.4 438.45 334.25 444.05 413.75 444.5 c 0
 554.8 445.4 571.85 347.65 558.45 262.5 c 2
 541.2 148 l 1
 521.55 26.1 444.15 -0.55 338.05 -0.55 c 2
 196 -0.55 l 2
 86.15 -0.55 10.95 80 60.95 395 c 0
EndSplineSet
Validated: 524321
Substitution2: "'tnum' Tabular Numbers in Latin lookup 7-1" six.tosf
Substitution2: "'lnum' Lining Figures lookup 19-1" six
EndChar

StartChar: seven.oldstyle
Encoding: 287 -1 186
Width: 568
VWidth: 0
Flags: W
HStem: 503 129<114.4 429.6>
DStem2: 109.4 -100 262.3 -100 0.464847 0.885391<71.0751 682.735>
LayerCount: 2
Fore
SplineSet
93.6 503 m 1
 114.4 632 l 1
 585.5 632 l 1
 612.75 567.5 l 1
 262.3 -100 l 1
 109.4 -100 l 1
 429.6 503 l 1
 93.6 503 l 1
EndSplineSet
Validated: 524289
Substitution2: "'tnum' Tabular Numbers in Latin lookup 7-1" seven.tosf
Substitution2: "'lnum' Lining Figures lookup 19-1" seven
EndChar

StartChar: eight.oldstyle
Encoding: 288 -1 187
Width: 616
VWidth: 0
Flags: W
HStem: 0 123.5<234.648 438.59> 315 117<279.234 462.861> 613.5 123.5<302.129 511.095>
DStem2: 83.1504 178.75 225.45 183.45 0.156531 0.987673<-19.6057 148.706 294.898 454.181> 456.95 183.45 595.2 160.05 0.15668 0.987649<-53.289 116.445 267.587 417.832>
LayerCount: 2
Fore
SplineSet
274.5 494 m 2
 266.25 442.4 297.6 432 331.6 432 c 2
 431.75 432 l 2
 488.8 432 500.55 461.3 506 494 c 2
 513.15 541.1 l 2
 523.4 603.5 501.3 613.5 459.3 613.5 c 2
 365 613.5 l 2
 311.15 613.5 290.45 597.9 281.65 541.1 c 2
 274.5 494 l 2
225.45 183.45 m 2
 218.1 138.1 235.3 123.5 287.4 123.5 c 2
 381.25 123.5 l 2
 423 123.5 450.7 141.05 456.95 183.45 c 2
 467.9 252.7 l 2
 474.15 292.65 455.95 315 414.7 315 c 2
 313.45 315 l 2
 269.65 315 243.1 295.45 236.4 252.7 c 2
 225.45 183.45 l 2
83.1504 178.75 m 2
 94.2998 252 l 2
 104.1 312.8 142.9 348.55 195.85 355.75 c 1
 128.75 386 126.4 454.85 135.5 510 c 2
 145.95 575 l 2
 167.5 712.75 252.45 737 359.95 737 c 2
 511.45 737 l 2
 620.9 737 676.1 672.35 657.45 552.45 c 1
 648.65 499 l 2
 645.55 474.25 622.45 404.8 552.85 393.1 c 1
 614 377.85 616 288.95 608.55 245.95 c 2
 595.2 160.05 l 2
 570.55 6.5 481.45 0 393.45 0 c 2
 242.95 0 l 2
 62.8496 0 74.9502 126.9 83.1504 178.75 c 2
EndSplineSet
Validated: 524321
Substitution2: "'tnum' Tabular Numbers in Latin lookup 7-1" eight.tosf
Substitution2: "'lnum' Lining Figures lookup 19-1" eight
EndChar

StartChar: nine.oldstyle
Encoding: 289 -1 188
Width: 600
VWidth: 0
Flags: W
HStem: -83.15 106.15<95.65 284.773> 187.5 123.5<263.858 472.83> 504.9 127.65<292.279 479.67>
LayerCount: 2
Fore
SplineSet
264.5 375 m 2
 256.15 323.9 265.95 311 314.65 311 c 2
 491.85 311 l 1
 509.3 420.6 507.9 504.9 427.15 504.9 c 2
 348.55 504.9 l 2
 315.55 504.9 282.95 494.55 274.7 442.25 c 2
 264.5 375 l 2
78.95 -83.15 m 1
 95.65 23 l 1
 346.15 23 l 2
 434.9 23 462.35 130.55 475.7 208.5 c 1
 414.55 193.55 349.15 187.95 269.65 187.5 c 0
 128.6 186.6 112.65 289.85 126.05 375 c 2
 142.2 478.5 l 2
 161.3 600.4 238.15 632.55 344.25 632.55 c 2
 486.3 632.55 l 2
 599.45 632.55 671.9 541 621.9 226 c 0
 579.9 -39 481.85 -95.55 394.45 -103.25 c 0
 292.35 -112.05 173 -97.3 78.95 -83.15 c 1
EndSplineSet
Validated: 524321
Substitution2: "'tnum' Tabular Numbers in Latin lookup 7-1" nine.tosf
Substitution2: "'lnum' Lining Figures lookup 19-1" nine
EndChar

StartChar: ampersand
Encoding: 38 38 189
Width: 672
VWidth: 0
Flags: W
HStem: 0 21G<486.905 651.45> 0 21G<486.905 651.45> 609.2 100.8<478.527 582.7>
DStem2: 357.35 511.4 209.4 503.65 0.498528 -0.866873<-72.9023 13.062 132.487 269.577 404.547 513.661> 320.6 144.3 368.8 33.55 0.774435 0.632653<-59.0071 63.9817 216.722 260.633>
LayerCount: 2
Fore
SplineSet
199 158.9 m 0x20
 225.7 118.6 275.15 105.95 320.6 144.3 c 2
 382.05 196.75 l 1
 303.85 327.8 l 1
 238.75 279.95 l 1
 177.9 233.3 176.5 192.35 199 158.9 c 0x20
85.2 83.4 m 0
 25.5 182.6 52.7 285.9 158.45 365.45 c 2
 249.05 434.05 l 1
 209.4 503.65 l 2
 146.05 612.9 228.75 717.25 315.05 728.65 c 0
 431.05 744.8 517.35 729.25 598.95 710 c 1
 582.7 609.2 l 1
 418.2 609.2 l 2
 337.7 609.2 313.25 588.9 357.35 511.4 c 2
 491.55 277.6 l 1
 627.3 394.85 l 1
 668.9 337.45 l 1
 598.45 216.15 l 1
 552.1 171.8 l 1
 651.45 0 l 1
 498.45 0 l 1xa0
 443.9 94.5 l 1
 368.8 33.55 l 2
 297.85 -24.45 151 -27 85.2 83.4 c 0
EndSplineSet
Validated: 524321
AlternateSubs2: "'salt' Access All Alternates in Latin lookup 4-1" ampersand.salt
Substitution2: "'smcp' Lowercase to Small Capitals lookup 16-1" ampersand.smcp
EndChar

StartChar: asterisk
Encoding: 42 42 190
Width: 427
VWidth: 0
Flags: W
HStem: 518 20G<305.6 343.524> 561 85<235.984 269.9> 566 56.5<135.65 178.216>
LayerCount: 2
Fore
SplineSet
329.45 571 m 1x80
 461.45 649.75 l 1
 484.9 602.65 l 1
 372.85 505.65 l 1
 329.45 571 l 1x80
279.1 719.75 m 1
 336.05 739.05 l 1
 384.25 616.65 l 1
 300.25 584 l 1
 279.1 719.75 l 1
263.75 466.65 m 1
 321.9 538 l 1
 419.1 448.1 l 1
 379.9 402.9 l 1
 263.75 466.65 l 1
160.45 416.2 m 1
 206 552.85 l 1
 285.9 532 l 1
 210.85 399.25 l 1
 160.45 416.2 l 1
126.9 566 m 1xa0
 135.65 622.5 l 1xa0
 278.55 646 l 1
 269.9 561 l 1xc0
 126.9 566 l 1xa0
EndSplineSet
Validated: 524289
Substitution2: "'smcp' Lowercase to Small Capitals lookup 16-1" asterisk.smcp
EndChar

StartChar: Euro
Encoding: 290 8364 191
Width: 704
VWidth: 0
Flags: W
HStem: -6 118<297.236 551.384> 249.5 69<67.1 132.25 285.55 507.25> 393.5 82<308.9 531.05> 401.5 65<90.9 146.619 360.678 531.05> 616.5 123.5<370.085 656.168>
DStem2: 132.25 242.5 272.25 242.5 0.155386 0.987854<-58.4257 0 105.812 152.864 257.619 365.678>
LayerCount: 2
Fore
SplineSet
56.25 249.5 m 1xe8
 67.1 318.5 l 1
 145.55 325.5 l 1
 156.05 393.5 l 1xe8
 80.6 401.5 l 1
 90.9 466.5 l 1xd8
 168.9 475.5 l 1
 179.9 547.5 211.8 740 455.8 740 c 0
 507.8 740 636.6 727.95 711.75 704.5 c 1
 695.6 601.5 l 1
 695.6 601.5 551.1 616.5 469.1 616.5 c 0
 335.5 616.5 323.05 557.35 308.9 475.5 c 1
 541.9 468.5 l 1
 531.05 400.5 l 1
 296.05 393.5 l 1
 285.55 325.5 l 1
 518.1 318.5 l 1
 507.25 249.5 l 1
 507.25 249.5 269.25 244.5 272.25 242.5 c 1
 253.3 127.2 315.3 112 389.5 112 c 0
 480.45 112 625.55 134.5 625.55 134.5 c 1
 609.4 34.5 l 1
 530.45 2.7 442.8 -6 337.8 -6 c 0
 260.8 -6 96.25 16.5 132.25 242.5 c 1
 56.25 249.5 l 1xe8
EndSplineSet
Validated: 524321
Substitution2: "'smcp' Lowercase to Small Capitals lookup 16-1" Euro.smcp
EndChar

StartChar: parenleft
Encoding: 40 40 192
Width: 377
VWidth: 27
Flags: W
LayerCount: 2
Fore
SplineSet
108.3 309.5 m 0
 163.6 647.6 365.65 827 365.65 827 c 1
 499.3 827 l 1
 499.3 827 299.7 588.85 248.3 293 c 0
 193.35 -23.9 329.3 -243 329.3 -243 c 1
 198.8 -243 l 1
 198.8 -243 49.8 -47.45 108.3 309.5 c 0
EndSplineSet
Validated: 524321
Substitution2: "'case' Case-Sensitive Forms lookup 1-1" parenleft.alt
Substitution2: "'c2sc' Capitals to Small Capitals in Latin lookup 17 subtable" parenleft.smcp
Substitution2: "'smcp' Lowercase to Small Capitals lookup 16-1" parenleft.smcp
EndChar

StartChar: parenright
Encoding: 41 41 193
Width: 378
VWidth: 27
Flags: W
LayerCount: 2
Fore
SplineSet
-17.95 -243 m 1
 -17.95 -243 179.45 -18.05 233.05 292.1 c 0
 285.8 594.7 151.5 827 151.5 827 c 1
 282 827 l 1
 282 827 428.8 615.5 373.05 275.6 c 0
 315 -79.55 126.7 -243 126.7 -243 c 1
 -17.95 -243 l 1
EndSplineSet
Validated: 524321
Substitution2: "'case' Case-Sensitive Forms lookup 1-1" parenright.alt
Substitution2: "'c2sc' Capitals to Small Capitals in Latin lookup 17 subtable" parenright.smcp
Substitution2: "'smcp' Lowercase to Small Capitals lookup 16-1" parenright.smcp
EndChar

StartChar: plus
Encoding: 43 43 194
Width: 483
VWidth: 0
Flags: W
HStem: 297 118<98.8 228.2 364.8 496.2>
DStem2: 204.5 148 322.5 148 0.156694 0.987647<18.4899 150.873 288.82 421.203>
LayerCount: 2
Fore
SplineSet
80.2 297 m 1
 98.8 415 l 1
 246.8 415 l 1
 270.5 564 l 1
 388.5 564 l 1
 364.8 415 l 1
 514.8 415 l 1
 496.2 297 l 1
 346.2 297 l 1
 322.5 148 l 1
 204.5 148 l 1
 228.2 297 l 1
 80.2 297 l 1
EndSplineSet
Validated: 524289
EndChar

StartChar: endash
Encoding: 291 8211 195
Width: 453
VWidth: 0
Flags: W
HStem: 228 119<78.6 532.45>
LayerCount: 2
Fore
SplineSet
59.45 228 m 1
 78.6 347 l 1
 551.6 347 l 1
 532.45 228 l 1
 59.45 228 l 1
EndSplineSet
Validated: 524289
Substitution2: "'case' Case-Sensitive Forms lookup 1-1" endash.alt
Substitution2: "'c2sc' Capitals to Small Capitals in Latin lookup 17 subtable" endash.smcp
Substitution2: "'smcp' Lowercase to Small Capitals lookup 16-1" endash.smcp
EndChar

StartChar: emdash
Encoding: 292 8212 196
Width: 736
VWidth: 0
Flags: W
HStem: 230 119<80.35 757.2>
LayerCount: 2
Fore
SplineSet
61.2 230 m 1
 80.35 349 l 1
 776.35 349 l 1
 757.2 230 l 1
 61.2 230 l 1
EndSplineSet
Validated: 524289
Substitution2: "'case' Case-Sensitive Forms lookup 1-1" emdash.alt
Substitution2: "'c2sc' Capitals to Small Capitals in Latin lookup 17 subtable" emdash.smcp
Substitution2: "'smcp' Lowercase to Small Capitals lookup 16-1" emdash.smcp
EndChar

StartChar: less
Encoding: 60 60 197
Width: 450
VWidth: 0
Flags: W
DStem2: 236.2 348.9 83.05 287.6 0.916307 -0.400476<0 234.519> 103.75 417.1 236.2 348.9 0.939986 0.341212<101.231 359.976>
LayerCount: 2
Fore
SplineSet
83.05 287.6 m 1
 103.75 417.1 l 1
 501.55 561.5 l 1
 481.3 432 l 1
 236.2 348.9 l 1
 454.05 261.75 l 1
 433.35 134.5 l 1
 83.05 287.6 l 1
EndSplineSet
Validated: 524289
EndChar

StartChar: equal
Encoding: 61 61 198
Width: 467
VWidth: 0
Flags: W
HStem: 184.5 118<67.65 475.6> 399 118<101.3 509.25>
LayerCount: 2
Fore
SplineSet
82.25 399 m 1
 101.3 517 l 1
 528.3 517 l 1
 509.25 399 l 1
 82.25 399 l 1
48.6 184.5 m 1
 67.65 302.5 l 1
 494.65 302.5 l 1
 475.6 184.5 l 1
 48.6 184.5 l 1
EndSplineSet
Validated: 524289
EndChar

StartChar: greater
Encoding: 62 62 199
Width: 450
VWidth: 0
Flags: W
DStem2: 79.5 264.9 58.8 134.5 0.933838 0.357695<0 265.363>
LayerCount: 2
Fore
SplineSet
58.8 134.5 m 1
 79.5 264.9 l 1
 327.85 358.4 l 1
 105.75 436.5 l 1
 126.45 561.5 l 1
 478.2 417.1 l 1
 458.5 287.6 l 1
 58.8 134.5 l 1
EndSplineSet
Validated: 524289
EndChar

StartChar: multiply
Encoding: 215 215 200
Width: 461
VWidth: 0
Flags: W
DStem2: 82 251.3 153.95 164.3 0.752172 0.658967<0 159.543 281.077 447.949> 206.15 540.5 115.5 460.6 0.640146 -0.768253<3.35419 136.705 250.708 384.801>
LayerCount: 2
Fore
SplineSet
82 251.3 m 1
 202.85 355.9 l 1
 115.5 460.6 l 1
 206.15 540.5 l 1
 294.05 435.8 l 1
 423 545.85 l 1
 493.3 461.6 l 1
 363.7 349.9 l 1
 452.5 244.85 l 1
 362.5 169.9 l 1
 275.8 272.2 l 1
 153.95 164.3 l 1
 82 251.3 l 1
EndSplineSet
Validated: 524289
EndChar

StartChar: divide
Encoding: 247 247 201
Width: 497
VWidth: 0
Flags: W
HStem: 131.85 114.65<221.907 330.956> 294 118<102.65 506.1> 455.05 114.65<272.897 382.97>
DStem2: 221.05 221.5 342.8 221.5 0.157185 0.987569<-74.8129 28.6784 252.505 355.948>
LayerCount: 2
Fore
SplineSet
261.7 478.05 m 2
 271.9 544.7 l 2
 273.9 559.7 283.9 569.7 299.9 569.7 c 2
 373.55 569.7 l 2
 390.2 569.7 396.2 559.8 393.65 544.7 c 2
 383.45 478.05 l 2
 380.9 461.4 369.35 455.05 355.35 455.05 c 2
 281.7 455.05 l 2
 267.7 455.05 259.7 464.05 261.7 478.05 c 2
209.85 154.85 m 2
 221.05 221.5 l 2
 223.05 236.5 233.05 246.5 249.05 246.5 c 2
 322.7 246.5 l 2
 339.35 246.5 345.35 236.6 342.8 221.5 c 2
 331.6 154.85 l 2
 329.05 138.2 318.5 131.85 304.5 131.85 c 2
 230.85 131.85 l 2
 216.85 131.85 207.85 140.85 209.85 154.85 c 2
84.05 294 m 1
 102.65 412 l 1
 524.7 412 l 1
 506.1 294 l 1
 84.05 294 l 1
EndSplineSet
Validated: 524321
EndChar

StartChar: question
Encoding: 63 63 202
Width: 542
VWidth: 0
Flags: W
HStem: 0 138<180.507 299.793> 285 105<330.85 414.35> 610.8 128.2<150.173 440.016> 610.8 102.7<127.95 268.61>
LayerCount: 2
Fore
SplineSet
165.1 23 m 2xc0
 179.6 113 l 2
 181.6 128 191.6 138 207.6 138 c 2
 293.6 138 l 2
 311.6 138 317.6 129 314.6 113 c 2
 300.1 23 l 2
 297.1 5 286.1 0 272.1 0 c 2
 186.1 0 l 2
 172.1 0 163.1 9 165.1 23 c 2xc0
111.25 610.8 m 1xd0
 127.95 713.5 l 1xd0
 224.25 732 300.05 744 414.05 739 c 1
 557.95 739 614.9 635.5 598.9 537.5 c 1
 586.75 453 l 2
 566.6 309.8 481 272.25 330.85 285 c 1
 330.85 283.65 316.6 197.7 317.05 195 c 1
 203.55 195 l 1
 234.05 390 l 1
 260.15 389.55 322.45 389.1 348.55 390 c 0
 397.55 392 438.95 412.4 448.3 471.7 c 2
 456.6 525.4 l 2
 466.3 587.4 437.5 610.8 360.25 610.8 c 2xe0
 111.25 610.8 l 1xd0
EndSplineSet
Validated: 524321
Substitution2: "'smcp' Lowercase to Small Capitals lookup 16-1" question.smcp
EndChar

StartChar: bracketleft
Encoding: 91 91 203
Width: 334
VWidth: 27
Flags: W
HStem: -243 118<203.571 286.25> 691 118<330.933 434.1>
DStem2: 62.6 -27.55 202.6 -38 0.15961 0.98718<-60.0536 741.818>
LayerCount: 2
Fore
SplineSet
62.6 -27.55 m 2
 171 642.9 l 2
 189.4 754.65 235.75 809 372.7 809 c 2
 452.7 809 l 1
 434.1 691 l 1
 381.6 691 l 2
 343.6 691 317.6 674.8 307.15 612.1 c 2
 202.6 -38 l 2
 191.25 -108.8 206.2 -125 249.6 -125 c 2
 304.85 -125 l 1
 286.25 -243 l 1
 197.45 -243 l 2
 56.3 -243 48.65 -111.5 62.6 -27.55 c 2
EndSplineSet
Validated: 524321
EndChar

StartChar: bracketright
Encoding: 93 93 204
Width: 331
VWidth: 27
Flags: W
HStem: -243 118<0.65 105.579> 691 118<149.05 229.37>
DStem2: 128.15 -46.1 270.35 -76.35 0.147433 0.989072<-67.735 733.217>
LayerCount: 2
Fore
SplineSet
-17.95 -243 m 1
 0.65 -125 l 1
 53.15 -125 l 2
 91.15 -125 117.7 -108.8 128.15 -46.1 c 2
 231.05 604 l 2
 242.4 674.8 225.8 691 182.4 691 c 2
 129.9 691 l 1
 149.05 809 l 1
 231.25 809 l 2
 363.05 809 385.55 701.15 371.6 602.9 c 2
 270.35 -76.35 l 2
 256.9 -168.85 220.45 -243 73.05 -243 c 2
 -17.95 -243 l 1
EndSplineSet
Validated: 524321
EndChar

StartChar: braceleft
Encoding: 123 123 205
Width: 320
VWidth: 27
Flags: W
HStem: 691 118<362.374 419.9>
DStem2: 86 -36.05 229.3 -14.05 0.158293 0.987392<-46.7246 273.011 406.766 741.105>
LayerCount: 2
Fore
SplineSet
58.75 252.25 m 1
 75.8 357.75 l 1
 109.25 359.85 150.4 362.4 157.3 406.25 c 2
 194.3 639.5 l 2
 213.3 758.15 289.8 809 438.5 809 c 1
 419.9 691 l 1
 366.2 691.45 338.4 668.2 324.4 579 c 2
 296.2 398 l 2
 286 335.7 242.9 308.7 184.55 301.9 c 1
 240.35 291.6 273 257.25 264.9 207 c 2
 229.3 -14.05 l 2
 215.7 -99.75 232.4 -132.3 290.1 -130.5 c 1
 272.05 -243 l 1
 110.9 -243 67.35 -150.15 86 -36.05 c 2
 123.25 194.75 l 2
 129.15 232.35 98.75 255.25 58.75 252.25 c 1
EndSplineSet
Validated: 524321
EndChar

StartChar: braceright
Encoding: 125 125 206
Width: 318
VWidth: 27
Flags: W
HStem: -243 112.5<0.1 60.3966>
DStem2: 94.05 -26.2 225.8 -70.2 0.152604 0.988287<-87.7077 269.624 406.231 705.871>
LayerCount: 2
Fore
SplineSet
-17.95 -243 m 1
 0.1 -130.5 l 1
 56 -130.95 82.25 -101.1 94.05 -26.2 c 2
 128.75 189.45 l 2
 137.3 242.4 179.95 272.7 238.85 283.9 c 1
 182.5 289.8 149.2 320.85 158.95 380.45 c 2
 188.5 566.85 l 2
 204.3 666.85 185.4 692.8 129.9 691 c 1
 149.05 809 l 1
 303.6 809 346.6 706.8 328.5 594.9 c 1
 300.05 390.5 l 2
 294.7 350.7 328.95 333.3 365.1 333 c 1
 348.05 227.5 l 1
 310.75 228.7 274 220.65 267.1 179 c 2
 225.8 -70.2 l 2
 204.6 -195.45 137.35 -243 -17.95 -243 c 1
EndSplineSet
Validated: 524321
EndChar

StartChar: at
Encoding: 64 64 207
Width: 896
VWidth: 0
Flags: W
HStem: -190 112.5<182.621 594.942> -163 85.5<455.118 623> -4 112.5<390.36 504.919> 3 112.5<670.7 726.606> 433.6 111.5<432.036 601.213> 607.5 113.5<283.705 784.048>
DStem2: 50.8 36.5 164.4 25.5 0.156161 0.987732<-64.0615 569.58> 564.3 174 670.7 115.5 0.153999 0.988071<-35.6204 252.662> 751.2 205.5 859.3 161.5 0.147229 0.989102<-84.4674 379.069>
LayerCount: 2
Fore
SplineSet
376.3 265 m 0x2c
 363.8 172.25 366.1 107.3 439.7 108.5 c 0
 494.7 109.15 532.85 126.1 564.3 174 c 1
 603.2 423.65 l 1
 560.25 433.05 524.8 433.6 492.7 433.6 c 0
 437.95 433.6 394.9 401.05 376.3 265 c 0x2c
50.8 36.5 m 2
 127.4 521 l 2
 150.65 665.25 235.1 721 382.45 721 c 2
 746.45 721 l 2
 889.9 721 927.65 621.9 907.9 488 c 2
 859.3 161.5 l 2
 847.35 79.85 810.65 3 666.65 3 c 2
 574.15 3 l 1x9c
 550.6 57.5 l 1
 528.4 29.55 490.15 -4.65 417.15 -4 c 0x2c
 298.45 -2.7 235 84.85 265.15 284.35 c 0
 299.15 505.9 406.15 545.1 496.65 545.1 c 0
 593.5 545.1 672.1 528.25 723.1 479.25 c 1
 670.7 115.5 l 1
 718.7 115.5 738.75 124.5 751.2 205.5 c 2
 794.85 499 l 2
 809.2 597.65 775.95 607.5 718.9 607.5 c 2
 358.9 607.5 l 2
 263.9 607.5 246.55 544.3 239.35 499 c 2
 164.4 25.5 l 2
 155.4 -31.5 165.05 -77.5 251.05 -77.5 c 2x9c
 637.05 -77.5 l 1
 623 -163 l 1x4c
 573 -173 457 -190 331 -190 c 2
 238.5 -190 l 2x8c
 74.55 -190 32.7 -80.4 50.8 36.5 c 2
EndSplineSet
Validated: 524321
Substitution2: "'case' Case-Sensitive Forms lookup 1-1" at.alt
Substitution2: "'smcp' Lowercase to Small Capitals lookup 16-1" at.smcp
EndChar

StartChar: breve
Encoding: 293 728 208
Width: 249
VWidth: 0
Flags: W
HStem: 531.1 56.45<120.293 214.118>
VStem: 56.25 57.55<593.95 644> 227.35 57.55<600.576 644>
LayerCount: 2
Fore
SplineSet
56.25 644 m 1
 113.8 644 l 1
 109.45 608.15 129.2 587.55 161.65 587.55 c 0
 201.9 587.1 222.65 605.65 227.35 644 c 1
 284.9 644 l 1
 276.65 570.15 231.2 531.1 161.1 531.1 c 0
 99.3 531.1 50.25 573.3 56.25 644 c 1
EndSplineSet
Validated: 524321
EndChar

StartChar: ogonek
Encoding: 294 731 209
Width: 214
VWidth: 0
Flags: W
HStem: -186.5 76.5<223.943 258.7> -20 20G<147.55 279.75> -20 20G<147.55 279.75>
LayerCount: 2
Fore
SplineSet
224.25 0 m 1xc0
 279.75 0 l 1
 191.15 -59.75 213.2 -115.1 270.9 -110 c 1
 258.7 -186.5 l 1
 148.4 -212.4 70.85 -71.7 224.25 0 c 1xc0
EndSplineSet
Validated: 524321
EndChar

StartChar: caron
Encoding: 295 711 210
Width: 374
VWidth: 0
Flags: W
HStem: 531 135.5<213.6 225.85>
VStem: 20.45 308.5
LayerCount: 2
Fore
SplineSet
20.45 666.5 m 1
 110.75 666.5 l 1
 155.65 601.1 l 1
 225.85 666.5 l 1
 328.95 666.5 l 1
 199.75 531 l 1
 98.5 531 l 1
 20.45 666.5 l 1
EndSplineSet
Validated: 524289
Substitution2: "'smcp' Lowercase to Small Capitals lookup 16-1" caron.smcp
EndChar

StartChar: hungarumlaut
Encoding: 296 733 211
Width: 466
VWidth: 0
Flags: W
HStem: 531 138.5
LayerCount: 2
Fore
SplineSet
298.9 531 m 1
 411.5 669.5 l 1
 534 669.5 l 1
 389.9 531 l 1
 298.9 531 l 1
143 531 m 1
 255.6 669.5 l 1
 378.1 669.5 l 1
 234 531 l 1
 143 531 l 1
EndSplineSet
Validated: 524289
EndChar

StartChar: dotaccent
Encoding: 297 729 212
Width: 142
VWidth: 0
Flags: W
HStem: 522 124<112.188 217.726>
VStem: 99.05 131.3
LayerCount: 2
Fore
SplineSet
99.05 545 m 2
 111.35 621 l 2
 113.35 636 123.35 646 139.35 646 c 2
 211.35 646 l 2
 226.35 646 232.35 635 230.35 621 c 2
 218.05 545 l 2
 216.05 530 206.05 522 192.05 522 c 2
 120.05 522 l 2
 106.05 522 97.05 531 99.05 545 c 2
EndSplineSet
Validated: 524321
EndChar

StartChar: Aogonek
Encoding: 298 260 213
Width: 732
VWidth: 0
Flags: W
HStem: -185.95 76.5<628.427 663.1> 0 21G<79.9004 244.458 577.112 627.482> 0 21G<79.9004 244.458 577.112 627.482> 162.2 124.05<370.6 538.15> 712 20G<432.982 605.477>
DStem2: 79.9004 0 234.6 0 0.444273 0.895891<68.7289 249.562 385.599 385.599> 602.15 732 497.15 551.55 0.164071 -0.986449<160.777 429.209>
LayerCount: 2
Fore
SplineSet
370.6 286.25 m 1x98
 538.15 286.25 l 1
 497.15 551.55 l 1
 370.6 286.25 l 1x98
79.9004 0 m 1xd8
 442.9 732 l 1
 602.15 732 l 1
 723.9 0 l 1xb8
 683.338 -4.00502e-09 l 1
 595.685 -59.5392 617.777 -114.534 675.3 -109.45 c 1
 663.1 -185.95 l 1
 553.081 -211.784 475.646 -71.8668 627.482 1.61568e-06 c 1
 580.7 0 l 1
 551.6 162.2 l 1
 314.55 162.2 l 1
 234.6 0 l 1
 79.9004 0 l 1xd8
EndSplineSet
Validated: 524321
Substitution2: "'c2sc' Capitals to Small Capitals in Latin lookup 17 subtable" aogonek.smcp
EndChar

StartChar: Lcaron
Encoding: 299 317 214
Width: 529
VWidth: 0
Flags: W
HStem: 0 129<229.605 513.65> 712 20G<173.456 316.2>
DStem2: 82.5 142.5 228.55 181 0.157713 0.987485<17.4501 596.971>
LayerCount: 2
Fore
SplineSet
361.65 571 m 1
 371.65 705 l 1
 382.1 772 l 1
 478.1 772 l 1
 467.65 705 l 1
 436.65 571 l 1
 361.65 571 l 1
82.5 142.5 m 2
 176.65 732 l 1
 316.2 732 l 1
 228.55 181 l 2
 220.55 128 254 129 283 129 c 2
 534 129 l 1
 513.65 0 l 1
 212.25 0 l 2
 132.046 0 65.85 38.05 82.5 142.5 c 2
EndSplineSet
Validated: 524321
Substitution2: "'c2sc' Capitals to Small Capitals in Latin lookup 17 subtable" lcaron.smcp
EndChar

StartChar: Sacute
Encoding: 300 346 215
Width: 579
VWidth: 0
Flags: W
HStem: -8 129<92.5398 406.982> 291.75 140<263.394 434.117> 609 129<284.106 597.363>
LayerCount: 2
Fore
SplineSet
361.75 798.55 m 1
 474.35 937.05 l 1
 596.85 937.05 l 1
 452.75 798.55 l 1
 361.75 798.55 l 1
65.3496 21.5 m 1
 82.5996 131.55 l 1
 123.4 126.65 236.6 121 329.6 121 c 0
 371.7 121 421.65 129.3 430.25 184.05 c 2
 436.3 223.45 l 2
 443.1 265.05 438.8 291.75 380.4 291.75 c 2
 279.35 291.75 l 2
 103.65 291.75 105.707 428.837 114.5 488.5 c 2
 125.05 564.4 l 1
 147.3 714.35 243.6 738.15 353.8 738 c 1
 459.05 739.3 563.5 727.5 626.3 709.05 c 1
 609.05 599.45 l 1
 551.9 603.3 407.8 609 371.5 609 c 1
 307.6 610.8 274.55 604.3 263.95 538 c 2
 258.35 502.25 l 2
 247.95 437.05 273.55 431.75 327.1 431.75 c 2
 430.35 431.75 l 2
 569.3 431.75 588.2 318.65 576.85 237.75 c 1
 570.8 172.5 l 1
 556.15 0.700195 422.7 -8 331.35 -8 c 0
 217.565 -8 133.35 -0.349609 65.3496 21.5 c 1
EndSplineSet
Validated: 524321
Substitution2: "'c2sc' Capitals to Small Capitals in Latin lookup 17 subtable" sacute.smcp
EndChar

StartChar: Scaron
Encoding: 301 352 216
Width: 579
VWidth: 0
Flags: W
HStem: -8 129<97.9401 412.382> 291.75 140<268.794 439.517> 609 129<289.506 602.763>
LayerCount: 2
Fore
SplineSet
283.521 934.218 m 1
 373.821 934.218 l 1
 418.721 868.818 l 1
 488.921 934.218 l 1
 592.021 934.218 l 1
 462.821 798.718 l 1
 361.571 798.718 l 1
 283.521 934.218 l 1
70.75 21.5 m 1
 88 131.55 l 1
 128.8 126.65 242 121 335 121 c 0
 377.1 121 427.05 129.3 435.65 184.05 c 2
 441.7 223.45 l 2
 448.5 265.05 444.2 291.75 385.8 291.75 c 2
 284.75 291.75 l 2
 109.05 291.75 111.107 428.837 119.9 488.5 c 2
 130.45 564.4 l 1
 152.7 714.35 249 738.15 359.2 738 c 1
 464.45 739.3 568.9 727.5 631.7 709.05 c 1
 614.45 599.45 l 1
 557.3 603.3 413.2 609 376.9 609 c 1
 313 610.8 279.95 604.3 269.35 538 c 2
 263.75 502.25 l 2
 253.35 437.05 278.95 431.75 332.5 431.75 c 2
 435.75 431.75 l 2
 574.7 431.75 593.6 318.65 582.25 237.75 c 1
 576.2 172.5 l 1
 561.55 0.700195 428.1 -8 336.75 -8 c 0
 222.965 -8 138.75 -0.349609 70.75 21.5 c 1
EndSplineSet
Validated: 524321
Substitution2: "'c2sc' Capitals to Small Capitals in Latin lookup 17 subtable" scaron.smcp
EndChar

StartChar: Scedilla
Encoding: 302 350 217
Width: 579
VWidth: 0
Flags: W
HStem: -186.5 60.1<190.2 211.76> -8 129<97.9401 412.382> 291.75 140<268.794 439.517> 609 129<289.506 602.763>
VStem: 276.9 94.5<-99.6128 -45>
LayerCount: 2
Fore
SplineSet
180.35 -186.5 m 1
 190.2 -126.4 l 1
 236.4 -111.4 l 1
 266.4 -99.4004 270.9 -83 276.9 -45 c 1
 371.4 -45 l 1
 355.4 -147 323.45 -186.5 236.85 -186.5 c 2
 180.35 -186.5 l 1
70.75 21.5 m 1
 88 131.55 l 1
 128.8 126.65 242 121 335 121 c 0
 377.1 121 427.05 129.3 435.65 184.05 c 2
 441.7 223.45 l 2
 448.5 265.05 444.2 291.75 385.8 291.75 c 2
 284.75 291.75 l 2
 109.05 291.75 111.107 428.837 119.9 488.5 c 2
 130.45 564.4 l 1
 152.7 714.35 249 738.15 359.2 738 c 1
 464.45 739.3 568.9 727.5 631.7 709.05 c 1
 614.45 599.45 l 1
 557.3 603.3 413.2 609 376.9 609 c 1
 313 610.8 279.95 604.3 269.35 538 c 2
 263.75 502.25 l 2
 253.35 437.05 278.95 431.75 332.5 431.75 c 2
 435.75 431.75 l 2
 574.7 431.75 593.6 318.65 582.25 237.75 c 1
 576.2 172.5 l 1
 561.55 0.700195 428.1 -8 336.75 -8 c 0
 222.965 -8 138.75 -0.349609 70.75 21.5 c 1
EndSplineSet
Validated: 524321
Substitution2: "'c2sc' Capitals to Small Capitals in Latin lookup 17 subtable" scedilla.smcp
EndChar

StartChar: Tcaron
Encoding: 303 356 218
Width: 588
VWidth: 0
Flags: W
HStem: 0 21G<224.25 367.408> 0 21G<224.25 367.408> 603 129<142.75 319.45 459.45 662.95>
DStem2: 224.25 0 364.25 0 0.155946 0.987766<21.8324 610.469>
LayerCount: 2
Fore
SplineSet
290.577 932.5 m 1x20
 380.877 932.5 l 1
 425.777 867.1 l 1
 495.977 932.5 l 1
 599.077 932.5 l 1
 469.877 797 l 1
 368.627 797 l 1
 290.577 932.5 l 1x20
121.95 603 m 1
 142.75 732 l 1
 683.75 732 l 1
 662.95 603 l 1
 459.45 603 l 1
 364.25 0 l 1
 224.25 0 l 1xa0
 319.45 603 l 1
 121.95 603 l 1
EndSplineSet
Validated: 524289
Substitution2: "'c2sc' Capitals to Small Capitals in Latin lookup 17 subtable" tcaron.smcp
EndChar

StartChar: Zacute
Encoding: 304 377 219
Width: 557
VWidth: 0
Flags: W
HStem: 0 129<276.05 577.55> 603 129<189.55 501.5>
DStem2: 94.3496 129 276.05 129 0.651589 0.758572<118.394 624.858>
LayerCount: 2
Fore
SplineSet
405.6 794.75 m 1
 518.2 933.25 l 1
 640.7 933.25 l 1
 496.6 794.75 l 1
 405.6 794.75 l 1
73.5498 0 m 1
 94.3496 129 l 1
 501.5 603 l 1
 168.75 603 l 1
 189.55 732 l 1
 693.55 732 l 1
 672.75 603 l 1
 276.05 129 l 1
 598.35 129 l 1
 577.55 0 l 1
 73.5498 0 l 1
EndSplineSet
Validated: 524289
Substitution2: "'c2sc' Capitals to Small Capitals in Latin lookup 17 subtable" zacute.smcp
EndChar

StartChar: Zcaron
Encoding: 305 381 220
Width: 557
VWidth: 0
Flags: W
HStem: 0 129<229.25 530.75> 603 129<142.75 454.7>
DStem2: 47.5498 129 229.25 129 0.651589 0.758573<118.394 624.858>
LayerCount: 2
Fore
SplineSet
272.352 932.5 m 1
 362.652 932.5 l 1
 407.552 867.1 l 1
 477.752 932.5 l 1
 580.852 932.5 l 1
 451.652 797 l 1
 350.402 797 l 1
 272.352 932.5 l 1
26.75 0 m 1
 47.5498 129 l 1
 454.7 603 l 1
 121.95 603 l 1
 142.75 732 l 1
 646.75 732 l 1
 625.95 603 l 1
 229.25 129 l 1
 551.55 129 l 1
 530.75 0 l 1
 26.75 0 l 1
EndSplineSet
Validated: 524289
Substitution2: "'c2sc' Capitals to Small Capitals in Latin lookup 17 subtable" zcaron.smcp
EndChar

StartChar: Zdotaccent
Encoding: 306 379 221
Width: 557
VWidth: 0
Flags: W
HStem: 0 129<229.25 530.75> 603 129<142.75 454.7> 797 124<362.335 467.873>
DStem2: 47.5498 129 229.25 129 0.651589 0.758573<118.394 624.858>
LayerCount: 2
Fore
SplineSet
349.197 820 m 2
 361.497 896 l 2
 363.497 911 373.497 921 389.497 921 c 2
 461.497 921 l 2
 476.497 921 482.497 910 480.497 896 c 2
 468.197 820 l 2
 466.197 805 456.197 797 442.197 797 c 2
 370.197 797 l 2
 356.197 797 347.197 806 349.197 820 c 2
26.75 0 m 1
 47.5498 129 l 1
 454.7 603 l 1
 121.95 603 l 1
 142.75 732 l 1
 646.75 732 l 1
 625.95 603 l 1
 229.25 129 l 1
 551.55 129 l 1
 530.75 0 l 1
 26.75 0 l 1
EndSplineSet
Validated: 524321
Substitution2: "'c2sc' Capitals to Small Capitals in Latin lookup 17 subtable" zdotaccent.smcp
EndChar

StartChar: aogonek
Encoding: 307 261 222
Width: 513
VWidth: 0
Flags: W
HStem: -185.95 76.5<413.693 448.45> -19.4502 20G<337.3 469.5> -19.4502 20G<337.3 469.5> -5.90039 118.55<154.525 308.793>
DStem2: 379.15 162.85 496.45 1.09961 0.147689 0.989034<-24.3943 261.784>
LayerCount: 2
Fore
SplineSet
414 0.549805 m 1x80
 469.5 0.549805 l 1
 380.9 -59.2002 402.95 -114.55 460.65 -109.45 c 1
 448.45 -185.95 l 1
 338.15 -211.85 260.6 -71.1504 414 0.549805 c 1x80
203.5 271.35 m 0
 188.1 170.75 194.85 112.65 257.45 112.65 c 0x90
 315.2 112.65 346.9 131.65 379.15 162.85 c 1
 417.4 419 l 1
 386 430.05 340.3 434.75 310.85 428.4 c 0
 265.65 419.15 224.05 405.15 203.5 271.35 c 0
67.0498 296.7 m 0
 109.1 516.45 223.6 536.5 317.7 541 c 0
 394.3 545.05 515.45 528 566.45 479 c 1
 496.45 1.09961 l 1
 388.45 1.09961 l 1
 367 55.5996 l 1
 340.75 22.8496 270.1 -5.90039 206.3 -5.90039 c 0
 102.75 -5.90039 25.3994 77.7002 67.0498 296.7 c 0
EndSplineSet
Validated: 524321
AlternateSubs2: "'salt' Access All Alternates in Latin lookup 4-1" aogonek.salt
Substitution2: "'smcp' Lowercase to Small Capitals lookup 16-1" aogonek.smcp
EndChar

StartChar: lcaron
Encoding: 308 318 223
Width: 365
VWidth: 0
Flags: W
HStem: 0 87.35<242.806 293.1> 763 20G<164.985 308.15>
DStem2: 74.15 189 217.45 211 0.156304 0.987709<-43.0435 601.392>
LayerCount: 2
Fore
SplineSet
352.15 580.55 m 1
 362.15 714.55 l 1
 373.15 781.55 l 1
 469.15 781.55 l 1
 458.15 714.55 l 1
 427.15 580.55 l 1
 352.15 580.55 l 1
74.15 189 m 2
 168.15 783 l 1
 308.15 783 l 1
 217.45 211 l 2
 204.2 128.5 219.45 117.65 248 107 c 1
 248 107 302.75 87.35 307.05 87.35 c 1
 293.1 0 l 1
 197.6 0 l 2
 108 0 52.15 48.45 74.15 189 c 2
EndSplineSet
Validated: 524321
Substitution2: "'smcp' Lowercase to Small Capitals lookup 16-1" lcaron.smcp
EndChar

StartChar: sacute
Encoding: 309 347 224
Width: 509
VWidth: 0
Flags: W
HStem: -7.25 116.35<78.9528 363.781> 204.45 121.3<234.054 374.64> 422.9 115.35<247.55 526.5>
LayerCount: 2
Fore
SplineSet
303.4 599.9 m 1
 416 738.4 l 1
 538.5 738.4 l 1
 394.4 599.9 l 1
 303.4 599.9 l 1
63.8496 21.6504 m 1
 77.7998 109.1 l 1
 328.15 109.1 l 2
 337.5 109.1 363.45 110.25 369.05 142.75 c 2
 373.65 169.8 l 2
 377.45 192.15 371.75 204.45 343.15 204.45 c 2
 224.3 204.45 l 2
 130.3 204.45 77 256.35 93 358 c 2
 101 406.25 l 2
 114.45 490.05 158.65 538.25 261.65 538.25 c 0
 363.7 538.25 503.2 534.95 540.45 511.25 c 1
 526.5 422.9 l 1
 286.4 422.9 l 2
 250.45 422.9 242.35 405.35 239.35 386.45 c 2
 235.2 360.2 l 2
 228.6 321.25 251.75 325.75 270.95 325.75 c 2
 393.45 325.75 l 2
 494.75 325.75 528.95 254.7 516.4 177.5 c 1
 507.4 116.7 l 2
 490.4 7.7002 415.6 -7.25 355.2 -7.25 c 0
 254.5 -7.25 97 -2.7002 63.8496 21.6504 c 1
EndSplineSet
Validated: 524321
Substitution2: "'smcp' Lowercase to Small Capitals lookup 16-1" sacute.smcp
EndChar

StartChar: scaron
Encoding: 310 353 225
Width: 509
VWidth: 0
Flags: W
HStem: -7.25 116.35<70.8532 355.681> 204.45 121.3<225.954 366.54> 422.9 115.35<239.45 518.4> 715.4 20G<209.2 313.231 393.132 517.7>
LayerCount: 2
Fore
SplineSet
209.2 735.4 m 1
 299.5 735.4 l 1
 344.4 670 l 1
 414.6 735.4 l 1
 517.7 735.4 l 1
 388.5 599.9 l 1
 287.25 599.9 l 1
 209.2 735.4 l 1
55.75 21.6504 m 1
 69.7002 109.1 l 1
 320.05 109.1 l 2
 329.4 109.1 355.35 110.25 360.95 142.75 c 2
 365.55 169.8 l 2
 369.35 192.15 363.65 204.45 335.05 204.45 c 2
 216.2 204.45 l 2
 122.2 204.45 68.9004 256.35 84.9004 358 c 2
 92.9004 406.25 l 2
 106.35 490.05 150.55 538.25 253.55 538.25 c 0
 355.6 538.25 495.1 534.95 532.35 511.25 c 1
 518.4 422.9 l 1
 278.3 422.9 l 2
 242.35 422.9 234.25 405.35 231.25 386.45 c 2
 227.1 360.2 l 2
 220.5 321.25 243.65 325.75 262.85 325.75 c 2
 385.35 325.75 l 2
 486.65 325.75 520.85 254.7 508.3 177.5 c 1
 499.3 116.7 l 2
 482.3 7.7002 407.5 -7.25 347.1 -7.25 c 0
 246.4 -7.25 88.9004 -2.7002 55.75 21.6504 c 1
EndSplineSet
Validated: 524321
Substitution2: "'smcp' Lowercase to Small Capitals lookup 16-1" scaron.smcp
EndChar

StartChar: scedilla
Encoding: 311 351 226
Width: 509
VWidth: 0
Flags: W
HStem: -180.5 60.1<145.75 167.31> -7.25 116.35<70.8532 355.681> 204.45 121.3<225.954 366.54> 422.9 115.35<239.45 518.4>
VStem: 232.45 94.5<-93.6128 -39>
LayerCount: 2
Fore
SplineSet
135.9 -180.5 m 1
 145.75 -120.4 l 1
 191.95 -105.4 l 1
 221.95 -93.4004 226.45 -77 232.45 -39 c 1
 326.95 -39 l 1
 310.95 -141 279 -180.5 192.4 -180.5 c 2
 135.9 -180.5 l 1
55.75 21.6504 m 1
 69.7002 109.1 l 1
 320.05 109.1 l 2
 329.4 109.1 355.35 110.25 360.95 142.75 c 2
 365.55 169.8 l 2
 369.35 192.15 363.65 204.45 335.05 204.45 c 2
 216.2 204.45 l 2
 122.2 204.45 68.9004 256.35 84.9004 358 c 2
 92.9004 406.25 l 2
 106.35 490.05 150.55 538.25 253.55 538.25 c 0
 355.6 538.25 495.1 534.95 532.35 511.25 c 1
 518.4 422.9 l 1
 278.3 422.9 l 2
 242.35 422.9 234.25 405.35 231.25 386.45 c 2
 227.1 360.2 l 2
 220.5 321.25 243.65 325.75 262.85 325.75 c 2
 385.35 325.75 l 2
 486.65 325.75 520.85 254.7 508.3 177.5 c 1
 499.3 116.7 l 2
 482.3 7.7002 407.5 -7.25 347.1 -7.25 c 0
 246.4 -7.25 88.9004 -2.7002 55.75 21.6504 c 1
EndSplineSet
Validated: 524321
Substitution2: "'smcp' Lowercase to Small Capitals lookup 16-1" scedilla.smcp
EndChar

StartChar: tcaron
Encoding: 312 357 227
Width: 395
VWidth: 0
Flags: W
HStem: -0.1 87.35<285.923 336.65> 425 107<312.25 414>
DStem2: 118.25 190 261.55 212 0.156694 0.987647<-43.046 237.903>
LayerCount: 2
Fore
SplineSet
385.2 599.55 m 1
 396.1 733.55 l 1
 406.2 800.55 l 1
 502.65 800.55 l 1
 492.1 733.55 l 1
 460.2 599.55 l 1
 385.2 599.55 l 1
69.5 425 m 1
 81.8 503 l 1
 172.25 532 l 1
 219.3 680 l 1
 335.8 680 l 1
 312.25 532 l 1
 430.95 532 l 1
 414 425 l 1
 295.3 425 l 1
 261.55 212 l 2
 248.75 128.4 262.55 117.55 291.1 106.9 c 1
 291.1 106.9 345.85 87.25 350.15 87.25 c 1
 336.65 -0.1 l 1
 240.05 -0.1 l 2
 158.7 -0.1 96.25 49.45 118.25 190 c 2
 155.3 425 l 1
 69.5 425 l 1
EndSplineSet
Validated: 524321
AlternateSubs2: "'salt' Access All Alternates in Latin lookup 4-1" tcaron.salt
Substitution2: "'smcp' Lowercase to Small Capitals lookup 16-1" tcaron.smcp
EndChar

StartChar: zacute
Encoding: 313 378 228
Width: 473
VWidth: 0
Flags: W
HStem: 1 118<267.4 474.027> 413 118<128 359.65> 713.9 20G<403.39 542.15>
DStem2: 76.25 117.9 267.4 119 0.692664 0.72126<133.196 409.145>
LayerCount: 2
Fore
SplineSet
307.05 595.4 m 1
 419.65 733.9 l 1
 542.15 733.9 l 1
 398.05 595.4 l 1
 307.05 595.4 l 1
59 1 m 1
 76.25 117.9 l 1
 359.65 413 l 1
 110.3 413 l 1
 128 531 l 1
 557 531 l 1
 539.3 413 l 1
 267.4 119 l 1
 491.15 119 l 1
 492.15 118 473 1 473 1 c 1
 59 1 l 1
EndSplineSet
Validated: 524321
Substitution2: "'smcp' Lowercase to Small Capitals lookup 16-1" zacute.smcp
EndChar

StartChar: zcaron
Encoding: 314 382 229
Width: 473
VWidth: 0
Flags: W
HStem: 1 118<246.25 452.877> 413 118<106.85 338.5> 713.15 20G<199.227 303.258 383.159 507.727>
DStem2: 55.0996 117.9 246.25 119 0.692665 0.72126<133.196 409.145>
LayerCount: 2
Fore
SplineSet
199.227 733.15 m 1
 289.527 733.15 l 1
 334.427 667.75 l 1
 404.627 733.15 l 1
 507.727 733.15 l 1
 378.527 597.65 l 1
 277.277 597.65 l 1
 199.227 733.15 l 1
37.8496 1 m 1
 55.0996 117.9 l 1
 338.5 413 l 1
 89.1504 413 l 1
 106.85 531 l 1
 535.85 531 l 1
 518.15 413 l 1
 246.25 119 l 1
 470 119 l 1
 471 118 451.85 1 451.85 1 c 1
 37.8496 1 l 1
EndSplineSet
Validated: 524321
Substitution2: "'smcp' Lowercase to Small Capitals lookup 16-1" zcaron.smcp
EndChar

StartChar: zdotaccent
Encoding: 315 380 230
Width: 473
VWidth: 0
Flags: W
HStem: 1 118<246.25 452.877> 413 118<106.85 338.5> 597.65 124<289.21 394.748>
DStem2: 55.0996 117.9 246.25 119 0.692665 0.72126<133.196 409.145>
LayerCount: 2
Fore
SplineSet
276.072 620.65 m 2
 288.372 696.65 l 2
 290.372 711.65 300.372 721.65 316.372 721.65 c 2
 388.372 721.65 l 2
 403.372 721.65 409.372 710.65 407.372 696.65 c 2
 395.072 620.65 l 2
 393.072 605.65 383.072 597.65 369.072 597.65 c 2
 297.072 597.65 l 2
 283.072 597.65 274.072 606.65 276.072 620.65 c 2
37.8496 1 m 1
 55.0996 117.9 l 1
 338.5 413 l 1
 89.1504 413 l 1
 106.85 531 l 1
 535.85 531 l 1
 518.15 413 l 1
 246.25 119 l 1
 470 119 l 1
 471 118 451.85 1 451.85 1 c 1
 37.8496 1 l 1
EndSplineSet
Validated: 524321
Substitution2: "'smcp' Lowercase to Small Capitals lookup 16-1" zdotaccent.smcp
EndChar

StartChar: Racute
Encoding: 316 340 231
Width: 603
VWidth: 0
Flags: W
HStem: 0 21G<51.3496 194.515 429.227 593.35> 0 21G<51.3496 194.515 429.227 593.35> 288.75 109.1<255.2 329.697> 607.5 124.5<288.65 491.811>
DStem2: 51.3496 0 191.35 0 0.156517 0.987675<21.9125 314.257 424.853 637.154>
LayerCount: 2
Fore
SplineSet
365.932 794.25 m 1x30
 478.532 932.75 l 1
 601.032 932.75 l 1
 456.932 794.25 l 1
 365.932 794.25 l 1x30
255.2 397.85 m 1
 407.45 397.85 l 2
 460.25 397.85 490.3 426.55 498.75 503.75 c 0
 507.55 587.35 490.75 607.5 443.15 607.5 c 2
 288.65 607.5 l 1
 255.2 397.85 l 1
51.3496 0 m 1xb0
 167.35 732 l 1
 476.6 732 l 2
 586.35 732 663.35 665.25 639.75 490 c 0
 615.8 307.9 525.15 293.35 489.55 288.25 c 1
 593.35 0 l 1
 435.35 0 l 1
 349.55 280.25 l 1
 237.05 288.75 l 1
 191.35 0 l 1
 51.3496 0 l 1xb0
EndSplineSet
Validated: 524321
Substitution2: "'c2sc' Capitals to Small Capitals in Latin lookup 17 subtable" racute.smcp
EndChar

StartChar: Abreve
Encoding: 317 258 232
Width: 688
VWidth: 0
Flags: W
HStem: 0 21G<34 198.558 531.212 678> 0 21G<34 198.558 531.212 678> 162.2 124.05<324.7 492.25> 712 20G<387.082 559.576> 797 56.45<454.854 548.679>
VStem: 390.811 57.55<859.85 909.9> 561.911 57.55<866.476 909.9>
DStem2: 34 0 188.7 0 0.444274 0.895891<68.7292 249.562 385.599 385.599> 556.25 732 451.25 551.55 0.164071 -0.986449<160.777 429.209>
LayerCount: 2
Fore
SplineSet
390.811 909.9 m 1x3e
 448.361 909.9 l 1
 444.011 874.05 463.761 853.45 496.211 853.45 c 0
 536.461 853 557.211 871.55 561.911 909.9 c 1
 619.461 909.9 l 1
 611.211 836.05 565.761 797 495.661 797 c 0
 433.861 797 384.811 839.2 390.811 909.9 c 1x3e
324.7 286.25 m 1
 492.25 286.25 l 1
 451.25 551.55 l 1
 324.7 286.25 l 1
34 0 m 1xbe
 397 732 l 1
 556.25 732 l 1
 678 0 l 1
 534.8 0 l 1
 505.7 162.2 l 1
 268.65 162.2 l 1
 188.7 0 l 1
 34 0 l 1xbe
EndSplineSet
Validated: 524321
Substitution2: "'c2sc' Capitals to Small Capitals in Latin lookup 17 subtable" abreve.smcp
EndChar

StartChar: Lacute
Encoding: 318 313 233
Width: 529
VWidth: 0
Flags: W
HStem: 0 129<179.155 463.2> 712 20G<123.006 265.75>
DStem2: 32.0498 142.5 178.1 181 0.157713 0.987485<17.4501 596.971>
LayerCount: 2
Fore
SplineSet
156.25 792 m 1
 268.85 930.5 l 1
 391.35 930.5 l 1
 247.25 792 l 1
 156.25 792 l 1
32.0498 142.5 m 2
 126.2 732 l 1
 265.75 732 l 1
 178.1 181 l 2
 170.1 128 203.55 129 232.55 129 c 2
 483.55 129 l 1
 463.2 0 l 1
 161.8 0 l 2
 81.5996 0 15.4004 38.0498 32.0498 142.5 c 2
EndSplineSet
Validated: 524321
Substitution2: "'c2sc' Capitals to Small Capitals in Latin lookup 17 subtable" lacute.smcp
EndChar

StartChar: Cacute
Encoding: 319 262 234
Width: 571
VWidth: 0
Flags: W
HStem: -6 129<273.971 529.805> 611 129<330.594 607.379>
LayerCount: 2
Fore
SplineSet
406.875 800 m 1
 519.475 938.5 l 1
 641.975 938.5 l 1
 497.875 800 l 1
 406.875 800 l 1
100.15 385.05 m 0
 137.5 618.5 208.2 740 407.2 740 c 0
 509.8 740 581.95 727.95 657.1 704.5 c 1
 639.85 594.9 l 1
 629.4 596.25 520.7 611.9 421.3 611 c 0
 350.35 610.55 279.35 615 240.15 366 c 1
 213.25 202.9 233 127.05 341.2 123 c 1
 418.75 121.65 503.9 127.05 567.8 131.55 c 1
 551 21.9502 l 1
 476.45 -2.7002 401.65 -7.65039 291 -6 c 0
 104.75 -4.34961 66.6504 173.25 100.15 385.05 c 0
EndSplineSet
Validated: 524321
Substitution2: "'c2sc' Capitals to Small Capitals in Latin lookup 17 subtable" cacute.smcp
EndChar

StartChar: Ccaron
Encoding: 320 268 235
Width: 571
VWidth: 0
Flags: W
HStem: -6 129<273.971 529.805> 611 129<330.594 607.379>
LayerCount: 2
Fore
SplineSet
326.571 935.5 m 1
 416.871 935.5 l 1
 461.771 870.1 l 1
 531.971 935.5 l 1
 635.071 935.5 l 1
 505.871 800 l 1
 404.621 800 l 1
 326.571 935.5 l 1
100.15 385.05 m 0
 137.5 618.5 208.2 740 407.2 740 c 0
 509.8 740 581.95 727.95 657.1 704.5 c 1
 639.85 594.9 l 1
 629.4 596.25 520.7 611.9 421.3 611 c 0
 350.35 610.55 279.35 615 240.15 366 c 1
 213.25 202.9 233 127.05 341.2 123 c 1
 418.75 121.65 503.9 127.05 567.8 131.55 c 1
 551 21.9502 l 1
 476.45 -2.7002 401.65 -7.65039 291 -6 c 0
 104.75 -4.34961 66.6504 173.25 100.15 385.05 c 0
EndSplineSet
Validated: 524321
Substitution2: "'c2sc' Capitals to Small Capitals in Latin lookup 17 subtable" ccaron.smcp
EndChar

StartChar: Eogonek
Encoding: 321 280 236
Width: 558
VWidth: 0
Flags: W
HStem: -172.5 76.5<475.684 509.6> -3 131.75<228.062 459.463> 297.15 135.1<267.2 454.906> 306.6 115.1<362.394 531.3> 600.25 131.75<295.603 623.85> 600.25 115.75<360.476 623.85>
DStem2: 81.5498 150.5 227.05 180.75 0.15633 0.987705<8.98631 170.532 307.309 473.279>
LayerCount: 2
Fore
SplineSet
81.5498 150.5 m 2xe0
 150.4 585.5 l 2
 170.25 708.8 250.55 733.8 333.7 732 c 1xe8
 333.7 732 578.95 724.8 642.2 716 c 1xc4
 623.85 600.25 l 1
 345.35 600.25 l 2
 295.15 600.25 288.9 571.25 284.9 544.25 c 2
 267.2 432.25 l 1xe8
 550.1 421.7 l 1
 531.3 306.6 l 1xd0
 245.85 297.15 l 1
 227.05 180.75 l 2
 218.95 127.75 252.5 128.75 281.5 128.75 c 2
 550 128.75 l 1
 531.2 14 l 2
 530.976 13.9704 530.748 13.9407 530.518 13.911 c 0
 442.072 -45.805 464.128 -101.097 521.8 -96 c 1
 509.6 -172.5 l 1
 402.103 -197.742 325.713 -64.7451 463.897 8.40276 c 1
 370.063 2.4153 226.7 -3 226.7 -3 c 0
 156.117 -6.08301 61.5996 24.0498 81.5498 150.5 c 2xe0
EndSplineSet
Validated: 524321
Substitution2: "'c2sc' Capitals to Small Capitals in Latin lookup 17 subtable" eogonek.smcp
EndChar

StartChar: Ecaron
Encoding: 322 282 237
Width: 560
VWidth: 0
Flags: W
HStem: -3 131.75<225.812 519.558> 14 114.75<247.555 528.95> 297.15 135.1<264.95 452.656> 306.6 115.1<360.144 529.05> 600.25 131.75<293.353 621.6> 600.25 115.75<358.226 621.6>
DStem2: 79.2998 150.5 224.8 180.75 0.15633 0.987705<8.98631 170.532 307.309 473.279>
LayerCount: 2
Fore
SplineSet
301.564 932.5 m 1x00
 391.864 932.5 l 1
 436.764 867.1 l 1
 506.964 932.5 l 1
 610.064 932.5 l 1
 480.864 797 l 1
 379.614 797 l 1
 301.564 932.5 l 1x00
79.2998 150.5 m 2
 148.15 585.5 l 2
 168 708.8 248.3 733.8 331.45 732 c 1x88
 331.45 732 576.7 724.8 639.95 716 c 1x04
 621.6 600.25 l 1
 343.1 600.25 l 2
 292.9 600.25 286.65 571.25 282.65 544.25 c 2
 264.95 432.25 l 1x28
 547.85 421.7 l 1
 529.05 306.6 l 1x10
 243.6 297.15 l 1
 224.8 180.75 l 2
 216.7 127.75 250.25 128.75 279.25 128.75 c 2xa0
 547.75 128.75 l 1
 528.95 14 l 1x40
 470.65 6.2998 224.45 -3 224.45 -3 c 2x80
 153.867 -6.08301 59.3496 24.0498 79.2998 150.5 c 2
EndSplineSet
Validated: 524321
Substitution2: "'c2sc' Capitals to Small Capitals in Latin lookup 17 subtable" ecaron.smcp
EndChar

StartChar: Dcaron
Encoding: 323 270 238
Width: 655
VWidth: 0
Flags: W
HStem: 0 124.85<227.65 443.343> 608.5 123.5<304.25 508.966>
DStem2: 67.9502 0 227.65 124.85 0.156611 0.98766<148.32 637.998>
LayerCount: 2
Fore
SplineSet
313.05 930.25 m 1
 403.35 930.25 l 1
 448.25 864.85 l 1
 518.45 930.25 l 1
 621.55 930.25 l 1
 492.35 794.75 l 1
 391.1 794.75 l 1
 313.05 930.25 l 1
227.65 124.85 m 1
 374.4 124.85 l 2
 468.1 124.85 517.5 219.4 540.4 364 c 0
 570.75 554.45 534.1 608.5 445.5 608.5 c 2
 304.25 608.5 l 1
 227.65 124.85 l 1
67.9502 0 m 1
 183.95 731.55 l 2
 183.95 732 453.6 732 480.6 732 c 0
 691.3 732 707.9 524.6 679.85 346.5 c 0
 640.65 96.6504 550.85 0 373.95 0 c 2
 67.9502 0 l 1
EndSplineSet
Validated: 524321
Substitution2: "'c2sc' Capitals to Small Capitals in Latin lookup 17 subtable" dcaron.smcp
EndChar

StartChar: Nacute
Encoding: 324 323 239
Width: 669
VWidth: 0
Flags: W
HStem: 0 21G<60.75 204.906 476.636 626.919> 0 21G<60.75 204.906 476.636 626.919> 712 20G<173.581 325.696 596.608 739.75>
DStem2: 60.75 0 201.75 0 0.156517 0.987675<22.0689 498.137> 316.95 732 275.95 470.25 0.400672 -0.916221<223.393 519.252> 525 256.25 623.75 0 0.156517 0.987675<0 481.586>
LayerCount: 2
Fore
SplineSet
422.957 797 m 1x20
 535.557 935.5 l 1
 658.057 935.5 l 1
 513.957 797 l 1
 422.957 797 l 1x20
60.75 0 m 1xa0
 176.75 732 l 1
 316.95 732 l 1
 525 256.25 l 1
 599.75 732 l 1
 739.75 732 l 1
 623.75 0 l 1
 485.55 0 l 1
 275.95 470.25 l 1
 201.75 0 l 1
 60.75 0 l 1xa0
EndSplineSet
Validated: 524289
AlternateSubs2: "'salt' Access All Alternates in Latin lookup 4-1" Nacute.salt
Substitution2: "'c2sc' Capitals to Small Capitals in Latin lookup 17 subtable" nacute.smcp
EndChar

StartChar: Ncaron
Encoding: 325 327 240
Width: 669
VWidth: 0
Flags: W
HStem: 0 21G<60.75 204.906 476.636 626.919> 0 21G<60.75 204.906 476.636 626.919> 712 20G<173.581 325.696 596.608 739.75>
DStem2: 60.75 0 201.75 0 0.156517 0.987675<22.0689 498.137> 316.95 732 275.95 470.25 0.400672 -0.916221<223.393 519.252> 525 256.25 623.75 0 0.156517 0.987675<0 481.586>
LayerCount: 2
Fore
SplineSet
335.852 932.5 m 1x20
 426.152 932.5 l 1
 471.052 867.1 l 1
 541.252 932.5 l 1
 644.352 932.5 l 1
 515.152 797 l 1
 413.902 797 l 1
 335.852 932.5 l 1x20
60.75 0 m 1xa0
 176.75 732 l 1
 316.95 732 l 1
 525 256.25 l 1
 599.75 732 l 1
 739.75 732 l 1
 623.75 0 l 1
 485.55 0 l 1
 275.95 470.25 l 1
 201.75 0 l 1
 60.75 0 l 1xa0
EndSplineSet
Validated: 524289
AlternateSubs2: "'salt' Access All Alternates in Latin lookup 4-1" Ncaron.salt
Substitution2: "'c2sc' Capitals to Small Capitals in Latin lookup 17 subtable" ncaron.smcp
EndChar

